{
.appVersion = "1230";
DisplayStrings = (
"/dotbelowcomb"
);
copyright = "Copyright 2019 The Tomorrow Project Authors (https://github.com/googlefonts/Tomorrow)";
customParameters = (
{
name = panose;
value = (
0,
0,
9,
0,
0,
0,
0,
0,
0,
0
);
},
{
name = unicodeRanges;
value = (
0,
1,
2,
29
);
},
{
name = codePageRanges;
value = (
1252,
1250,
1257
);
},
{
name = blueScale;
value = 0.037;
},
{
name = glyphOrder;
value = (
.notdef,
CR,
space,
A,
Aacute,
Abreve,
uni1EAE,
uni1EB6,
uni1EB0,
uni1EB2,
uni1EB4,
Acircumflex,
uni1EA4,
uni1EAC,
uni1EA6,
uni1EA8,
uni1EAA,
uni0200,
Adieresis,
uni1EA0,
Agrave,
uni1EA2,
uni0202,
Amacron,
Aogonek,
Aring,
Aringacute,
Atilde,
AE,
AEacute,
B,
C,
Cacute,
Ccaron,
Ccedilla,
Ccircumflex,
Cdotaccent,
D,
uni01C4,
Eth,
Dcaron,
Dcroat,
uni01C5,
E,
Eacute,
Ebreve,
Ecaron,
Ecircumflex,
uni1EBE,
uni1EC6,
uni1EC0,
uni1EC2,
uni1EC4,
uni0204,
Edieresis,
Edotaccent,
uni1EB8,
Egrave,
uni1EBA,
uni0206,
Emacron,
Eogonek,
uni1EBC,
F,
G,
Gbreve,
Gcaron,
Gcircumflex,
uni0122,
Gdotaccent,
H,
Hbar,
Hcircumflex,
I,
Iacute,
Ibreve,
Icircumflex,
uni0208,
Idieresis,
Idotaccent,
uni1ECA,
Igrave,
uni1EC8,
uni020A,
Imacron,
Iogonek,
Itilde,
J,
Jcircumflex,
K,
uni0136,
L,
uni01C7,
Lacute,
Lcaron,
uni013B,
Ldot,
uni01C8,
Lslash,
M,
N,
uni01CA,
Nacute,
Ncaron,
uni0145,
Eng,
uni01CB,
Ntilde,
O,
Oacute,
Obreve,
Ocircumflex,
uni1ED0,
uni1ED8,
uni1ED2,
uni1ED4,
uni1ED6,
uni020C,
Odieresis,
uni022A,
uni0230,
uni1ECC,
Ograve,
uni1ECE,
Ohorn,
uni1EDA,
uni1EE2,
uni1EDC,
uni1EDE,
uni1EE0,
Ohungarumlaut,
uni020E,
Omacron,
uni01EA,
Oslash,
Oslashacute,
Otilde,
uni022C,
OE,
P,
Thorn,
Q,
R,
Racute,
Rcaron,
uni0156,
uni0210,
uni0212,
S,
Sacute,
Scaron,
Scedilla,
Scircumflex,
uni0218,
uni1E9E,
uni018F,
T,
Tbar,
Tcaron,
uni0162,
uni021A,
U,
Uacute,
Ubreve,
Ucircumflex,
uni0214,
Udieresis,
uni1EE4,
Ugrave,
uni1EE6,
Uhorn,
uni1EE8,
uni1EF0,
uni1EEA,
uni1EEC,
uni1EEE,
Uhungarumlaut,
uni0216,
Umacron,
Uogonek,
Uring,
Utilde,
V,
W,
Wacute,
Wcircumflex,
Wdieresis,
Wgrave,
X,
Y,
Yacute,

glyphs = (
{
glyphname = .notdef;
lastChange = "2019-09-03 21:22:04 +0000";
layers = (
{
hints = (
{
horizontal = 1;
place = "{61, 137}";
type = Stem;
},
{
horizontal = 1;
place = "{294, 229}";
type = Stem;
},
{
place = "{152, 166}";
type = Stem;
},
{
place = "{408, 166}";
type = Stem;
},
{
place = "{33, 138}";
type = Stem;
},
{
place = "{556, 137}";
type = Stem;
}
);
layerId = "59338637-1E5C-47E2-9B1C-5C70074789A9";
paths = (
{
closed = 1;
nodes = (
"171 -33 LINE",
"171 22 LINE",
"211 61 LINE",
"515 61 LINE",
"556 22 LINE",
"556 -33 LINE",
"693 -33 LINE",
"693 105 LINE",
"582 198 LINE",
"144 198 LINE",
"33 105 LINE",
"33 -33 LINE"
);
},
{
closed = 1;
nodes = (
"318 294 LINE",
"318 523 LINE",
"152 523 LINE",
"152 294 LINE"
);
},
{
closed = 1;
nodes = (
"574 294 LINE",
"574 523 LINE",
"408 523 LINE",
"408 294 LINE"
);
}
);
width = 726;
}
);
note = .notdef;
},
{
glyphname = A;
lastChange = "2019-09-03 21:22:04 +0000";
layers = (
{
hints = (
{
horizontal = 1;
place = "{242, 186}";
type = Stem;
},
{
horizontal = 1;
place = "{600, 137}";
type = Stem;
},
{
place = "{33, 783}";
type = Stem;
}
);
layerId = "59338637-1E5C-47E2-9B1C-5C70074789A9";
paths = (
{
closed = 1;
nodes = (
"396 0 LINE",
"396 242 LINE",
"453 242 LINE",
"453 0 LINE",
"816 0 LINE",
"816 644 LINE",
"702 737 LINE",
"147 737 LINE",
"33 644 LINE",
"33 0 LINE"
);
},
{
closed = 1;
nodes = (
"396 600 LINE",
"453 600 LINE",
"453 428 LINE",
"396 428 LINE"
);
}
);
width = 849;
}
);
leftKerningGroup = A;
note = A;
unicode = 0041;
},
{
glyphname = Aacute;
lastChange = "2019-09-03 21:22:04 +0000";
layers = (
{
hints = (
{
horizontal = 1;
place = "{242, 186}";
type = Stem;
},
{
horizontal = 1;
place = "{600, 137}";
type = Stem;
},
{
horizontal = 1;
place = "{783, 169}";
type = Stem;
},
{
place = "{33, 783}";
type = Stem;
}
);
layerId = "59338637-1E5C-47E2-9B1C-5C70074789A9";
paths = (
{
closed = 1;
nodes = (
"396 0 LINE",
"396 242 LINE",
"453 242 LINE",
"453 0 LINE",
"816 0 LINE",
"816 644 LINE",
"702 737 LINE",
"147 737 LINE",
"33 644 LINE",
"33 0 LINE"
);
},
{
closed = 1;
nodes = (
"396 600 LINE",
"453 600 LINE",
"453 428 LINE",
"396 428 LINE"
);
},
{
closed = 1;
nodes = (
"539 783 LINE",
"710 952 LINE",
"446 952 LINE",
"333 783 LINE"
);
}
);
width = 849;
}
);
leftKerningGroup = A;
note = Aacute;
unicode = 00C1;
},
{
glyphname = Abreve;
lastChange = "2019-09-03 21:22:04 +0000";
layers = (
{
hints = (
{
horizontal = 1;
place = "{242, 186}";
type = Stem;
},
{
horizontal = 1;
place = "{600, 137}";
type = Stem;
},
{
horizontal = 1;
place = "{783, 169}";
type = Stem;
},
{
place = "{154, 226}";
type = Stem;
},
{
place = "{470, 225}";
type = Stem;
}
);
layerId = "59338637-1E5C-47E2-9B1C-5C70074789A9";
paths = (
{
closed = 1;
nodes = (
"396 0 LINE",
"396 242 LINE",
"453 242 LINE",
"453 0 LINE",
"816 0 LINE",
"816 644 LINE",
"702 737 LINE",
"147 737 LINE",
"33 644 LINE",
"33 0 LINE"
);
},
{
closed = 1;
nodes = (
"396 600 LINE",
"453 600 LINE",
"453 428 LINE",
"396 428 LINE"
);
},
{
closed = 1;
nodes = (
"581 783 LINE",
"695 877 LINE",
"695 952 LINE",
"470 952 LINE",
"470 904 LINE",
"380 904 LINE",
"380 952 LINE",
"154 952 LINE",
"154 877 LINE",
"268 783 LINE"
);
}
);
width = 849;
}
);
leftKerningGroup = A;
note = Abreve;
unicode = 0102;
},
{
glyphname = uni1EAE;
lastChange = "2019-09-03 21:22:04 +0000";
layers = (
{
hints = (
{
horizontal = 1;
place = "{600, 137}";
type = Stem;
},
{
horizontal = 1;
place = "{783, 169}";
type = Stem;
},
{
horizontal = 1;
place = "{981, 169}";
type = Stem;
},
{
place = "{33, 783}";
type = Stem;
},
{
horizontal = 1;
place = "{242, 186}";
type = Stem;
},
{
place = "{154, 226}";
type = Stem;
},
{
place = "{470, 225}";
type = Stem;
}
);
layerId = "59338637-1E5C-47E2-9B1C-5C70074789A9";
paths = (
{
closed = 1;
nodes = (
"396 0 LINE",
"396 242 LINE",
"453 242 LINE",
"453 0 LINE",
"816 0 LINE",
"816 644 LINE",
"702 737 LINE",
"147 737 LINE",
"33 644 LINE",
"33 0 LINE"
);
},
{
closed = 1;
nodes = (
"396 600 LINE",
"453 600 LINE",
"453 428 LINE",
"396 428 LINE"
);
},
{
closed = 1;
nodes = (
"581 783 LINE",
"695 877 LINE",
"695 952 LINE",
"470 952 LINE",
"470 904 LINE",
"380 904 LINE",
"380 952 LINE",
"154 952 LINE",
"154 877 LINE",
"268 783 LINE"
);
},
{
closed = 1;
nodes = (
"529 981 LINE",
"700 1150 LINE",
"436 1150 LINE",
"323 981 LINE"
);
}
);
width = 849;
}
);
leftKerningGroup = A;
note = uni1EAE;
unicode = 1EAE;
},
{
glyphname = uni1EB6;
lastChange = "2019-09-03 21:22:04 +0000";
layers = (
{
hints = (
{
horizontal = 1;
place = "{-215, 169}";
type = Stem;
},
{
horizontal = 1;
place = "{600, 137}";
type = Stem;
},
{
horizontal = 1;
place = "{783, 169}";
type = Stem;
},
{
place = "{154, 226}";
type = Stem;
},
{
place = "{470, 225}";
type = Stem;
},
{
horizontal = 1;
place = "{242, 186}";
type = Stem;
},
{
place = "{271, 125}";
type = Stem;
},
{
place = "{453, 125}";
type = Stem;
}
);
layerId = "59338637-1E5C-47E2-9B1C-5C70074789A9";
paths = (
{
closed = 1;
nodes = (
"396 0 LINE",
"396 242 LINE",
"453 242 LINE",
"453 0 LINE",
"816 0 LINE",
"816 644 LINE",
"702 737 LINE",
"147 737 LINE",
"33 644 LINE",
"33 0 LINE"
);
},
{
closed = 1;
nodes = (
"578 -215 LINE",
"578 -46 LINE",
"271 -46 LINE",
"271 -215 LINE"
);
},
{
closed = 1;
nodes = (
"396 600 LINE",
"453 600 LINE",
"453 428 LINE",
"396 428 LINE"
);
},
{
closed = 1;
nodes = (
"581 783 LINE",
"695 877 LINE",
"695 952 LINE",
"470 952 LINE",
"470 904 LINE",
"380 904 LINE",
"380 952 LINE",
"154 952 LINE",
"154 877 LINE",
"268 783 LINE"
);
}
);
width = 849;
}
);
leftKerningGroup = A;
note = uni1EB6;
unicode = 1EB6;
},
{
glyphname = uni1EB0;
lastChange = "2019-09-03 21:22:04 +0000";
layers = (
{
hints = (
{
horizontal = 1;
place = "{600, 137}";
type = Stem;
},
{
horizontal = 1;
place = "{783, 169}";
type = Stem;
},
{
horizontal = 1;
place = "{981, 169}";
type = Stem;
},
{
place = "{33, 783}";
type = Stem;
},
{
horizontal = 1;
place = "{242, 186}";
type = Stem;
},
{
place = "{155, 225}";
type = Stem;
},
{
place = "{470, 226}";
type = Stem;
}
);
layerId = "59338637-1E5C-47E2-9B1C-5C70074789A9";
paths = (
{
closed = 1;
nodes = (
"396 0 LINE",
"396 242 LINE",
"453 242 LINE",
"453 0 LINE",
"816 0 LINE",
"816 644 LINE",
"702 737 LINE",
"147 737 LINE",
"33 644 LINE",
"33 0 LINE"
);
},
{
closed = 1;
nodes = (
"396 600 LINE",
"453 600 LINE",
"453 428 LINE",
"396 428 LINE"
);
},
{
closed = 1;
nodes = (
"582 783 LINE",
"696 877 LINE",
"696 952 LINE",
"470 952 LINE",
"470 904 LINE",
"380 904 LINE",
"380 952 LINE",
"155 952 LINE",
"155 877 LINE",
"269 783 LINE"
);
},
{
closed = 1;
nodes = (
"527 981 LINE",
"414 1150 LINE",
"150 1150 LINE",
"321 981 LINE"
);
}
);
width = 849;
}
);
leftKerningGroup = A;
note = uni1EB0;
unicode = 1EB0;
},
{
glyphname = uni1EB2;
lastChange = "2019-09-03 21:22:04 +0000";
layers = (
{
hints = (
{
horizontal = 1;
place = "{600, 137}";
type = Stem;
},
{
horizontal = 1;
place = "{783, 169}";
type = Stem;
},
{
horizontal = 1;
place = "{1107, 122}";
type = Stem;
},
{
place = "{224, 179}";
type = Stem;
},
{
place = "{442, 184}";
type = Stem;
},
{
horizontal = 1;
place = "{981, 98}";
type = Stem;
},
{
place = "{312, 68}";
type = Stem;
},
{
place = "{470, 62}";
type = Stem;
},
{
horizontal = 1;
place = "{242, 186}";
type = Stem;
}
);
layerId = "59338637-1E5C-47E2-9B1C-5C70074789A9";
paths = (
{
closed = 1;
nodes = (
"396 0 LINE",
"396 242 LINE",
"453 242 LINE",
"453 0 LINE",
"816 0 LINE",
"816 644 LINE",
"702 737 LINE",
"147 737 LINE",
"33 644 LINE",
"33 0 LINE"
);
},
{
closed = 1;
nodes = (
"396 600 LINE",
"453 600 LINE",
"453 428 LINE",
"396 428 LINE"
);
},
{
closed = 1;
nodes = (
"581 783 LINE",
"695 877 LINE",
"695 952 LINE",
"470 952 LINE",
"470 904 LINE",
"380 904 LINE",
"380 952 LINE",
"154 952 LINE",
"154 877 LINE",
"268 783 LINE"
);
},
{
closed = 1;
nodes = (
"532 981 LINE",
"532 1013 LINE",
"572 1013 LINE",
"626 1067 LINE",
"626 1174 LINE",
"561 1229 LINE",
"289 1229 LINE",
"224 1174 LINE",
"224 1107 LINE",
"403 1107 LINE",
"403 1159 LINE",
"442 1159 LINE",
"442 1079 LINE",
"358 1079 LINE",
"312 1033 LINE",
"312 981 LINE"
);
}
);
width = 849;
}
);
leftKerningGroup = A;
note = uni1EB2;
unicode = 1EB2;
},
{
glyphname = uni1EB4;
lastChange = "2019-09-03 21:22:04 +0000";
layers = (
{
hints = (
{
horizontal = 1;
place = "{242, 186}";
type = Stem;
},
{
horizontal = 1;
place = "{600, 137}";
type = Stem;
},
{
horizontal = 1;
place = "{783, 169}";
type = Stem;
},
{
horizontal = 1;
place = "{987, 168}";
type = Stem;
},
{
place = "{158, 155}";
type = Stem;
},
{
place = "{536, 156}";
type = Stem;
},
{
horizontal = 1;
place = "{981, 169}";
type = Stem;
},
{
place = "{470, 225}";
type = Stem;
},
{
place = "{154, 226}";
type = Stem;
}
);
layerId = "59338637-1E5C-47E2-9B1C-5C70074789A9";
paths = (
{
closed = 1;
nodes = (
"396 0 LINE",
"396 242 LINE",
"453 242 LINE",
"453 0 LINE",
"816 0 LINE",
"816 644 LINE",
"702 737 LINE",
"147 737 LINE",
"33 644 LINE",
"33 0 LINE"
);
},
{
closed = 1;
nodes = (
"396 600 LINE",
"453 600 LINE",
"453 428 LINE",
"396 428 LINE"
);
},
{
closed = 1;
nodes = (
"581 783 LINE",
"695 877 LINE",
"695 952 LINE",
"470 952 LINE",
"470 904 LINE",
"380 904 LINE",
"380 952 LINE",
"154 952 LINE",
"154 877 LINE",
"268 783 LINE"
);
},
{
closed = 1;
nodes = (
"599 981 LINE",
"692 1057 LINE",
"692 1150 LINE",
"536 1150 LINE",
"536 1108 LINE",
"501 1108 LINE",
"446 1155 LINE",
"250 1155 LINE",
"158 1079 LINE",
"158 987 LINE",
"313 987 LINE",
"313 1029 LINE",
"348 1029 LINE",
"403 981 LINE"
);
}
);
width = 849;
}
);
leftKerningGroup = A;
note = uni1EB4;
unicode = 1EB4;
},
{
glyphname = Acircumflex;
lastChange = "2019-09-03 21:22:04 +0000";
layers = (
{
hints = (
{
horizontal = 1;
place = "{242, 186}";
type = Stem;
},
{
horizontal = 1;
place = "{600, 137}";
type = Stem;
},
{
horizontal = 1;
place = "{783, 169}";
type = Stem;
},
{
place = "{33, 783}";
type = Stem;
}
);
layerId = "59338637-1E5C-47E2-9B1C-5C70074789A9";
paths = (
{
closed = 1;
nodes = (
"396 0 LINE",
"396 242 LINE",
"453 242 LINE",
"453 0 LINE",
"816 0 LINE",
"816 644 LINE",
"702 737 LINE",
"147 737 LINE",
"33 644 LINE",
"33 0 LINE"
);
},
{
closed = 1;
nodes = (
"396 600 LINE",
"453 600 LINE",
"453 428 LINE",
"396 428 LINE"
);
},
{
closed = 1;
nodes = (
"347 783 LINE",
"425 860 LINE",
"503 783 LINE",
"717 783 LINE",
"589 952 LINE",
"261 952 LINE",
"132 783 LINE"
);
}
);
width = 849;
}
);
leftKerningGroup = A;
note = Acircumflex;
unicode = 00C2;
},
{
glyphname = uni1EA4;
lastChange = "2019-09-03 21:22:43 +0000";
layers = (
{
hints = (
{
horizontal = 1;
place = "{600, 137}";
type = Stem;
},
{
horizontal = 1;
place = "{880, 169}";
type = Stem;
},
{
place = "{33, 1028}";
type = Stem;
},
{
horizontal = 1;
place = "{242, 186}";
type = Stem;
},
{
horizontal = 1;
place = "{783, 169}";
type = Stem;
}
);
layerId = "59338637-1E5C-47E2-9B1C-5C70074789A9";
paths = (
{
closed = 1;
nodes = (
"396 0 LINE",
"396 242 LINE",
"453 242 LINE",
"453 0 LINE",
"816 0 LINE",
"816 644 LINE",
"702 737 LINE",
"147 737 LINE",
"33 644 LINE",
"33 0 LINE"
);
},
{
closed = 1;
nodes = (
"396 600 LINE",
"453 600 LINE",
"453 428 LINE",
"396 428 LINE"
);
},
{
closed = 1;
nodes = (
"347 783 LINE",
"425 860 LINE",
"503 783 LINE",
"718 783 LINE",
"589 952 LINE",
"261 952 LINE",
"133 783 LINE"
);
},
{
closed = 1;
nodes = (
"890 880 LINE",
"1061 1049 LINE",
"797 1049 LINE",
"684 880 LINE"
);
}
);
width = 849;
}
);
leftKerningGroup = A;
note = uni1EA4;
unicode = 1EA4;
},
{
glyphname = uni1EAC;
lastChange = "2019-09-03 21:22:04 +0000";
layers = (
{
hints = (
{
horizontal = 1;
place = "{-215, 169}";
type = Stem;
},
{
horizontal = 1;
place = "{242, 186}";
type = Stem;
},
{
horizontal = 1;
place = "{600, 137}";
type = Stem;
},
{
horizontal = 1;
place = "{783, 169}";
type = Stem;
},
{
place = "{271, 125}";
type = Stem;
},
{
place = "{453, 125}";
type = Stem;
}
);
layerId = "59338637-1E5C-47E2-9B1C-5C70074789A9";
paths = (
{
closed = 1;
nodes = (
"396 0 LINE",
"396 242 LINE",
"453 242 LINE",
"453 0 LINE",
"816 0 LINE",
"816 644 LINE",
"702 737 LINE",
"147 737 LINE",
"33 644 LINE",
"33 0 LINE"
);
},
{
closed = 1;
nodes = (
"578 -215 LINE",
"578 -46 LINE",
"271 -46 LINE",
"271 -215 LINE"
);
},
{
closed = 1;
nodes = (
"396 600 LINE",
"453 600 LINE",
"453 428 LINE",
"396 428 LINE"
);
},
{
closed = 1;
nodes = (
"347 783 LINE",
"425 860 LINE",
"503 783 LINE",
"717 783 LINE",
"589 952 LINE",
"261 952 LINE",
"132 783 LINE"
);
}
);
width = 849;
}
);
leftKerningGroup = A;
note = uni1EAC;
unicode = 1EAC;
},
{
glyphname = uni1EA6;
lastChange = "2019-09-03 21:22:04 +0000";
layers = (
{
hints = (
{
horizontal = 1;
place = "{600, 137}";
type = Stem;
},
{
horizontal = 1;
place = "{880, 169}";
type = Stem;
},
{
place = "{-211, 1027}";
type = Stem;
},
{
horizontal = 1;
place = "{242, 186}";
type = Stem;
},
{
horizontal = 1;
place = "{783, 169}";
type = Stem;
}
);
layerId = "59338637-1E5C-47E2-9B1C-5C70074789A9";
paths = (
{
closed = 1;
nodes = (
"396 0 LINE",
"396 242 LINE",
"453 242 LINE",
"453 0 LINE",
"816 0 LINE",
"816 644 LINE",
"702 737 LINE",
"147 737 LINE",
"33 644 LINE",
"33 0 LINE"
);
},
{
closed = 1;
nodes = (
"396 600 LINE",
"453 600 LINE",
"453 428 LINE",
"396 428 LINE"
);
},
{
closed = 1;
nodes = (
"166 880 LINE",
"53 1049 LINE",
"-211 1049 LINE",
"-40 880 LINE"
);
},
{
closed = 1;
nodes = (
"347 783 LINE",
"425 860 LINE",
"503 783 LINE",
"717 783 LINE",
"589 952 LINE",
"261 952 LINE",
"132 783 LINE"
);
}
);
width = 849;
}
);
leftKerningGroup = A;
note = uni1EA6;
unicode = 1EA6;
},
{
glyphname = uni1EA8;
lastChange = "2019-09-03 21:22:57 +0000";
layers = (
{
hints = (
{
horizontal = 1;
place = "{600, 137}";
type = Stem;
},
{
horizontal = 1;
place = "{783, 169}";
type = Stem;
},
{
horizontal = 1;
place = "{1006, 122}";
type = Stem;
},
{
place = "{584, 179}";
type = Stem;
},
{
place = "{802, 184}";
type = Stem;
},
{
horizontal = 1;
place = "{880, 98}";
type = Stem;
},
{
horizontal = 1;
place = "{242, 186}";
type = Stem;
}
);
layerId = "59338637-1E5C-47E2-9B1C-5C70074789A9";
paths = (
{
closed = 1;
nodes = (
"396 0 LINE",
"396 242 LINE",
"453 242 LINE",
"453 0 LINE",
"816 0 LINE",
"816 644 LINE",
"702 737 LINE",
"147 737 LINE",
"33 644 LINE",
"33 0 LINE"
);
},
{
closed = 1;
nodes = (
"396 600 LINE",
"453 600 LINE",
"453 428 LINE",
"396 428 LINE"
);
},
{
closed = 1;
nodes = (
"347 783 LINE",
"425 860 LINE",
"503 783 LINE",
"717 783 LINE",
"589 952 LINE",
"261 952 LINE",
"132 783 LINE"
);
},
{
closed = 1;
nodes = (
"892 880 LINE",
"892 912 LINE",
"932 912 LINE",
"986 966 LINE",
"986 1073 LINE",
"921 1128 LINE",
"649 1128 LINE",
"584 1073 LINE",
"584 1006 LINE",
"763 1006 LINE",
"763 1058 LINE",
"802 1058 LINE",
"802 978 LINE",
"718 978 LINE",
"672 932 LINE",
"672 880 LINE"
);
}
);
width = 849;
}
);
leftKerningGroup = A;
note = uni1EA8;
unicode = 1EA8;
},
{
glyphname = uni1EAA;
lastChange = "2019-09-03 21:22:04 +0000";
layers = (
{
hints = (
{
horizontal = 1;
place = "{242, 186}";
type = Stem;
},
{
horizontal = 1;
place = "{600, 137}";
type = Stem;
},
{
horizontal = 1;
place = "{783, 169}";
type = Stem;
},
{
horizontal = 1;
place = "{987, 168}";
type = Stem;
},
{
place = "{159, 155}";
type = Stem;
},
{
place = "{537, 156}";
type = Stem;
},
{
horizontal = 1;
place = "{981, 169}";
type = Stem;
}
);
layerId = "59338637-1E5C-47E2-9B1C-5C70074789A9";
paths = (
{
closed = 1;
nodes = (
"396 0 LINE",
"396 242 LINE",
"453 242 LINE",
"453 0 LINE",
"816 0 LINE",
"816 644 LINE",
"702 737 LINE",
"147 737 LINE",
"33 644 LINE",
"33 0 LINE"
);
},
{
closed = 1;
nodes = (
"396 600 LINE",
"453 600 LINE",
"453 428 LINE",
"396 428 LINE"
);
},
{
closed = 1;
nodes = (
"347 783 LINE",
"425 860 LINE",
"503 783 LINE",
"717 783 LINE",
"589 952 LINE",
"261 952 LINE",
"132 783 LINE"
);
},
{
closed = 1;
nodes = (
"600 981 LINE",
"693 1057 LINE",
"693 1150 LINE",
"537 1150 LINE",
"537 1108 LINE",
"502 1108 LINE",
"447 1155 LINE",
"251 1155 LINE",
"159 1079 LINE",
"159 987 LINE",
"314 987 LINE",
"314 1029 LINE",
"349 1029 LINE",
"404 981 LINE"
);
}
);
width = 849;
}
);
leftKerningGroup = A;
note = uni1EAA;
unicode = 1EAA;
},
{
glyphname = uni0200;
lastChange = "2019-09-03 21:22:04 +0000";
layers = (
{
hints = (
{
horizontal = 1;
place = "{242, 186}";
type = Stem;
},
{
horizontal = 1;
place = "{600, 137}";
type = Stem;
},
{
horizontal = 1;
place = "{783, 169}";
type = Stem;
},
{
place = "{11, 805}";
type = Stem;
}
);
layerId = "59338637-1E5C-47E2-9B1C-5C70074789A9";
paths = (
{
closed = 1;
nodes = (
"396 0 LINE",
"396 242 LINE",
"453 242 LINE",
"453 0 LINE",
"816 0 LINE",
"816 644 LINE",
"702 737 LINE",
"147 737 LINE",
"33 644 LINE",
"33 0 LINE"
);
},
{
closed = 1;
nodes = (
"396 600 LINE",
"453 600 LINE",
"453 428 LINE",
"396 428 LINE"
);
},
{
closed = 1;
nodes = (
"377 783 LINE",
"264 952 LINE",
"11 952 LINE",
"183 783 LINE"
);
},
{
closed = 1;
nodes = (
"666 783 LINE",
"552 952 LINE",
"299 952 LINE",
"471 783 LINE"
);
}
);
width = 849;
}
);
leftKerningGroup = A;
note = uni0200;
unicode = 0200;
},
{
glyphname = Adieresis;
lastChange = "2019-09-03 21:22:04 +0000";
layers = (
{
hints = (
{
horizontal = 1;
place = "{242, 186}";
type = Stem;
},
{
horizontal = 1;
place = "{600, 137}";
type = Stem;
},
{
horizontal = 1;
place = "{783, 169}";
type = Stem;
},
{
place = "{129, 274}";
type = Stem;
},
{
place = "{449, 274}";
type = Stem;
}
);
layerId = "59338637-1E5C-47E2-9B1C-5C70074789A9";
paths = (
{
closed = 1;
nodes = (
"396 0 LINE",
"396 242 LINE",
"453 242 LINE",
"453 0 LINE",
"816 0 LINE",
"816 644 LINE",
"702 737 LINE",
"147 737 LINE",
"33 644 LINE",
"33 0 LINE"
);
},
{
closed = 1;
nodes = (
"396 600 LINE",
"453 600 LINE",
"453 428 LINE",
"396 428 LINE"
);
},
{
closed = 1;
nodes = (
"403 783 LINE",
"403 952 LINE",
"129 952 LINE",
"129 783 LINE"
);
},
{
closed = 1;
nodes = (
"723 783 LINE",
"723 952 LINE",
"449 952 LINE",
"449 783 LINE"
);
}
);
width = 849;
}
);
leftKerningGroup = A;
note = Adieresis;
unicode = 00C4;
},
{
glyphname = uni1EA0;
lastChange = "2019-09-03 21:22:04 +0000";
layers = (
{
hints = (
{
horizontal = 1;
place = "{-215, 169}";
type = Stem;
},
{
horizontal = 1;
place = "{242, 186}";
type = Stem;
},
{
horizontal = 1;
place = "{600, 137}";
type = Stem;
},
{
place = "{271, 125}";
type = Stem;
},
{
place = "{453, 125}";
type = Stem;
}
);
layerId = "59338637-1E5C-47E2-9B1C-5C70074789A9";
paths = (
{
closed = 1;
nodes = (
"396 0 LINE",
"396 242 LINE",
"453 242 LINE",
"453 0 LINE",
"816 0 LINE",
"816 644 LINE",
"702 737 LINE",
"147 737 LINE",
"33 644 LINE",
"33 0 LINE"
);
},
{
closed = 1;
nodes = (
"578 -215 LINE",
"578 -46 LINE",
"271 -46 LINE",
"271 -215 LINE"
);
},
{
closed = 1;
nodes = (
"396 600 LINE",
"453 600 LINE",
"453 428 LINE",
"396 428 LINE"
);
}
);
width = 849;
}
);
leftKerningGroup = A;
note = uni1EA0;
unicode = 1EA0;
},
{
glyphname = Agrave;
lastChange = "2019-09-03 21:22:04 +0000";
layers = (
{
hints = (
{
horizontal = 1;
place = "{242, 186}";
type = Stem;
},
{
horizontal = 1;
place = "{600, 137}";
type = Stem;
},
{
horizontal = 1;
place = "{783, 169}";
type = Stem;
},
{
place = "{33, 783}";
type = Stem;
}
);
layerId = "59338637-1E5C-47E2-9B1C-5C70074789A9";
paths = (
{
closed = 1;
nodes = (
"396 0 LINE",
"396 242 LINE",
"453 242 LINE",
"453 0 LINE",
"816 0 LINE",
"816 644 LINE",
"702 737 LINE",
"147 737 LINE",
"33 644 LINE",
"33 0 LINE"
);
},
{
closed = 1;
nodes = (
"396 600 LINE",
"453 600 LINE",
"453 428 LINE",
"396 428 LINE"
);
},
{
closed = 1;
nodes = (
"527 783 LINE",
"414 952 LINE",
"150 952 LINE",
"321 783 LINE"
);
}
);
width = 849;
}
);
leftKerningGroup = A;
note = Agrave;
unicode = 00C0;
},
{
glyphname = uni1EA2;
lastChange = "2019-09-03 21:22:04 +0000";
layers = (
{
hints = (
{
horizontal = 1;
place = "{600, 137}";
type = Stem;
},
{
horizontal = 1;
place = "{908, 122}";
type = Stem;
},
{
place = "{227, 179}";
type = Stem;
},
{
place = "{445, 184}";
type = Stem;
},
{
horizontal = 1;
place = "{782, 98}";
type = Stem;
},
{
horizontal = 1;
place = "{242, 186}";
type = Stem;
}
);
layerId = "59338637-1E5C-47E2-9B1C-5C70074789A9";
paths = (
{
closed = 1;
nodes = (
"396 0 LINE",
"396 242 LINE",
"453 242 LINE",
"453 0 LINE",
"816 0 LINE",
"816 644 LINE",
"702 737 LINE",
"147 737 LINE",
"33 644 LINE",
"33 0 LINE"
);
},
{
closed = 1;
nodes = (
"396 600 LINE",
"453 600 LINE",
"453 428 LINE",
"396 428 LINE"
);
},
{
closed = 1;
nodes = (
"535 782 LINE",
"535 814 LINE",
"575 814 LINE",
"629 868 LINE",
"629 975 LINE",
"564 1030 LINE",
"292 1030 LINE",
"227 975 LINE",
"227 908 LINE",
"406 908 LINE",
"406 960 LINE",
"445 960 LINE",
"445 880 LINE",
"361 880 LINE",
"315 834 LINE",
"315 782 LINE"
);
}
);
width = 849;
}
);
leftKerningGroup = A;
note = uni1EA2;
unicode = 1EA2;
},
{
glyphname = uni0202;
lastChange = "2019-09-03 21:22:04 +0000";
layers = (
{
hints = (
{
horizontal = 1;
place = "{242, 186}";
type = Stem;
},
{
horizontal = 1;
place = "{600, 137}";
type = Stem;
},
{
horizontal = 1;
place = "{783, 169}";
type = Stem;
},
{
place = "{188, 174}";
type = Stem;
},
{
place = "{487, 174}";
type = Stem;
}
);
layerId = "59338637-1E5C-47E2-9B1C-5C70074789A9";
paths = (
{
closed = 1;
nodes = (
"396 0 LINE",
"396 242 LINE",
"453 242 LINE",
"453 0 LINE",
"816 0 LINE",
"816 644 LINE",
"702 737 LINE",
"147 737 LINE",
"33 644 LINE",
"33 0 LINE"
);
},
{
closed = 1;
nodes = (
"396 600 LINE",
"453 600 LINE",
"453 428 LINE",
"396 428 LINE"
);
},
{
closed = 1;
nodes = (
"362 783 LINE",
"362 825 LINE",
"487 825 LINE",
"487 783 LINE",
"661 783 LINE",
"661 865 LINE",
"565 952 LINE",
"283 952 LINE",
"188 865 LINE",
"188 783 LINE"
);
}
);
width = 849;
}
);
leftKerningGroup = A;
note = uni0202;
unicode = 0202;
},
{
glyphname = Amacron;
lastChange = "2019-09-03 21:22:04 +0000";
layers = (
{
hints = (
{
horizontal = 1;
place = "{242, 186}";
type = Stem;
},
{
horizontal = 1;
place = "{600, 137}";
type = Stem;
},
{
horizontal = 1;
place = "{783, 169}";
type = Stem;
},
{
place = "{33, 783}";
type = Stem;
}
);
layerId = "59338637-1E5C-47E2-9B1C-5C70074789A9";
paths = (
{
closed = 1;
nodes = (
"396 0 LINE",
"396 242 LINE",
"453 242 LINE",
"453 0 LINE",
"816 0 LINE",
"816 644 LINE",
"702 737 LINE",
"147 737 LINE",
"33 644 LINE",
"33 0 LINE"
);
},
{
closed = 1;
nodes = (
"396 600 LINE",
"453 600 LINE",
"453 428 LINE",
"396 428 LINE"
);
},
{
closed = 1;
nodes = (
"722 783 LINE",
"722 952 LINE",
"128 952 LINE",
"128 783 LINE"
);
}
);
width = 849;
}
);
leftKerningGroup = A;
note = Amacron;
unicode = 0100;
},
{
glyphname = Aogonek;
lastChange = "2019-09-03 21:22:04 +0000";
layers = (
{
hints = (
{
horizontal = 1;
place = "{-198, 143}";
type = Stem;
},
{
horizontal = 1;
place = "{242, 186}";
type = Stem;
},
{
horizontal = 1;
place = "{600, 137}";
type = Stem;
},
{
place = "{453, 142}";
type = Stem;
}
);
layerId = "59338637-1E5C-47E2-9B1C-5C70074789A9";
paths = (
{
closed = 1;
nodes = (
"595 -198 LINE",
"595 -55 LINE",
"574 -55 LINE",
"561 -44 LINE",
"561 -23 LINE",
"590 0 LINE",
"816 0 LINE",
"816 644 LINE",
"702 737 LINE",
"147 737 LINE",
"33 644 LINE",
"33 0 LINE",
"396 0 LINE",
"396 242 LINE",
"453 242 LINE",
"453 0 LINE",
"407 -33 LINE",
"407 -127 LINE",
"495 -198 LINE"
);
},
{
closed = 1;
nodes = (
"396 600 LINE",
"453 600 LINE",
"453 428 LINE",
"396 428 LINE"
);
}
);
width = 849;
}
);
leftKerningGroup = A;
note = Aogonek;
unicode = 0104;
},
{
glyphname = Aring;
lastChange = "2019-09-03 21:22:04 +0000";
layers = (
{
hints = (
{
horizontal = 1;
place = "{242, 186}";
type = Stem;
},
{
horizontal = 1;
place = "{600, 137}";
type = Stem;
},
{
horizontal = 1;
place = "{783, 107}";
type = Stem;
},
{
horizontal = 1;
place = "{925, 107}";
type = Stem;
},
{
place = "{281, 127}";
type = Stem;
},
{
place = "{443, 126}";
type = Stem;
}
);
layerId = "59338637-1E5C-47E2-9B1C-5C70074789A9";
paths = (
{
closed = 1;
nodes = (
"396 0 LINE",
"396 242 LINE",
"453 242 LINE",
"453 0 LINE",
"816 0 LINE",
"816 644 LINE",
"702 737 LINE",
"147 737 LINE",
"33 644 LINE",
"33 0 LINE"
);
},
{
closed = 1;
nodes = (
"396 600 LINE",
"453 600 LINE",
"453 428 LINE",
"396 428 LINE"
);
},
{
closed = 1;
nodes = (
"490 783 LINE",
"569 862 LINE",
"569 953 LINE",
"490 1032 LINE",
"360 1032 LINE",
"281 953 LINE",
"281 862 LINE",
"360 783 LINE"
);
},
{
closed = 1;
nodes = (
"408 901 LINE",
"408 914 LINE",
"419 925 LINE",
"432 925 LINE",
"443 914 LINE",
"443 901 LINE",
"432 890 LINE",
"419 890 LINE"
);
}
);
width = 849;
}
);
leftKerningGroup = A;
note = Aring;
unicode = 00C5;
},
{
glyphname = Aringacute;
lastChange = "2019-09-03 21:22:04 +0000";
layers = (
{
hints = (
{
horizontal = 1;
place = "{242, 186}";
type = Stem;
},
{
horizontal = 1;
place = "{600, 137}";
type = Stem;
},
{
horizontal = 1;
place = "{783, 107}";
type = Stem;
},
{
horizontal = 1;
place = "{925, 107}";
type = Stem;
},
{
horizontal = 1;
place = "{1064, 169}";
type = Stem;
},
{
place = "{281, 127}";
type = Stem;
},
{
place = "{443, 126}";
type = Stem;
}
);
layerId = "59338637-1E5C-47E2-9B1C-5C70074789A9";
paths = (
{
closed = 1;
nodes = (
"396 0 LINE",
"396 242 LINE",
"453 242 LINE",
"453 0 LINE",
"816 0 LINE",
"816 644 LINE",
"702 737 LINE",
"147 737 LINE",
"33 644 LINE",
"33 0 LINE"
);
},
{
closed = 1;
nodes = (
"396 600 LINE",
"453 600 LINE",
"453 428 LINE",
"396 428 LINE"
);
},
{
closed = 1;
nodes = (
"490 783 LINE",
"569 862 LINE",
"569 953 LINE",
"490 1032 LINE",
"360 1032 LINE",
"281 953 LINE",
"281 862 LINE",
"360 783 LINE"
);
},
{
closed = 1;
nodes = (
"408 901 LINE",
"408 914 LINE",
"419 925 LINE",
"432 925 LINE",
"443 914 LINE",
"443 901 LINE",
"432 890 LINE",
"419 890 LINE"
);
},
{
closed = 1;
nodes = (
"529 1064 LINE",
"700 1233 LINE",
"436 1233 LINE",
"323 1064 LINE"
);
}
);
width = 849;
}
);
leftKerningGroup = A;
note = Aringacute;
unicode = 01FA;
},
{
glyphname = Atilde;
lastChange = "2019-09-03 21:22:04 +0000";
layers = (
{
hints = (
{
horizontal = 1;
place = "{242, 186}";
type = Stem;
},
{
horizontal = 1;
place = "{600, 137}";
type = Stem;
},
{
horizontal = 1;
place = "{789, 168}";
type = Stem;
},
{
place = "{158, 155}";
type = Stem;
},
{
place = "{536, 156}";
type = Stem;
},
{
horizontal = 1;
place = "{783, 169}";
type = Stem;
}
);
layerId = "59338637-1E5C-47E2-9B1C-5C70074789A9";
paths = (
{
closed = 1;
nodes = (
"396 0 LINE",
"396 242 LINE",
"453 242 LINE",
"453 0 LINE",
"816 0 LINE",
"816 644 LINE",
"702 737 LINE",
"147 737 LINE",
"33 644 LINE",
"33 0 LINE"
);
},
{
closed = 1;
nodes = (
"396 600 LINE",
"453 600 LINE",
"453 428 LINE",
"396 428 LINE"
);
},
{
closed = 1;
nodes = (
"599 783 LINE",
"692 859 LINE",
"692 952 LINE",
"536 952 LINE",
"536 910 LINE",
"501 910 LINE",
"446 957 LINE",
"250 957 LINE",
"158 881 LINE",
"158 789 LINE",
"313 789 LINE",
"313 831 LINE",
"348 831 LINE",
"403 783 LINE"
);
}
);
width = 849;
}
);
leftKerningGroup = A;
note = Atilde;
unicode = 00C3;
},
{
glyphname = AE;
lastChange = "2019-09-03 21:22:04 +0000";
layers = (
{
hints = (
{
horizontal = 1;
place = "{0, 237}";
type = Stem;
},
{
horizontal = 1;
place = "{294, 149}";
type = Stem;
},
{
horizontal = 1;
place = "{600, 137}";
type = Stem;
},
{
place = "{33, 1114}";
type = Stem;
},
{
horizontal = 1;
place = "{242, 186}";
type = Stem;
}
);
layerId = "59338637-1E5C-47E2-9B1C-5C70074789A9";
paths = (
{
closed = 1;
nodes = (
"396 0 LINE",
"396 242 LINE",
"453 242 LINE",
"453 0 LINE",
"1147 0 LINE",
"1147 237 LINE",
"816 237 LINE",
"816 294 LINE",
"1101 294 LINE",
"1101 443 LINE",
"816 443 LINE",
"816 501 LINE",
"1147 501 LINE",
"1147 737 LINE",
"147 737 LINE",
"33 644 LINE",
"33 0 LINE"
);
},
{
closed = 1;
nodes = (
"396 600 LINE",
"453 600 LINE",
"453 428 LINE",
"396 428 LINE"
);
}
);
width = 1180;
}
);
leftKerningGroup = A;
note = AE;
unicode = 00C6;
},
{
glyphname = AEacute;
lastChange = "2019-09-03 21:22:04 +0000";
layers = (
{
hints = (
{
horizontal = 1;
place = "{0, 237}";
type = Stem;
},
{
horizontal = 1;
place = "{294, 149}";
type = Stem;
},
{
horizontal = 1;
place = "{600, 137}";
type = Stem;
},
{
horizontal = 1;
place = "{783, 169}";
type = Stem;
},
{
place = "{33, 1114}";
type = Stem;
},
{
horizontal = 1;
place = "{242, 186}";
type = Stem;
}
);
layerId = "59338637-1E5C-47E2-9B1C-5C70074789A9";
paths = (
{
closed = 1;
nodes = (
"396 0 LINE",
"396 242 LINE",
"453 242 LINE",
"453 0 LINE",
"1147 0 LINE",
"1147 237 LINE",
"816 237 LINE",
"816 294 LINE",
"1101 294 LINE",
"1101 443 LINE",
"816 443 LINE",
"816 501 LINE",
"1147 501 LINE",
"1147 737 LINE",
"147 737 LINE",
"33 644 LINE",
"33 0 LINE"
);
},
{
closed = 1;
nodes = (
"396 600 LINE",
"453 600 LINE",
"453 428 LINE",
"396 428 LINE"
);
},
{
closed = 1;
nodes = (
"500 783 LINE",
"671 952 LINE",
"407 952 LINE",
"294 783 LINE"
);
}
);
width = 1180;
}
);
note = AEacute;
unicode = 01FC;
},
{
glyphname = B;
lastChange = "2019-09-03 21:22:04 +0000";
layers = (
{
hints = (
{
horizontal = 1;
place = "{0, 138}";
type = Stem;
},
{
horizontal = 1;
place = "{329, 118}";
type = Stem;
},
{
horizontal = 1;
place = "{600, 137}";
type = Stem;
},
{
place = "{33, 761}";
type = Stem;
},
{
place = "{453, 320}";
type = Stem;
}
);
layerId = "59338637-1E5C-47E2-9B1C-5C70074789A9";
paths = (
{
closed = 1;
nodes = (
"680 0 LINE",
"794 94 LINE",
"794 334 LINE",
"715 396 LINE",
"773 442 LINE",
"773 644 LINE",
"659 737 LINE",
"33 737 LINE",
"33 0 LINE"
);
},
{
closed = 1;
nodes = (
"396 329 LINE",
"453 329 LINE",
"453 138 LINE",
"396 138 LINE"
);
},
{
closed = 1;
nodes = (
"396 600 LINE",
"453 600 LINE",
"453 447 LINE",
"396 447 LINE"
);
}
);
width = 827;
}
);
note = B;
rightKerningGroup = B;
unicode = 0042;
},
{
glyphname = C;
lastChange = "2019-09-03 21:22:04 +0000";
layers = (
{
hints = (
{
horizontal = 1;
place = "{0, 138}";
type = Stem;
},
{
horizontal = 1;
place = "{600, 137}";
type = Stem;
},
{
place = "{33, 783}";
type = Stem;
}
);
layerId = "59338637-1E5C-47E2-9B1C-5C70074789A9";
paths = (
{
closed = 1;
nodes = (
"702 0 LINE",
"816 94 LINE",
"816 338 LINE",
"453 338 LINE",
"453 138 LINE",
"396 138 LINE",
"396 600 LINE",
"453 600 LINE",
"453 404 LINE",
"816 404 LINE",
"816 644 LINE",
"702 737 LINE",
"147 737 LINE",
"33 644 LINE",
"33 94 LINE",
"147 0 LINE"
);
}
);
width = 849;
}
);
note = C;
unicode = 0043;
},
{
glyphname = Cacute;
lastChange = "2019-09-03 21:22:04 +0000";
layers = (
{
hints = (
{
horizontal = 1;
place = "{0, 138}";
type = Stem;
},
{
horizontal = 1;
place = "{600, 137}";
type = Stem;
},
{
horizontal = 1;
place = "{783, 169}";
type = Stem;
},
{
place = "{33, 783}";
type = Stem;
}
);
layerId = "59338637-1E5C-47E2-9B1C-5C70074789A9";
paths = (
{
closed = 1;
nodes = (
"702 0 LINE",
"816 94 LINE",
"816 338 LINE",
"453 338 LINE",
"453 138 LINE",
"396 138 LINE",
"396 600 LINE",
"453 600 LINE",
"453 404 LINE",
"816 404 LINE",
"816 644 LINE",
"702 737 LINE",
"147 737 LINE",
"33 644 LINE",
"33 94 LINE",
"147 0 LINE"
);
},
{
closed = 1;
nodes = (
"539 783 LINE",
"710 952 LINE",
"446 952 LINE",
"333 783 LINE"
);
}
);
width = 849;
}
);
note = Cacute;
unicode = 0106;
},
{
glyphname = Ccaron;
lastChange = "2019-09-03 21:22:04 +0000";
layers = (
{
hints = (
{
horizontal = 1;
place = "{0, 138}";
type = Stem;
},
{
horizontal = 1;
place = "{600, 137}";
type = Stem;
},
{
horizontal = 1;
place = "{783, 169}";
type = Stem;
},
{
place = "{33, 783}";
type = Stem;
}
);
layerId = "59338637-1E5C-47E2-9B1C-5C70074789A9";
paths = (
{
closed = 1;
nodes = (
"702 0 LINE",
"816 94 LINE",
"816 338 LINE",
"453 338 LINE",
"453 138 LINE",
"396 138 LINE",
"396 600 LINE",
"453 600 LINE",
"453 404 LINE",
"816 404 LINE",
"816 644 LINE",
"702 737 LINE",
"147 737 LINE",
"33 644 LINE",
"33 94 LINE",
"147 0 LINE"
);
},
{
closed = 1;
nodes = (
"588 783 LINE",
"717 952 LINE",
"502 952 LINE",
"424 875 LINE",
"346 952 LINE",
"132 952 LINE",
"260 783 LINE"
);
}
);
width = 849;
}
);
note = Ccaron;
unicode = 010C;
},
{
glyphname = Ccedilla;
lastChange = "2019-09-03 21:22:04 +0000";
layers = (
{
hints = (
{
horizontal = 1;
place = "{0, 138}";
type = Stem;
},
{
horizontal = 1;
place = "{600, 137}";
type = Stem;
},
{
place = "{33, 783}";
type = Stem;
}
);
layerId = "59338637-1E5C-47E2-9B1C-5C70074789A9";
paths = (
{
closed = 1;
nodes = (
"473 -125 LINE",
"544 0 LINE",
"702 0 LINE",
"816 94 LINE",
"816 338 LINE",
"453 338 LINE",
"453 138 LINE",
"396 138 LINE",
"396 600 LINE",
"453 600 LINE",
"453 404 LINE",
"816 404 LINE",
"816 644 LINE",
"702 737 LINE",
"147 737 LINE",
"33 644 LINE",
"33 94 LINE",
"147 0 LINE",
"306 0 LINE",
"285 -125 LINE"
);
}
);
width = 849;
}
);
note = Ccedilla;
unicode = 00C7;
},
{
glyphname = Ccircumflex;
lastChange = "2019-09-03 21:22:04 +0000";
layers = (
{
hints = (
{
horizontal = 1;
place = "{0, 138}";
type = Stem;
},
{
horizontal = 1;
place = "{600, 137}";
type = Stem;
},
{
horizontal = 1;
place = "{783, 169}";
type = Stem;
},
{
place = "{33, 783}";
type = Stem;
}
);
layerId = "59338637-1E5C-47E2-9B1C-5C70074789A9";
paths = (
{
closed = 1;
nodes = (
"702 0 LINE",
"816 94 LINE",
"816 338 LINE",
"453 338 LINE",
"453 138 LINE",
"396 138 LINE",
"396 600 LINE",
"453 600 LINE",
"453 404 LINE",
"816 404 LINE",
"816 644 LINE",
"702 737 LINE",
"147 737 LINE",
"33 644 LINE",
"33 94 LINE",
"147 0 LINE"
);
},
{
closed = 1;
nodes = (
"347 783 LINE",
"425 860 LINE",
"503 783 LINE",
"717 783 LINE",
"589 952 LINE",
"261 952 LINE",
"132 783 LINE"
);
}
);
width = 849;
}
);
note = Ccircumflex;
unicode = 0108;
},
{
glyphname = Cdotaccent;
lastChange = "2019-09-03 21:22:04 +0000";
layers = (
{
hints = (
{
horizontal = 1;
place = "{0, 138}";
type = Stem;
},
{
horizontal = 1;
place = "{600, 137}";
type = Stem;
},
{
horizontal = 1;
place = "{783, 168}";
type = Stem;
},
{
place = "{271, 125}";
type = Stem;
},
{
place = "{453, 125}";
type = Stem;
}
);
layerId = "59338637-1E5C-47E2-9B1C-5C70074789A9";
paths = (
{
closed = 1;
nodes = (
"702 0 LINE",
"816 94 LINE",
"816 338 LINE",
"453 338 LINE",
"453 138 LINE",
"396 138 LINE",
"396 600 LINE",
"453 600 LINE",
"453 404 LINE",
"816 404 LINE",
"816 644 LINE",
"702 737 LINE",
"147 737 LINE",
"33 644 LINE",
"33 94 LINE",
"147 0 LINE"
);
},
{
closed = 1;
nodes = (
"578 783 LINE",
"578 951 LINE",
"271 951 LINE",
"271 783 LINE"
);
}
);
width = 849;
}
);
note = Cdotaccent;
unicode = 010A;
},
{
glyphname = D;
lastChange = "2019-09-03 21:22:04 +0000";
layers = (
{
hints = (
{
horizontal = 1;
place = "{0, 138}";
type = Stem;
},
{
horizontal = 1;
place = "{601, 137}";
type = Stem;
},
{
place = "{33, 783}";
type = Stem;
}
);
layerId = "59338637-1E5C-47E2-9B1C-5C70074789A9";
paths = (
{
closed = 1;
nodes = (
"647 0 LINE",
"816 149 LINE",
"816 590 LINE",
"647 738 LINE",
"33 738 LINE",
"33 0 LINE"
);
},
{
closed = 1;
nodes = (
"396 601 LINE",
"453 601 LINE",
"453 138 LINE",
"396 138 LINE"
);
}
);
width = 849;
}
);
note = D;
unicode = 0044;
},
{
glyphname = uni01C4;
lastChange = "2019-09-03 21:22:04 +0000";
layers = (
{
hints = (
{
horizontal = 1;
place = "{0, 138}";
type = Stem;
},
{
horizontal = 1;
place = "{601, 137}";
type = Stem;
},
{
horizontal = 1;
place = "{783, 169}";
type = Stem;
},
{
place = "{33, 1554}";
type = Stem;
},
{
horizontal = 1;
place = "{0, 237}";
type = Stem;
},
{
horizontal = 1;
place = "{501, 236}";
type = Stem;
}
);
layerId = "59338637-1E5C-47E2-9B1C-5C70074789A9";
paths = (
{
closed = 1;
nodes = (
"647 0 LINE",
"816 149 LINE",
"816 590 LINE",
"647 738 LINE",
"33 738 LINE",
"33 0 LINE"
);
},
{
closed = 1;
nodes = (
"396 601 LINE",
"453 601 LINE",
"453 138 LINE",
"396 138 LINE"
);
},
{
closed = 1;
nodes = (
"1587 0 LINE",
"1587 237 LINE",
"1314 237 LINE",
"1587 501 LINE",
"1587 737 LINE",
"883 737 LINE",
"883 501 LINE",
"1144 501 LINE",
"871 237 LINE",
"871 0 LINE"
);
},
{
closed = 1;
nodes = (
"1393 783 LINE",
"1522 952 LINE",
"1307 952 LINE",
"1229 875 LINE",
"1151 952 LINE",
"937 952 LINE",
"1065 783 LINE"
);
}
);
width = 1609;
}
);
note = uni01C4;
unicode = 01C4;
},
{
glyphname = Eth;
lastChange = "2019-09-03 21:22:04 +0000";
layers = (
{
hints = (
{
horizontal = 1;
place = "{0, 138}";
type = Stem;
},
{
horizontal = 1;
place = "{300, 149}";
type = Stem;
},
{
horizontal = 1;
place = "{601, 137}";
type = Stem;
},
{
place = "{-15, 831}";
type = Stem;
}
);
layerId = "59338637-1E5C-47E2-9B1C-5C70074789A9";
paths = (
{
closed = 1;
nodes = (
"647 0 LINE",
"816 149 LINE",
"816 590 LINE",
"647 738 LINE",
"33 738 LINE",
"33 449 LINE",
"-15 449 LINE",
"-15 300 LINE",
"33 300 LINE",
"33 0 LINE"
);
},
{
closed = 1;
nodes = (
"396 300 LINE",
"436 300 LINE",
"436 449 LINE",
"396 449 LINE",
"396 601 LINE",
"453 601 LINE",
"453 138 LINE",
"396 138 LINE"
);
}
);
width = 849;
}
);
note = Eth;
unicode = 00D0;
},
{
glyphname = Dcaron;
lastChange = "2019-09-03 21:22:04 +0000";
layers = (
{
hints = (
{
horizontal = 1;
place = "{0, 138}";
type = Stem;
},
{
horizontal = 1;
place = "{601, 137}";
type = Stem;
},
{
horizontal = 1;
place = "{783, 169}";
type = Stem;
},
{
place = "{33, 783}";
type = Stem;
}
);
layerId = "59338637-1E5C-47E2-9B1C-5C70074789A9";
paths = (
{
closed = 1;
nodes = (
"647 0 LINE",
"816 149 LINE",
"816 590 LINE",
"647 738 LINE",
"33 738 LINE",
"33 0 LINE"
);
},
{
closed = 1;
nodes = (
"396 601 LINE",
"453 601 LINE",
"453 138 LINE",
"396 138 LINE"
);
},
{
closed = 1;
nodes = (
"555 783 LINE",
"684 952 LINE",
"469 952 LINE",
"391 875 LINE",
"313 952 LINE",
"99 952 LINE",
"227 783 LINE"
);
}
);
width = 849;
}
);
note = Dcaron;
unicode = 010E;
},
{
glyphname = Dcroat;
lastChange = "2019-09-03 21:23:28 +0000";
layers = (
{
hints = (
{
horizontal = 1;
place = "{0, 138}";
type = Stem;
},
{
horizontal = 1;
place = "{300, 149}";
type = Stem;
},
{
horizontal = 1;
place = "{601, 137}";
type = Stem;
},
{
place = "{-15, 831}";
type = Stem;
}
);
layerId = "59338637-1E5C-47E2-9B1C-5C70074789A9";
paths = (
{
closed = 1;
nodes = (
"647 0 LINE",
"816 149 LINE",
"816 590 LINE",
"647 738 LINE",
"33 738 LINE",
"33 449 LINE",
"-15 449 LINE",
"-15 300 LINE",
"33 300 LINE",
"33 0 LINE"
);
},
{
closed = 1;
nodes = (
"396 300 LINE",
"430 300 LINE",
"430 449 LINE",
"396 449 LINE",
"396 601 LINE",
"453 601 LINE",
"453 138 LINE",
"396 138 LINE"
);
}
);
width = 849;
}
);
note = Dcroat;
unicode = 0110;
},
{
glyphname = uni01C5;
lastChange = "2019-09-03 21:22:04 +0000";
layers = (
{
hints = (
{
horizontal = 1;
place = "{0, 138}";
type = Stem;
},
{
horizontal = 1;
place = "{374, 149}";
type = Stem;
},
{
horizontal = 1;
place = "{601, 137}";
type = Stem;
},
{
place = "{33, 1439}";
type = Stem;
},
{
horizontal = 1;
place = "{569, 169}";
type = Stem;
},
{
horizontal = 1;
place = "{0, 149}";
type = Stem;
}
);
layerId = "59338637-1E5C-47E2-9B1C-5C70074789A9";
paths = (
{
closed = 1;
nodes = (
"647 0 LINE",
"816 149 LINE",
"816 590 LINE",
"647 738 LINE",
"33 738 LINE",
"33 0 LINE"
);
},
{
closed = 1;
nodes = (
"396 601 LINE",
"453 601 LINE",
"453 138 LINE",
"396 138 LINE"
);
},
{
closed = 1;
nodes = (
"1467 0 LINE",
"1467 149 LINE",
"1233 149 LINE",
"1456 365 LINE",
"1456 523 LINE",
"897 523 LINE",
"897 374 LINE",
"1100 374 LINE",
"871 150 LINE",
"871 0 LINE"
);
},
{
closed = 1;
nodes = (
"1343 569 LINE",
"1472 738 LINE",
"1257 738 LINE",
"1179 661 LINE",
"1101 738 LINE",
"887 738 LINE",
"1015 569 LINE"
);
}
);
width = 1488;
}
);
note = uni01C5;
unicode = 01C5;
},
{
glyphname = E;
lastChange = "2019-09-03 21:22:04 +0000";
layers = (
{
hints = (
{
horizontal = 1;
place = "{0, 237}";
type = Stem;
},
{
horizontal = 1;
place = "{294, 149}";
type = Stem;
},
{
horizontal = 1;
place = "{501, 236}";
type = Stem;
},
{
place = "{33, 716}";
type = Stem;
}
);
layerId = "59338637-1E5C-47E2-9B1C-5C70074789A9";
paths = (
{
closed = 1;
nodes = (
"749 0 LINE",
"749 237 LINE",
"396 237 LINE",
"396 294 LINE",
"703 294 LINE",
"703 443 LINE",
"396 443 LINE",
"396 501 LINE",
"749 501 LINE",
"749 737 LINE",
"33 737 LINE",
"33 0 LINE"
);
}
);
width = 782;
}
);
note = E;
unicode = 0045;
},
{
glyphname = Eacute;
lastChange = "2019-09-03 21:22:04 +0000";
layers = (
{
hints = (
{
horizontal = 1;
place = "{0, 237}";
type = Stem;
},
{
horizontal = 1;
place = "{294, 149}";
type = Stem;
},
{
horizontal = 1;
place = "{501, 236}";
type = Stem;
},
{
horizontal = 1;
place = "{783, 169}";
type = Stem;
},
{
place = "{33, 716}";
type = Stem;
}
);
layerId = "59338637-1E5C-47E2-9B1C-5C70074789A9";
paths = (
{
closed = 1;
nodes = (
"749 0 LINE",
"749 237 LINE",
"396 237 LINE",
"396 294 LINE",
"703 294 LINE",
"703 443 LINE",
"396 443 LINE",
"396 501 LINE",
"749 501 LINE",
"749 737 LINE",
"33 737 LINE",
"33 0 LINE"
);
},
{
closed = 1;
nodes = (
"505 783 LINE",
"676 952 LINE",
"412 952 LINE",
"299 783 LINE"
);
}
);
width = 782;
}
);
note = Eacute;
unicode = 00C9;
},
{
glyphname = Ebreve;
lastChange = "2019-09-03 21:22:04 +0000";
layers = (
{
hints = (
{
horizontal = 1;
place = "{0, 237}";
type = Stem;
},
{
horizontal = 1;
place = "{294, 149}";
type = Stem;
},
{
horizontal = 1;
place = "{501, 236}";
type = Stem;
},
{
horizontal = 1;
place = "{783, 169}";
type = Stem;
},
{
place = "{120, 226}";
type = Stem;
},
{
place = "{436, 225}";
type = Stem;
}
);
layerId = "59338637-1E5C-47E2-9B1C-5C70074789A9";
paths = (
{
closed = 1;
nodes = (
"749 0 LINE",
"749 237 LINE",
"396 237 LINE",
"396 294 LINE",
"703 294 LINE",
"703 443 LINE",
"396 443 LINE",
"396 501 LINE",
"749 501 LINE",
"749 737 LINE",
"33 737 LINE",
"33 0 LINE"
);
},
{
closed = 1;
nodes = (
"547 783 LINE",
"661 877 LINE",
"661 952 LINE",
"436 952 LINE",
"436 904 LINE",
"346 904 LINE",
"346 952 LINE",
"120 952 LINE",
"120 877 LINE",
"234 783 LINE"
);
}
);
width = 782;
}
);
note = Ebreve;
unicode = 0114;
},
{
glyphname = Ecaron;
lastChange = "2019-09-03 21:22:04 +0000";
layers = (
{
hints = (
{
horizontal = 1;
place = "{0, 237}";
type = Stem;
},
{
horizontal = 1;
place = "{294, 149}";
type = Stem;
},
{
horizontal = 1;
place = "{501, 236}";
type = Stem;
},
{
horizontal = 1;
place = "{783, 169}";
type = Stem;
},
{
place = "{33, 716}";
type = Stem;
}
);
layerId = "59338637-1E5C-47E2-9B1C-5C70074789A9";
paths = (
{
closed = 1;
nodes = (
"749 0 LINE",
"749 237 LINE",
"396 237 LINE",
"396 294 LINE",
"703 294 LINE",
"703 443 LINE",
"396 443 LINE",
"396 501 LINE",
"749 501 LINE",
"749 737 LINE",
"33 737 LINE",
"33 0 LINE"
);
},
{
closed = 1;
nodes = (
"554 783 LINE",
"683 952 LINE",
"468 952 LINE",
"390 875 LINE",
"312 952 LINE",
"98 952 LINE",
"226 783 LINE"
);
}
);
width = 782;
}
);
note = Ecaron;
unicode = 011A;
},
{
glyphname = Ecircumflex;
lastChange = "2019-09-03 21:22:04 +0000";
layers = (
{
hints = (
{
horizontal = 1;
place = "{0, 237}";
type = Stem;
},
{
horizontal = 1;
place = "{294, 149}";
type = Stem;
},
{
horizontal = 1;
place = "{501, 236}";
type = Stem;
},
{
horizontal = 1;
place = "{783, 169}";
type = Stem;
},
{
place = "{33, 716}";
type = Stem;
}
);
layerId = "59338637-1E5C-47E2-9B1C-5C70074789A9";
paths = (
{
closed = 1;
nodes = (
"749 0 LINE",
"749 237 LINE",
"396 237 LINE",
"396 294 LINE",
"703 294 LINE",
"703 443 LINE",
"396 443 LINE",
"396 501 LINE",
"749 501 LINE",
"749 737 LINE",
"33 737 LINE",
"33 0 LINE"
);
},
{
closed = 1;
nodes = (
"313 783 LINE",
"391 860 LINE",
"469 783 LINE",
"683 783 LINE",
"555 952 LINE",
"227 952 LINE",
"98 783 LINE"
);
}
);
width = 782;
}
);
note = Ecircumflex;
unicode = 00CA;
},
{
glyphname = uni1EBE;
lastChange = "2019-09-03 21:22:04 +0000";
layers = (
{
hints = (
{
horizontal = 1;
place = "{0, 237}";
type = Stem;
},
{
horizontal = 1;
place = "{294, 149}";
type = Stem;
},
{
horizontal = 1;
place = "{501, 236}";
type = Stem;
},
{
horizontal = 1;
place = "{880, 169}";
type = Stem;
},
{
place = "{33, 994}";
type = Stem;
},
{
horizontal = 1;
place = "{783, 169}";
type = Stem;
}
);
layerId = "59338637-1E5C-47E2-9B1C-5C70074789A9";
paths = (
{
closed = 1;
nodes = (
"749 0 LINE",
"749 237 LINE",
"396 237 LINE",
"396 294 LINE",
"703 294 LINE",
"703 443 LINE",
"396 443 LINE",
"396 501 LINE",
"749 501 LINE",
"749 737 LINE",
"33 737 LINE",
"33 0 LINE"
);
},
{
closed = 1;
nodes = (
"313 783 LINE",
"391 860 LINE",
"469 783 LINE",
"684 783 LINE",
"555 952 LINE",
"227 952 LINE",
"99 783 LINE"
);
},
{
closed = 1;
nodes = (
"856 880 LINE",
"1027 1049 LINE",
"763 1049 LINE",
"650 880 LINE"
);
}
);
width = 782;
}
);
note = uni1EBE;
unicode = 1EBE;
},
{
glyphname = uni1EC6;
lastChange = "2019-09-03 21:22:04 +0000";
layers = (
{
hints = (
{
horizontal = 1;
place = "{-215, 169}";
type = Stem;
},
{
horizontal = 1;
place = "{0, 237}";
type = Stem;
},
{
horizontal = 1;
place = "{294, 149}";
type = Stem;
},
{
horizontal = 1;
place = "{501, 236}";
type = Stem;
},
{
horizontal = 1;
place = "{783, 169}";
type = Stem;
},
{
place = "{33, 716}";
type = Stem;
},
{
place = "{237, 307}";
type = Stem;
}
);
layerId = "59338637-1E5C-47E2-9B1C-5C70074789A9";
paths = (
{
closed = 1;
nodes = (
"749 0 LINE",
"749 237 LINE",
"396 237 LINE",
"396 294 LINE",
"703 294 LINE",
"703 443 LINE",
"396 443 LINE",
"396 501 LINE",
"749 501 LINE",
"749 737 LINE",
"33 737 LINE",
"33 0 LINE"
);
},
{
closed = 1;
nodes = (
"544 -215 LINE",
"544 -46 LINE",
"237 -46 LINE",
"237 -215 LINE"
);
},
{
closed = 1;
nodes = (
"313 783 LINE",
"391 860 LINE",
"469 783 LINE",
"683 783 LINE",
"555 952 LINE",
"227 952 LINE",
"98 783 LINE"
);
}
);
width = 782;
}
);
note = uni1EC6;
unicode = 1EC6;
},
{
glyphname = uni1EC0;
lastChange = "2019-09-03 21:23:56 +0000";
layers = (
{
hints = (
{
horizontal = 1;
place = "{0, 237}";
type = Stem;
},
{
horizontal = 1;
place = "{294, 149}";
type = Stem;
},
{
horizontal = 1;
place = "{501, 236}";
type = Stem;
},
{
horizontal = 1;
place = "{880, 169}";
type = Stem;
},
{
place = "{-244, 994}";
type = Stem;
},
{
horizontal = 1;
place = "{783, 169}";
type = Stem;
}
);
layerId = "59338637-1E5C-47E2-9B1C-5C70074789A9";
paths = (
{
closed = 1;
nodes = (
"133 880 LINE",
"20 1049 LINE",
"-244 1049 LINE",
"-73 880 LINE"
);
},
{
closed = 1;
nodes = (
"314 783 LINE",
"392 860 LINE",
"470 783 LINE",
"684 783 LINE",
"556 952 LINE",
"228 952 LINE",
"99 783 LINE"
);
},
{
closed = 1;
nodes = (
"749 0 LINE",
"749 237 LINE",
"396 237 LINE",
"396 294 LINE",
"703 294 LINE",
"703 443 LINE",
"396 443 LINE",
"396 501 LINE",
"749 501 LINE",
"749 737 LINE",
"33 737 LINE",
"33 0 LINE"
);
}
);
width = 782;
}
);
note = uni1EC0;
unicode = 1EC0;
},
{
glyphname = uni1EC2;
lastChange = "2019-09-03 21:22:04 +0000";
layers = (
{
hints = (
{
horizontal = 1;
place = "{0, 237}";
type = Stem;
},
{
horizontal = 1;
place = "{294, 149}";
type = Stem;
},
{
horizontal = 1;
place = "{501, 236}";
type = Stem;
},
{
horizontal = 1;
place = "{783, 169}";
type = Stem;
},
{
horizontal = 1;
place = "{1006, 122}";
type = Stem;
},
{
place = "{550, 179}";
type = Stem;
},
{
place = "{768, 184}";
type = Stem;
},
{
horizontal = 1;
place = "{880, 98}";
type = Stem;
}
);
layerId = "59338637-1E5C-47E2-9B1C-5C70074789A9";
paths = (
{
closed = 1;
nodes = (
"749 0 LINE",
"749 237 LINE",
"396 237 LINE",
"396 294 LINE",
"703 294 LINE",
"703 443 LINE",
"396 443 LINE",
"396 501 LINE",
"749 501 LINE",
"749 737 LINE",
"33 737 LINE",
"33 0 LINE"
);
},
{
closed = 1;
nodes = (
"313 783 LINE",
"391 860 LINE",
"469 783 LINE",
"683 783 LINE",
"555 952 LINE",
"227 952 LINE",
"98 783 LINE"
);
},
{
closed = 1;
nodes = (
"858 880 LINE",
"858 912 LINE",
"898 912 LINE",
"952 966 LINE",
"952 1073 LINE",
"887 1128 LINE",
"615 1128 LINE",
"550 1073 LINE",
"550 1006 LINE",
"729 1006 LINE",
"729 1058 LINE",
"768 1058 LINE",
"768 978 LINE",
"684 978 LINE",
"638 932 LINE",
"638 880 LINE"
);
}
);
width = 782;
}
);
note = uni1EC2;
unicode = 1EC2;
},
{
glyphname = uni1EC4;
lastChange = "2019-09-03 21:22:04 +0000";
layers = (
{
hints = (
{
horizontal = 1;
place = "{0, 237}";
type = Stem;
},
{
horizontal = 1;
place = "{294, 149}";
type = Stem;
},
{
horizontal = 1;
place = "{501, 236}";
type = Stem;
},
{
horizontal = 1;
place = "{783, 169}";
type = Stem;
},
{
horizontal = 1;
place = "{987, 168}";
type = Stem;
},
{
place = "{125, 155}";
type = Stem;
},
{
place = "{503, 156}";
type = Stem;
},
{
horizontal = 1;
place = "{981, 169}";
type = Stem;
}
);
layerId = "59338637-1E5C-47E2-9B1C-5C70074789A9";
paths = (
{
closed = 1;
nodes = (
"749 0 LINE",
"749 237 LINE",
"396 237 LINE",
"396 294 LINE",
"703 294 LINE",
"703 443 LINE",
"396 443 LINE",
"396 501 LINE",
"749 501 LINE",
"749 737 LINE",
"33 737 LINE",
"33 0 LINE"
);
},
{
closed = 1;
nodes = (
"313 783 LINE",
"391 860 LINE",
"469 783 LINE",
"683 783 LINE",
"555 952 LINE",
"227 952 LINE",
"98 783 LINE"
);
},
{
closed = 1;
nodes = (
"566 981 LINE",
"659 1057 LINE",
"659 1150 LINE",
"503 1150 LINE",
"503 1108 LINE",
"468 1108 LINE",
"413 1155 LINE",
"217 1155 LINE",
"125 1079 LINE",
"125 987 LINE",
"280 987 LINE",
"280 1029 LINE",
"315 1029 LINE",
"370 981 LINE"
);
}
);
width = 782;
}
);
note = uni1EC4;
unicode = 1EC4;
},
{
glyphname = uni0204;
lastChange = "2019-09-03 21:24:17 +0000";
layers = (
{
hints = (
{
horizontal = 1;
place = "{0, 237}";
type = Stem;
},
{
horizontal = 1;
place = "{294, 149}";
type = Stem;
},
{
horizontal = 1;
place = "{501, 236}";
type = Stem;
},
{
horizontal = 1;
place = "{783, 169}";
type = Stem;
},
{
place = "{-22, 772}";
type = Stem;
}
);
layerId = "59338637-1E5C-47E2-9B1C-5C70074789A9";
paths = (
{
closed = 1;
nodes = (
"344 783 LINE",
"231 952 LINE",
"-22 952 LINE",
"150 783 LINE"
);
},
{
closed = 1;
nodes = (
"633 783 LINE",
"519 952 LINE",
"266 952 LINE",
"438 783 LINE"
);
},
{
closed = 1;
nodes = (
"749 0 LINE",
"749 237 LINE",
"396 237 LINE",
"396 294 LINE",
"703 294 LINE",
"703 443 LINE",
"396 443 LINE",
"396 501 LINE",
"749 501 LINE",
"749 737 LINE",
"33 737 LINE",
"33 0 LINE"
);
}
);
width = 782;
}
);
note = uni0204;
unicode = 0204;
},
{
glyphname = Edieresis;
lastChange = "2019-09-03 21:22:04 +0000";
layers = (
{
hints = (
{
horizontal = 1;
place = "{0, 237}";
type = Stem;
},
{
horizontal = 1;
place = "{294, 149}";
type = Stem;
},
{
horizontal = 1;
place = "{501, 236}";
type = Stem;
},
{
horizontal = 1;
place = "{783, 169}";
type = Stem;
},
{
place = "{95, 274}";
type = Stem;
},
{
place = "{415, 274}";
type = Stem;
}
);
layerId = "59338637-1E5C-47E2-9B1C-5C70074789A9";
paths = (
{
closed = 1;
nodes = (
"749 0 LINE",
"749 237 LINE",
"396 237 LINE",
"396 294 LINE",
"703 294 LINE",
"703 443 LINE",
"396 443 LINE",
"396 501 LINE",
"749 501 LINE",
"749 737 LINE",
"33 737 LINE",
"33 0 LINE"
);
},
{
closed = 1;
nodes = (
"369 783 LINE",
"369 952 LINE",
"95 952 LINE",
"95 783 LINE"
);
},
{
closed = 1;
nodes = (
"689 783 LINE",
"689 952 LINE",
"415 952 LINE",
"415 783 LINE"
);
}
);
width = 782;
}
);
note = Edieresis;
unicode = 00CB;
},
{
glyphname = Edotaccent;
lastChange = "2019-09-03 21:22:04 +0000";
layers = (
{
hints = (
{
horizontal = 1;
place = "{0, 237}";
type = Stem;
},
{
horizontal = 1;
place = "{294, 149}";
type = Stem;
},
{
horizontal = 1;
place = "{501, 236}";
type = Stem;
},
{
horizontal = 1;
place = "{783, 168}";
type = Stem;
},
{
place = "{237, 307}";
type = Stem;
}
);
layerId = "59338637-1E5C-47E2-9B1C-5C70074789A9";
paths = (
{
closed = 1;
nodes = (
"749 0 LINE",
"749 237 LINE",
"396 237 LINE",
"396 294 LINE",
"703 294 LINE",
"703 443 LINE",
"396 443 LINE",
"396 501 LINE",
"749 501 LINE",
"749 737 LINE",
"33 737 LINE",
"33 0 LINE"
);
},
{
closed = 1;
nodes = (
"544 783 LINE",
"544 951 LINE",
"237 951 LINE",
"237 783 LINE"
);
}
);
width = 782;
}
);
note = Edotaccent;
unicode = 0116;
},
{
glyphname = uni1EB8;
lastChange = "2019-09-03 21:22:04 +0000";
layers = (
{
hints = (
{
horizontal = 1;
place = "{-215, 169}";
type = Stem;
},
{
horizontal = 1;
place = "{0, 237}";
type = Stem;
},
{
horizontal = 1;
place = "{294, 149}";
type = Stem;
},
{
horizontal = 1;
place = "{501, 236}";
type = Stem;
},
{
place = "{33, 716}";
type = Stem;
},
{
place = "{237, 307}";
type = Stem;
}
);
layerId = "59338637-1E5C-47E2-9B1C-5C70074789A9";
paths = (
{
closed = 1;
nodes = (
"749 0 LINE",
"749 237 LINE",
"396 237 LINE",
"396 294 LINE",
"703 294 LINE",
"703 443 LINE",
"396 443 LINE",
"396 501 LINE",
"749 501 LINE",
"749 737 LINE",
"33 737 LINE",
"33 0 LINE"
);
},
{
closed = 1;
nodes = (
"544 -215 LINE",
"544 -46 LINE",
"237 -46 LINE",
"237 -215 LINE"
);
}
);
width = 782;
}
);
note = uni1EB8;
unicode = 1EB8;
},
{
glyphname = Egrave;
lastChange = "2019-09-03 21:22:04 +0000";
layers = (
{
hints = (
{
horizontal = 1;
place = "{0, 237}";
type = Stem;
},
{
horizontal = 1;
place = "{294, 149}";
type = Stem;
},
{
horizontal = 1;
place = "{501, 236}";
type = Stem;
},
{
horizontal = 1;
place = "{783, 169}";
type = Stem;
},
{
place = "{33, 716}";
type = Stem;
}
);
layerId = "59338637-1E5C-47E2-9B1C-5C70074789A9";
paths = (
{
closed = 1;
nodes = (
"749 0 LINE",
"749 237 LINE",
"396 237 LINE",
"396 294 LINE",
"703 294 LINE",
"703 443 LINE",
"396 443 LINE",
"396 501 LINE",
"749 501 LINE",
"749 737 LINE",
"33 737 LINE",
"33 0 LINE"
);
},
{
closed = 1;
nodes = (
"493 783 LINE",
"380 952 LINE",
"116 952 LINE",
"287 783 LINE"
);
}
);
width = 782;
}
);
note = Egrave;
unicode = 00C8;
},
{
glyphname = uni1EBA;
lastChange = "2019-09-03 21:22:04 +0000";
layers = (
{
hints = (
{
horizontal = 1;
place = "{0, 237}";
type = Stem;
},
{
horizontal = 1;
place = "{294, 149}";
type = Stem;
},
{
horizontal = 1;
place = "{501, 236}";
type = Stem;
},
{
horizontal = 1;
place = "{908, 122}";
type = Stem;
},
{
place = "{193, 179}";
type = Stem;
},
{
place = "{411, 184}";
type = Stem;
},
{
horizontal = 1;
place = "{782, 98}";
type = Stem;
}
);
layerId = "59338637-1E5C-47E2-9B1C-5C70074789A9";
paths = (
{
closed = 1;
nodes = (
"749 0 LINE",
"749 237 LINE",
"396 237 LINE",
"396 294 LINE",
"703 294 LINE",
"703 443 LINE",
"396 443 LINE",
"396 501 LINE",
"749 501 LINE",
"749 737 LINE",
"33 737 LINE",
"33 0 LINE"
);
},
{
closed = 1;
nodes = (
"501 782 LINE",
"501 814 LINE",
"541 814 LINE",
"595 868 LINE",
"595 975 LINE",
"530 1030 LINE",
"258 1030 LINE",
"193 975 LINE",
"193 908 LINE",
"372 908 LINE",
"372 960 LINE",
"411 960 LINE",
"411 880 LINE",
"327 880 LINE",
"281 834 LINE",
"281 782 LINE"
);
}
);
width = 782;
}
);
note = uni1EBA;
unicode = 1EBA;
},
{
glyphname = uni0206;
lastChange = "2019-09-03 21:22:04 +0000";
layers = (
{
hints = (
{
horizontal = 1;
place = "{0, 237}";
type = Stem;
},
{
horizontal = 1;
place = "{294, 149}";
type = Stem;
},
{
horizontal = 1;
place = "{501, 236}";
type = Stem;
},
{
horizontal = 1;
place = "{783, 169}";
type = Stem;
},
{
place = "{154, 174}";
type = Stem;
},
{
place = "{453, 174}";
type = Stem;
}
);
layerId = "59338637-1E5C-47E2-9B1C-5C70074789A9";
paths = (
{
closed = 1;
nodes = (
"749 0 LINE",
"749 237 LINE",
"396 237 LINE",
"396 294 LINE",
"703 294 LINE",
"703 443 LINE",
"396 443 LINE",
"396 501 LINE",
"749 501 LINE",
"749 737 LINE",
"33 737 LINE",
"33 0 LINE"
);
},
{
closed = 1;
nodes = (
"328 783 LINE",
"328 825 LINE",
"453 825 LINE",
"453 783 LINE",
"627 783 LINE",
"627 865 LINE",
"531 952 LINE",
"249 952 LINE",
"154 865 LINE",
"154 783 LINE"
);
}
);
width = 782;
}
);
note = uni0206;
unicode = 0206;
},
{
glyphname = Emacron;
lastChange = "2019-09-03 21:22:04 +0000";
layers = (
{
hints = (
{
horizontal = 1;
place = "{0, 237}";
type = Stem;
},
{
horizontal = 1;
place = "{294, 149}";
type = Stem;
},
{
horizontal = 1;
place = "{501, 236}";
type = Stem;
},
{
horizontal = 1;
place = "{783, 169}";
type = Stem;
},
{
place = "{33, 716}";
type = Stem;
}
);
layerId = "59338637-1E5C-47E2-9B1C-5C70074789A9";
paths = (
{
closed = 1;
nodes = (
"749 0 LINE",
"749 237 LINE",
"396 237 LINE",
"396 294 LINE",
"703 294 LINE",
"703 443 LINE",
"396 443 LINE",
"396 501 LINE",
"749 501 LINE",
"749 737 LINE",
"33 737 LINE",
"33 0 LINE"
);
},
{
closed = 1;
nodes = (
"688 783 LINE",
"688 952 LINE",
"94 952 LINE",
"94 783 LINE"
);
}
);
width = 782;
}
);
note = Emacron;
unicode = 0112;
},
{
glyphname = Eogonek;
lastChange = "2019-09-03 21:22:04 +0000";
layers = (
{
hints = (
{
horizontal = 1;
place = "{-198, 143}";
type = Stem;
},
{
horizontal = 1;
place = "{0, 237}";
type = Stem;
},
{
horizontal = 1;
place = "{294, 149}";
type = Stem;
},
{
horizontal = 1;
place = "{501, 236}";
type = Stem;
},
{
place = "{566, 188}";
type = Stem;
}
);
layerId = "59338637-1E5C-47E2-9B1C-5C70074789A9";
paths = (
{
closed = 1;
nodes = (
"754 -198 LINE",
"754 -55 LINE",
"733 -55 LINE",
"720 -44 LINE",
"720 -23 LINE",
"749 0 LINE",
"749 237 LINE",
"396 237 LINE",
"396 294 LINE",
"703 294 LINE",
"703 443 LINE",
"396 443 LINE",
"396 501 LINE",
"749 501 LINE",
"749 737 LINE",
"33 737 LINE",
"33 0 LINE",
"612 0 LINE",
"566 -33 LINE",
"566 -127 LINE",
"654 -198 LINE"
);
}
);
width = 782;
}
);
note = Eogonek;
unicode = 0118;
},
{
glyphname = uni1EBC;
lastChange = "2019-09-03 21:22:04 +0000";
layers = (
{
hints = (
{
horizontal = 1;
place = "{0, 237}";
type = Stem;
},
{
horizontal = 1;
place = "{294, 149}";
type = Stem;
},
{
horizontal = 1;
place = "{501, 236}";
type = Stem;
},
{
horizontal = 1;
place = "{789, 168}";
type = Stem;
},
{
place = "{124, 155}";
type = Stem;
},
{
place = "{502, 156}";
type = Stem;
},
{
horizontal = 1;
place = "{783, 169}";
type = Stem;
}
);
layerId = "59338637-1E5C-47E2-9B1C-5C70074789A9";
paths = (
{
closed = 1;
nodes = (
"749 0 LINE",
"749 237 LINE",
"396 237 LINE",
"396 294 LINE",
"703 294 LINE",
"703 443 LINE",
"396 443 LINE",
"396 501 LINE",
"749 501 LINE",
"749 737 LINE",
"33 737 LINE",
"33 0 LINE"
);
},
{
closed = 1;
nodes = (
"565 783 LINE",
"658 859 LINE",
"658 952 LINE",
"502 952 LINE",
"502 910 LINE",
"467 910 LINE",
"412 957 LINE",
"216 957 LINE",
"124 881 LINE",
"124 789 LINE",
"279 789 LINE",
"279 831 LINE",
"314 831 LINE",
"369 783 LINE"
);
}
);
width = 782;
}
);
note = uni1EBC;
unicode = 1EBC;
},
{
glyphname = F;
lastChange = "2019-09-03 21:22:04 +0000";
layers = (
{
hints = (
{
horizontal = 1;
place = "{241, 202}";
type = Stem;
},
{
horizontal = 1;
place = "{501, 236}";
type = Stem;
},
{
place = "{33, 716}";
type = Stem;
}
);
layerId = "59338637-1E5C-47E2-9B1C-5C70074789A9";
paths = (
{
closed = 1;
nodes = (
"396 0 LINE",
"396 241 LINE",
"700 241 LINE",
"700 443 LINE",
"396 443 LINE",
"396 501 LINE",
"749 501 LINE",
"749 737 LINE",
"33 737 LINE",
"33 0 LINE"
);
}
);
width = 782;
}
);
note = F;
rightKerningGroup = F;
unicode = 0046;
},
{
glyphname = G;
lastChange = "2019-09-03 21:22:04 +0000";
layers = (
{
hints = (
{
horizontal = 1;
place = "{0, 195}";
type = Stem;
},
{
horizontal = 1;
place = "{252, 150}";
type = Stem;
},
{
horizontal = 1;
place = "{600, 137}";
type = Stem;
},
{
place = "{560, 256}";
type = Stem;
}
);
layerId = "59338637-1E5C-47E2-9B1C-5C70074789A9";
paths = (
{
closed = 1;
nodes = (
"471 0 LINE",
"560 73 LINE",
"560 0 LINE",
"816 0 LINE",
"816 402 LINE",
"453 402 LINE",
"453 252 LINE",
"527 252 LINE",
"527 195 LINE",
"396 195 LINE",
"396 600 LINE",
"453 600 LINE",
"453 459 LINE",
"816 457 LINE",
"816 644 LINE",
"702 737 LINE",
"147 737 LINE",
"33 644 LINE",
"33 94 LINE",
"147 0 LINE"
);
}
);
width = 849;
}
);
note = G;
unicode = 0047;
},
{
glyphname = Gbreve;
lastChange = "2019-09-03 21:22:04 +0000";
layers = (
{
hints = (
{
horizontal = 1;
place = "{0, 195}";
type = Stem;
},
{
horizontal = 1;
place = "{252, 150}";
type = Stem;
},
{
horizontal = 1;
place = "{600, 137}";
type = Stem;
},
{
horizontal = 1;
place = "{783, 169}";
type = Stem;
},
{
place = "{154, 226}";
type = Stem;
},
{
place = "{560, 256}";
type = Stem;
},
{
place = "{470, 225}";
type = Stem;
}
);
layerId = "59338637-1E5C-47E2-9B1C-5C70074789A9";
paths = (
{
closed = 1;
nodes = (
"471 0 LINE",
"560 73 LINE",
"560 0 LINE",
"816 0 LINE",
"816 402 LINE",
"453 402 LINE",
"453 252 LINE",
"527 252 LINE",
"527 195 LINE",
"396 195 LINE",
"396 600 LINE",
"453 600 LINE",
"453 459 LINE",
"816 457 LINE",
"816 644 LINE",
"702 737 LINE",
"147 737 LINE",
"33 644 LINE",
"33 94 LINE",
"147 0 LINE"
);
},
{
closed = 1;
nodes = (
"581 783 LINE",
"695 877 LINE",
"695 952 LINE",
"470 952 LINE",
"470 904 LINE",
"380 904 LINE",
"380 952 LINE",
"154 952 LINE",
"154 877 LINE",
"268 783 LINE"
);
}
);
width = 849;
}
);
note = Gbreve;
unicode = 011E;
},
{
glyphname = Gcaron;
lastChange = "2019-09-03 21:22:04 +0000";
layers = (
{
hints = (
{
horizontal = 1;
place = "{0, 195}";
type = Stem;
},
{
horizontal = 1;
place = "{252, 150}";
type = Stem;
},
{
horizontal = 1;
place = "{600, 137}";
type = Stem;
},
{
horizontal = 1;
place = "{783, 169}";
type = Stem;
},
{
place = "{560, 256}";
type = Stem;
}
);
layerId = "59338637-1E5C-47E2-9B1C-5C70074789A9";
paths = (
{
closed = 1;
nodes = (
"471 0 LINE",
"560 73 LINE",
"560 0 LINE",
"816 0 LINE",
"816 402 LINE",
"453 402 LINE",
"453 252 LINE",
"527 252 LINE",
"527 195 LINE",
"396 195 LINE",
"396 600 LINE",
"453 600 LINE",
"453 459 LINE",
"816 457 LINE",
"816 644 LINE",
"702 737 LINE",
"147 737 LINE",
"33 644 LINE",
"33 94 LINE",
"147 0 LINE"
);
},
{
closed = 1;
nodes = (
"588 783 LINE",
"717 952 LINE",
"502 952 LINE",
"424 875 LINE",
"346 952 LINE",
"132 952 LINE",
"260 783 LINE"
);
}
);
width = 849;
}
);
note = Gcaron;
unicode = 01E6;
},
{
glyphname = Gcircumflex;
lastChange = "2019-09-03 21:22:04 +0000";
layers = (
{
hints = (
{
horizontal = 1;
place = "{0, 195}";
type = Stem;
},
{
horizontal = 1;
place = "{252, 150}";
type = Stem;
},
{
horizontal = 1;
place = "{600, 137}";
type = Stem;
},
{
horizontal = 1;
place = "{783, 169}";
type = Stem;
},
{
place = "{560, 256}";
type = Stem;
}
);
layerId = "59338637-1E5C-47E2-9B1C-5C70074789A9";
paths = (
{
closed = 1;
nodes = (
"471 0 LINE",
"560 73 LINE",
"560 0 LINE",
"816 0 LINE",
"816 402 LINE",
"453 402 LINE",
"453 252 LINE",
"527 252 LINE",
"527 195 LINE",
"396 195 LINE",
"396 600 LINE",
"453 600 LINE",
"453 459 LINE",
"816 457 LINE",
"816 644 LINE",
"702 737 LINE",
"147 737 LINE",
"33 644 LINE",
"33 94 LINE",
"147 0 LINE"
);
},
{
closed = 1;
nodes = (
"347 783 LINE",
"425 860 LINE",
"503 783 LINE",
"717 783 LINE",
"589 952 LINE",
"261 952 LINE",
"132 783 LINE"
);
}
);
width = 849;
}
);
note = Gcircumflex;
unicode = 011C;
},
{
glyphname = uni0122;
lastChange = "2019-09-03 21:22:04 +0000";
layers = (
{
hints = (
{
horizontal = 1;
place = "{-229, 183}";
type = Stem;
},
{
horizontal = 1;
place = "{0, 195}";
type = Stem;
},
{
horizontal = 1;
place = "{252, 150}";
type = Stem;
},
{
horizontal = 1;
place = "{600, 137}";
type = Stem;
},
{
place = "{560, 256}";
type = Stem;
}
);
layerId = "59338637-1E5C-47E2-9B1C-5C70074789A9";
paths = (
{
closed = 1;
nodes = (
"471 0 LINE",
"560 73 LINE",
"560 0 LINE",
"816 0 LINE",
"816 402 LINE",
"453 402 LINE",
"453 252 LINE",
"527 252 LINE",
"527 195 LINE",
"396 195 LINE",
"396 600 LINE",
"453 600 LINE",
"453 459 LINE",
"816 457 LINE",
"816 644 LINE",
"702 737 LINE",
"147 737 LINE",
"33 644 LINE",
"33 94 LINE",
"147 0 LINE"
);
},
{
closed = 1;
nodes = (
"411 -229 LINE",
"562 -46 LINE",
"285 -46 LINE",
"229 -229 LINE"
);
}
);
width = 849;
}
);
note = uni0122;
unicode = 0122;
},
{
glyphname = Gdotaccent;
lastChange = "2019-09-03 21:22:04 +0000";
layers = (
{
hints = (
{
horizontal = 1;
place = "{0, 195}";
type = Stem;
},
{
horizontal = 1;
place = "{252, 150}";
type = Stem;
},
{
horizontal = 1;
place = "{600, 137}";
type = Stem;
},
{
horizontal = 1;
place = "{783, 168}";
type = Stem;
},
{
place = "{271, 125}";
type = Stem;
},
{
place = "{560, 256}";
type = Stem;
}
);
layerId = "59338637-1E5C-47E2-9B1C-5C70074789A9";
paths = (
{
closed = 1;
nodes = (
"471 0 LINE",
"560 73 LINE",
"560 0 LINE",
"816 0 LINE",
"816 402 LINE",
"453 402 LINE",
"453 252 LINE",
"527 252 LINE",
"527 195 LINE",
"396 195 LINE",
"396 600 LINE",
"453 600 LINE",
"453 459 LINE",
"816 457 LINE",
"816 644 LINE",
"702 737 LINE",
"147 737 LINE",
"33 644 LINE",
"33 94 LINE",
"147 0 LINE"
);
},
{
closed = 1;
nodes = (
"578 783 LINE",
"578 951 LINE",
"271 951 LINE",
"271 783 LINE"
);
}
);
width = 849;
}
);
note = Gdotaccent;
unicode = 0120;
},
{
glyphname = H;
lastChange = "2019-09-03 21:22:04 +0000";
layers = (
{
hints = (
{
horizontal = 1;
place = "{0, 737}";
type = Stem;
},
{
place = "{33, 783}";
type = Stem;
},
{
horizontal = 1;
place = "{275, 237}";
type = Stem;
}
);
layerId = "59338637-1E5C-47E2-9B1C-5C70074789A9";
paths = (
{
closed = 1;
nodes = (
"396 0 LINE",
"396 275 LINE",
"453 275 LINE",
"453 0 LINE",
"816 0 LINE",
"816 737 LINE",
"453 737 LINE",
"453 512 LINE",
"396 512 LINE",
"396 737 LINE",
"33 737 LINE",
"33 0 LINE"
);
}
);
width = 849;
}
);
note = H;
unicode = 0048;
},
{
glyphname = Hbar;
lastChange = "2019-09-03 21:22:04 +0000";
layers = (
{
hints = (
{
horizontal = 1;
place = "{275, 237}";
type = Stem;
},
{
horizontal = 1;
place = "{569, 168}";
type = Stem;
},
{
place = "{0, 849}";
type = Stem;
}
);
layerId = "59338637-1E5C-47E2-9B1C-5C70074789A9";
paths = (
{
closed = 1;
nodes = (
"396 0 LINE",
"396 275 LINE",
"453 275 LINE",
"453 0 LINE",
"816 0 LINE",
"816 569 LINE",
"849 569 LINE",
"849 680 LINE",
"816 680 LINE",
"816 737 LINE",
"453 737 LINE",
"453 680 LINE",
"396 680 LINE",
"396 737 LINE",
"33 737 LINE",
"33 680 LINE",
"0 680 LINE",
"0 569 LINE",
"33 569 LINE",
"33 0 LINE"
);
},
{
closed = 1;
nodes = (
"396 569 LINE",
"453 569 LINE",
"453 512 LINE",
"396 512 LINE"
);
}
);
width = 849;
}
);
note = Hbar;
unicode = 0126;
},
{
glyphname = Hcircumflex;
lastChange = "2019-09-03 21:22:04 +0000";
layers = (
{
hints = (
{
horizontal = 1;
place = "{275, 237}";
type = Stem;
},
{
horizontal = 1;
place = "{783, 169}";
type = Stem;
},
{
place = "{33, 783}";
type = Stem;
}
);
layerId = "59338637-1E5C-47E2-9B1C-5C70074789A9";
paths = (
{
closed = 1;
nodes = (
"396 0 LINE",
"396 275 LINE",
"453 275 LINE",
"453 0 LINE",
"816 0 LINE",
"816 737 LINE",
"453 737 LINE",
"453 512 LINE",
"396 512 LINE",
"396 737 LINE",
"33 737 LINE",
"33 0 LINE"
);
},
{
closed = 1;
nodes = (
"346 783 LINE",
"424 860 LINE",
"502 783 LINE",
"716 783 LINE",
"588 952 LINE",
"260 952 LINE",
"131 783 LINE"
);
}
);
width = 849;
}
);
note = Hcircumflex;
unicode = 0124;
},
{
glyphname = I;
lastChange = "2019-09-03 21:22:04 +0000";
layers = (
{
hints = (
{
horizontal = 1;
place = "{0, 221}";
type = Stem;
},
{
horizontal = 1;
place = "{516, 221}";
type = Stem;
},
{
place = "{104, 326}";
type = Stem;
}
);
layerId = "59338637-1E5C-47E2-9B1C-5C70074789A9";
paths = (
{
closed = 1;
nodes = (
"499 0 LINE",
"499 221 LINE",
"430 221 LINE",
"430 516 LINE",
"499 516 LINE",
"499 737 LINE",
"33 737 LINE",
"33 516 LINE",
"104 516 LINE",
"104 221 LINE",
"33 221 LINE",
"33 0 LINE"
);
}
);
width = 532;
}
);
note = I;
unicode = 0049;
},
{
glyphname = Iacute;
lastChange = "2019-09-03 21:24:51 +0000";
layers = (
{
hints = (
{
horizontal = 1;
place = "{0, 221}";
type = Stem;
},
{
horizontal = 1;
place = "{516, 221}";
type = Stem;
},
{
horizontal = 1;
place = "{783, 169}";
type = Stem;
},
{
place = "{104, 326}";
type = Stem;
}
);
layerId = "59338637-1E5C-47E2-9B1C-5C70074789A9";
paths = (
{
closed = 1;
nodes = (
"499 0 LINE",
"499 221 LINE",
"430 221 LINE",
"430 516 LINE",
"499 516 LINE",
"499 737 LINE",
"33 737 LINE",
"33 516 LINE",
"104 516 LINE",
"104 221 LINE",
"33 221 LINE",
"33 0 LINE"
);
},
{
closed = 1;
nodes = (
"381 783 LINE",
"552 952 LINE",
"288 952 LINE",
"175 783 LINE"
);
}
);
width = 532;
}
);
note = Iacute;
unicode = 00CD;
},
{
glyphname = Ibreve;
lastChange = "2019-09-03 21:25:13 +0000";
layers = (
{
hints = (
{
horizontal = 1;
place = "{0, 221}";
type = Stem;
},
{
horizontal = 1;
place = "{516, 221}";
type = Stem;
},
{
horizontal = 1;
place = "{783, 169}";
type = Stem;
},
{
place = "{-4, 226}";
type = Stem;
},
{
place = "{312, 225}";
type = Stem;
},
{
place = "{104, 326}";
type = Stem;
}
);
layerId = "59338637-1E5C-47E2-9B1C-5C70074789A9";
paths = (
{
closed = 1;
nodes = (
"499 0 LINE",
"499 221 LINE",
"430 221 LINE",
"430 516 LINE",
"499 516 LINE",
"499 737 LINE",
"33 737 LINE",
"33 516 LINE",
"104 516 LINE",
"104 221 LINE",
"33 221 LINE",
"33 0 LINE"
);
},
{
closed = 1;
nodes = (
"423 783 LINE",
"537 877 LINE",
"537 952 LINE",
"312 952 LINE",
"312 904 LINE",
"222 904 LINE",
"222 952 LINE",
"-4 952 LINE",
"-4 877 LINE",
"110 783 LINE"
);
}
);
width = 532;
}
);
note = Ibreve;
unicode = 012C;
},
{
glyphname = Icircumflex;
lastChange = "2019-09-03 21:25:13 +0000";
layers = (
{
hints = (
{
horizontal = 1;
place = "{0, 221}";
type = Stem;
},
{
horizontal = 1;
place = "{516, 221}";
type = Stem;
},
{
horizontal = 1;
place = "{783, 169}";
type = Stem;
},
{
place = "{104, 326}";
type = Stem;
}
);
layerId = "59338637-1E5C-47E2-9B1C-5C70074789A9";
paths = (
{
closed = 1;
nodes = (
"499 0 LINE",
"499 221 LINE",
"430 221 LINE",
"430 516 LINE",
"499 516 LINE",
"499 737 LINE",
"33 737 LINE",
"33 516 LINE",
"104 516 LINE",
"104 221 LINE",
"33 221 LINE",
"33 0 LINE"
);
},
{
closed = 1;
nodes = (
"189 783 LINE",
"267 860 LINE",
"345 783 LINE",
"559 783 LINE",
"431 952 LINE",
"103 952 LINE",
"-26 783 LINE"
);
}
);
width = 532;
}
);
note = Icircumflex;
unicode = 00CE;
},
{
glyphname = uni0208;
lastChange = "2019-09-03 21:25:13 +0000";
layers = (
{
hints = (
{
horizontal = 1;
place = "{0, 221}";
type = Stem;
},
{
horizontal = 1;
place = "{516, 221}";
type = Stem;
},
{
horizontal = 1;
place = "{783, 169}";
type = Stem;
},
{
place = "{104, 326}";
type = Stem;
}
);
layerId = "59338637-1E5C-47E2-9B1C-5C70074789A9";
paths = (
{
closed = 1;
nodes = (
"499 0 LINE",
"499 221 LINE",
"430 221 LINE",
"430 516 LINE",
"499 516 LINE",
"499 737 LINE",
"33 737 LINE",
"33 516 LINE",
"104 516 LINE",
"104 221 LINE",
"33 221 LINE",
"33 0 LINE"
);
},
{
closed = 1;
nodes = (
"219 783 LINE",
"106 952 LINE",
"-147 952 LINE",
"25 783 LINE"
);
},
{
closed = 1;
nodes = (
"508 783 LINE",
"394 952 LINE",
"141 952 LINE",
"313 783 LINE"
);
}
);
width = 532;
}
);
note = uni0208;
unicode = 0208;
},
{
glyphname = Idieresis;
lastChange = "2019-09-03 21:25:39 +0000";
layers = (
{
hints = (
{
horizontal = 1;
place = "{0, 221}";
type = Stem;
},
{
horizontal = 1;
place = "{516, 221}";
type = Stem;
},
{
horizontal = 1;
place = "{783, 169}";
type = Stem;
},
{
place = "{31, 212}";
type = Stem;
},
{
place = "{289, 208}";
type = Stem;
},
{
place = "{102, 326}";
type = Stem;
}
);
layerId = "59338637-1E5C-47E2-9B1C-5C70074789A9";
paths = (
{
closed = 1;
nodes = (
"243 783 LINE",
"243 952 LINE",
"-31 952 LINE",
"-31 783 LINE"
);
},
{
closed = 1;
nodes = (
"563 783 LINE",
"563 952 LINE",
"289 952 LINE",
"289 783 LINE"
);
},
{
closed = 1;
nodes = (
"499 0 LINE",
"499 221 LINE",
"430 221 LINE",
"430 516 LINE",
"499 516 LINE",
"499 737 LINE",
"33 737 LINE",
"33 516 LINE",
"104 516 LINE",
"104 221 LINE",
"33 221 LINE",
"33 0 LINE"
);
}
);
width = 532;
}
);
note = Idieresis;
unicode = 00CF;
},
{
glyphname = Idotaccent;
lastChange = "2019-09-03 21:22:04 +0000";
layers = (
{
hints = (
{
horizontal = 1;
place = "{0, 221}";
type = Stem;
},
{
horizontal = 1;
place = "{516, 221}";
type = Stem;
},
{
horizontal = 1;
place = "{783, 168}";
type = Stem;
},
{
place = "{113, 307}";
type = Stem;
},
{
place = "{104, 326}";
type = Stem;
}
);
layerId = "59338637-1E5C-47E2-9B1C-5C70074789A9";
paths = (
{
closed = 1;
nodes = (
"499 0 LINE",
"499 221 LINE",
"430 221 LINE",
"430 516 LINE",
"499 516 LINE",
"499 737 LINE",
"33 737 LINE",
"33 516 LINE",
"104 516 LINE",
"104 221 LINE",
"33 221 LINE",
"33 0 LINE"
);
},
{
closed = 1;
nodes = (
"420 783 LINE",
"420 951 LINE",
"113 951 LINE",
"113 783 LINE"
);
}
);
width = 532;
}
);
note = Idotaccent;
unicode = 0130;
},
{
glyphname = uni1ECA;
lastChange = "2019-09-03 21:22:04 +0000";
layers = (
{
hints = (
{
horizontal = 1;
place = "{-215, 169}";
type = Stem;
},
{
horizontal = 1;
place = "{0, 221}";
type = Stem;
},
{
horizontal = 1;
place = "{516, 221}";
type = Stem;
},
{
place = "{104, 326}";
type = Stem;
},
{
place = "{113, 307}";
type = Stem;
}
);
layerId = "59338637-1E5C-47E2-9B1C-5C70074789A9";
paths = (
{
closed = 1;
nodes = (
"499 0 LINE",
"499 221 LINE",
"430 221 LINE",
"430 516 LINE",
"499 516 LINE",
"499 737 LINE",
"33 737 LINE",
"33 516 LINE",
"104 516 LINE",
"104 221 LINE",
"33 221 LINE",
"33 0 LINE"
);
},
{
closed = 1;
nodes = (
"420 -215 LINE",
"420 -46 LINE",
"113 -46 LINE",
"113 -215 LINE"
);
}
);
width = 532;
}
);
note = uni1ECA;
unicode = 1ECA;
},
{
glyphname = Igrave;
lastChange = "2019-09-03 21:25:54 +0000";
layers = (
{
hints = (
{
horizontal = 1;
place = "{0, 221}";
type = Stem;
},
{
horizontal = 1;
place = "{516, 221}";
type = Stem;
},
{
horizontal = 1;
place = "{783, 169}";
type = Stem;
},
{
place = "{103, 326}";
type = Stem;
}
);
layerId = "59338637-1E5C-47E2-9B1C-5C70074789A9";
paths = (
{
closed = 1;
nodes = (
"368 783 LINE",
"255 952 LINE",
"-9 952 LINE",
"162 783 LINE"
);
},
{
closed = 1;
nodes = (
"499 0 LINE",
"499 221 LINE",
"430 221 LINE",
"430 516 LINE",
"499 516 LINE",
"499 737 LINE",
"33 737 LINE",
"33 516 LINE",
"104 516 LINE",
"104 221 LINE",
"33 221 LINE",
"33 0 LINE"
);
}
);
width = 532;
}
);
note = Igrave;
unicode = 00CC;
},
{
glyphname = uni1EC8;
lastChange = "2019-09-03 21:22:04 +0000";
layers = (
{
hints = (
{
horizontal = 1;
place = "{0, 221}";
type = Stem;
},
{
horizontal = 1;
place = "{516, 221}";
type = Stem;
},
{
horizontal = 1;
place = "{908, 122}";
type = Stem;
},
{
place = "{69, 179}";
type = Stem;
},
{
place = "{287, 184}";
type = Stem;
},
{
horizontal = 1;
place = "{782, 98}";
type = Stem;
},
{
place = "{104, 326}";
type = Stem;
}
);
layerId = "59338637-1E5C-47E2-9B1C-5C70074789A9";
paths = (
{
closed = 1;
nodes = (
"499 0 LINE",
"499 221 LINE",
"430 221 LINE",
"430 516 LINE",
"499 516 LINE",
"499 737 LINE",
"33 737 LINE",
"33 516 LINE",
"104 516 LINE",
"104 221 LINE",
"33 221 LINE",
"33 0 LINE"
);
},
{
closed = 1;
nodes = (
"377 782 LINE",
"377 814 LINE",
"417 814 LINE",
"471 868 LINE",
"471 975 LINE",
"406 1030 LINE",
"134 1030 LINE",
"69 975 LINE",
"69 908 LINE",
"248 908 LINE",
"248 960 LINE",
"287 960 LINE",
"287 880 LINE",
"203 880 LINE",
"157 834 LINE",
"157 782 LINE"
);
}
);
width = 532;
}
);
note = uni1EC8;
unicode = 1EC8;
},
{
glyphname = uni020A;
lastChange = "2019-09-03 21:25:13 +0000";
layers = (
{
hints = (
{
horizontal = 1;
place = "{0, 221}";
type = Stem;
},
{
horizontal = 1;
place = "{516, 221}";
type = Stem;
},
{
horizontal = 1;
place = "{783, 169}";
type = Stem;
},
{
place = "{33, 171}";
type = Stem;
},
{
place = "{329, 170}";
type = Stem;
},
{
place = "{104, 326}";
type = Stem;
}
);
layerId = "59338637-1E5C-47E2-9B1C-5C70074789A9";
paths = (
{
closed = 1;
nodes = (
"499 0 LINE",
"499 221 LINE",
"430 221 LINE",
"430 516 LINE",
"499 516 LINE",
"499 737 LINE",
"33 737 LINE",
"33 516 LINE",
"104 516 LINE",
"104 221 LINE",
"33 221 LINE",
"33 0 LINE"
);
},
{
closed = 1;
nodes = (
"204 783 LINE",
"204 825 LINE",
"329 825 LINE",
"329 783 LINE",
"503 783 LINE",
"503 865 LINE",
"407 952 LINE",
"125 952 LINE",
"30 865 LINE",
"30 783 LINE"
);
}
);
width = 532;
}
);
note = uni020A;
unicode = 020A;
},
{
glyphname = Imacron;
lastChange = "2019-09-03 21:26:00 +0000";
layers = (
{
hints = (
{
horizontal = 1;
place = "{0, 221}";
type = Stem;
},
{
horizontal = 1;
place = "{516, 221}";
type = Stem;
},
{
horizontal = 1;
place = "{783, 169}";
type = Stem;
},
{
place = "{103, 326}";
type = Stem;
}
);
layerId = "59338637-1E5C-47E2-9B1C-5C70074789A9";
paths = (
{
closed = 1;
nodes = (
"563 783 LINE",
"563 952 LINE",
"-31 952 LINE",
"-31 783 LINE"
);
},
{
closed = 1;
nodes = (
"499 0 LINE",
"499 221 LINE",
"430 221 LINE",
"430 516 LINE",
"499 516 LINE",
"499 737 LINE",
"33 737 LINE",
"33 516 LINE",
"104 516 LINE",
"104 221 LINE",
"33 221 LINE",
"33 0 LINE"
);
}
);
width = 532;
}
);
note = Imacron;
unicode = 012A;
},
{
glyphname = Iogonek;
lastChange = "2019-09-03 21:22:04 +0000";
layers = (
{
hints = (
{
horizontal = 1;
place = "{-198, 143}";
type = Stem;
},
{
horizontal = 1;
place = "{0, 221}";
type = Stem;
},
{
horizontal = 1;
place = "{516, 221}";
type = Stem;
},
{
place = "{316, 188}";
type = Stem;
},
{
place = "{104, 326}";
type = Stem;
}
);
layerId = "59338637-1E5C-47E2-9B1C-5C70074789A9";
paths = (
{
closed = 1;
nodes = (
"504 -198 LINE",
"504 -55 LINE",
"483 -55 LINE",
"470 -44 LINE",
"470 -23 LINE",
"499 0 LINE",
"499 221 LINE",
"430 221 LINE",
"430 516 LINE",
"499 516 LINE",
"499 737 LINE",
"33 737 LINE",
"33 516 LINE",
"104 516 LINE",
"104 221 LINE",
"33 221 LINE",
"33 0 LINE",
"362 0 LINE",
"316 -33 LINE",
"316 -127 LINE",
"404 -198 LINE"
);
}
);
width = 532;
}
);
note = Iogonek;
unicode = 012E;
},
{
glyphname = Itilde;
lastChange = "2019-09-03 21:26:07 +0000";
layers = (
{
hints = (
{
horizontal = 1;
place = "{0, 221}";
type = Stem;
},
{
horizontal = 1;
place = "{516, 221}";
type = Stem;
},
{
horizontal = 1;
place = "{789, 168}";
type = Stem;
},
{
place = "{32, 122}";
type = Stem;
},
{
place = "{377, 156}";
type = Stem;
},
{
horizontal = 1;
place = "{783, 169}";
type = Stem;
},
{
place = "{103, 326}";
type = Stem;
}
);
layerId = "59338637-1E5C-47E2-9B1C-5C70074789A9";
paths = (
{
closed = 1;
nodes = (
"440 783 LINE",
"533 859 LINE",
"533 952 LINE",
"377 952 LINE",
"377 910 LINE",
"342 910 LINE",
"287 957 LINE",
"91 957 LINE",
"-1 881 LINE",
"-1 789 LINE",
"154 789 LINE",
"154 831 LINE",
"189 831 LINE",
"244 783 LINE"
);
},
{
closed = 1;
nodes = (
"499 0 LINE",
"499 221 LINE",
"430 221 LINE",
"430 516 LINE",
"499 516 LINE",
"499 737 LINE",
"33 737 LINE",
"33 516 LINE",
"104 516 LINE",
"104 221 LINE",
"33 221 LINE",
"33 0 LINE"
);
}
);
width = 532;
}
);
note = Itilde;
unicode = 0128;
},
{
glyphname = J;
lastChange = "2019-09-03 21:22:04 +0000";
layers = (
{
hints = (
{
horizontal = 1;
place = "{0, 138}";
type = Stem;
},
{
place = "{33, 783}";
type = Stem;
}
);
layerId = "59338637-1E5C-47E2-9B1C-5C70074789A9";
paths = (
{
closed = 1;
nodes = (
"702 0 LINE",
"816 94 LINE",
"816 737 LINE",
"453 737 LINE",
"453 138 LINE",
"396 138 LINE",
"396 376 LINE",
"33 376 LINE",
"33 94 LINE",
"147 0 LINE"
);
}
);
width = 849;
}
);
leftKerningGroup = J;
note = J;
unicode = 004A;
},
{
glyphname = Jcircumflex;
lastChange = "2019-09-03 21:22:04 +0000";
layers = (
{
hints = (
{
horizontal = 1;
place = "{0, 138}";
type = Stem;
},
{
horizontal = 1;
place = "{783, 169}";
type = Stem;
},
{
place = "{33, 894}";
type = Stem;
}
);
layerId = "59338637-1E5C-47E2-9B1C-5C70074789A9";
paths = (
{
closed = 1;
nodes = (
"702 0 LINE",
"816 94 LINE",
"816 737 LINE",
"453 737 LINE",
"453 138 LINE",
"396 138 LINE",
"396 376 LINE",
"33 376 LINE",
"33 94 LINE",
"147 0 LINE"
);
},
{
closed = 1;
nodes = (
"557 783 LINE",
"635 860 LINE",
"713 783 LINE",
"927 783 LINE",
"799 952 LINE",
"471 952 LINE",
"342 783 LINE"
);
}
);
width = 849;
}
);
note = Jcircumflex;
unicode = 0134;
},
{
glyphname = K;
lastChange = "2019-09-03 21:22:04 +0000";
layers = (
{
hints = (
{
horizontal = 1;
place = "{0, 737}";
type = Stem;
},
{
place = "{33, 781}";
type = Stem;
},
{
horizontal = 1;
place = "{275, 235}";
type = Stem;
}
);
layerId = "59338637-1E5C-47E2-9B1C-5C70074789A9";
paths = (
{
closed = 1;
nodes = (
"396 0 LINE",
"396 275 LINE",
"451 275 LINE",
"451 0 LINE",
"814 0 LINE",
"814 278 LINE",
"687 393 LINE",
"814 506 LINE",
"814 737 LINE",
"451 737 LINE",
"451 510 LINE",
"396 510 LINE",
"396 737 LINE",
"33 737 LINE",
"33 0 LINE"
);
}
);
width = 847;
}
);
note = K;
rightKerningGroup = K;
unicode = 004B;
},
{
glyphname = uni0136;
lastChange = "2019-09-03 21:22:04 +0000";
layers = (
{
hints = (
{
horizontal = 1;
place = "{-229, 183}";
type = Stem;
},
{
horizontal = 1;
place = "{275, 235}";
type = Stem;
},
{
place = "{33, 781}";
type = Stem;
}
);
layerId = "59338637-1E5C-47E2-9B1C-5C70074789A9";
paths = (
{
closed = 1;
nodes = (
"396 0 LINE",
"396 275 LINE",
"451 275 LINE",
"451 0 LINE",
"814 0 LINE",
"814 278 LINE",
"687 393 LINE",
"814 506 LINE",
"814 737 LINE",
"451 737 LINE",
"451 510 LINE",
"396 510 LINE",
"396 737 LINE",
"33 737 LINE",
"33 0 LINE"
);
},
{
closed = 1;
nodes = (
"410 -229 LINE",
"561 -46 LINE",
"284 -46 LINE",
"228 -229 LINE"
);
}
);
width = 847;
}
);
note = uni0136;
rightKerningGroup = K;
unicode = 0136;
},
{
glyphname = L;
lastChange = "2019-09-03 21:22:04 +0000";
layers = (
{
hints = (
{
horizontal = 1;
place = "{0, 237}";
type = Stem;
},
{
place = "{33, 639}";
type = Stem;
}
);
layerId = "59338637-1E5C-47E2-9B1C-5C70074789A9";
paths = (
{
closed = 1;
nodes = (
"672 0 LINE",
"672 237 LINE",
"396 237 LINE",
"396 737 LINE",
"33 737 LINE",
"33 0 LINE"
);
}
);
width = 705;
}
);
note = L;
rightKerningGroup = L;
unicode = 004C;
},
{
glyphname = uni01C7;
lastChange = "2019-09-03 21:22:04 +0000";
layers = (
{
hints = (
{
horizontal = 1;
place = "{0, 237}";
type = Stem;
},
{
place = "{33, 1488}";
type = Stem;
},
{
horizontal = 1;
place = "{0, 138}";
type = Stem;
}
);
layerId = "59338637-1E5C-47E2-9B1C-5C70074789A9";
paths = (
{
closed = 1;
nodes = (
"1407 0 LINE",
"1521 94 LINE",
"1521 737 LINE",
"1158 737 LINE",
"1158 138 LINE",
"1101 138 LINE",
"1101 376 LINE",
"738 376 LINE",
"738 94 LINE",
"852 0 LINE"
);
},
{
closed = 1;
nodes = (
"672 0 LINE",
"672 237 LINE",
"396 237 LINE",
"396 737 LINE",
"33 737 LINE",
"33 0 LINE"
);
}
);
width = 1554;
}
);
note = uni01C7;
unicode = 01C7;
},
{
glyphname = Lacute;
lastChange = "2019-09-03 21:22:04 +0000";
layers = (
{
hints = (
{
horizontal = 1;
place = "{0, 237}";
type = Stem;
},
{
horizontal = 1;
place = "{783, 169}";
type = Stem;
},
{
place = "{33, 639}";
type = Stem;
}
);
layerId = "59338637-1E5C-47E2-9B1C-5C70074789A9";
paths = (
{
closed = 1;
nodes = (
"672 0 LINE",
"672 237 LINE",
"396 237 LINE",
"396 737 LINE",
"33 737 LINE",
"33 0 LINE"
);
},
{
closed = 1;
nodes = (
"328 783 LINE",
"499 952 LINE",
"235 952 LINE",
"122 783 LINE"
);
}
);
width = 705;
}
);
note = Lacute;
rightKerningGroup = L;
unicode = 0139;
},
{
glyphname = Lcaron;
lastChange = "2019-09-03 21:22:04 +0000";
layers = (
{
hints = (
{
horizontal = 1;
place = "{0, 237}";
type = Stem;
},
{
horizontal = 1;
place = "{554, 183}";
type = Stem;
},
{
place = "{33, 729}";
type = Stem;
}
);
layerId = "59338637-1E5C-47E2-9B1C-5C70074789A9";
paths = (
{
closed = 1;
nodes = (
"672 0 LINE",
"672 237 LINE",
"396 237 LINE",
"396 737 LINE",
"33 737 LINE",
"33 0 LINE"
);
},
{
closed = 1;
nodes = (
"611 554 LINE",
"762 737 LINE",
"485 737 LINE",
"429 554 LINE"
);
}
);
width = 705;
}
);
note = Lcaron;
rightKerningGroup = L;
unicode = 013D;
},
{
glyphname = uni013B;
lastChange = "2019-09-03 21:22:04 +0000";
layers = (
{
hints = (
{
horizontal = 1;
place = "{-229, 183}";
type = Stem;
},
{
horizontal = 1;
place = "{0, 237}";
type = Stem;
},
{
place = "{33, 639}";
type = Stem;
}
);
layerId = "59338637-1E5C-47E2-9B1C-5C70074789A9";
paths = (
{
closed = 1;
nodes = (
"672 0 LINE",
"672 237 LINE",
"396 237 LINE",
"396 737 LINE",
"33 737 LINE",
"33 0 LINE"
);
},
{
closed = 1;
nodes = (
"350 -229 LINE",
"501 -46 LINE",
"224 -46 LINE",
"168 -229 LINE"
);
}
);
width = 705;
}
);
note = uni013B;
rightKerningGroup = L;
unicode = 013B;
},
{
glyphname = Ldot;
lastChange = "2019-09-03 21:22:04 +0000";
layers = (
{
hints = (
{
horizontal = 1;
place = "{0, 237}";
type = Stem;
},
{
horizontal = 1;
place = "{331, 217}";
type = Stem;
},
{
place = "{455, 217}";
type = Stem;
}
);
layerId = "59338637-1E5C-47E2-9B1C-5C70074789A9";
paths = (
{
closed = 1;
nodes = (
"672 0 LINE",
"672 237 LINE",
"396 237 LINE",
"396 737 LINE",
"33 737 LINE",
"33 0 LINE"
);
},
{
closed = 1;
nodes = (
"672 331 LINE",
"672 548 LINE",
"455 548 LINE",
"455 331 LINE"
);
}
);
width = 705;
}
);
note = Ldot;
unicode = 013F;
},
{
glyphname = uni01C8;
lastChange = "2019-09-03 21:22:04 +0000";
layers = (
{
hints = (
{
horizontal = 1;
place = "{-187, 126}";
type = Stem;
},
{
horizontal = 1;
place = "{0, 237}";
type = Stem;
},
{
horizontal = 1;
place = "{569, 168}";
type = Stem;
},
{
place = "{651, 21}";
type = Stem;
},
{
place = "{734, 306}";
type = Stem;
}
);
layerId = "59338637-1E5C-47E2-9B1C-5C70074789A9";
paths = (
{
closed = 1;
nodes = (
"672 0 LINE",
"672 237 LINE",
"396 237 LINE",
"396 737 LINE",
"33 737 LINE",
"33 0 LINE"
);
},
{
closed = 1;
nodes = (
"926 -187 LINE",
"1040 -94 LINE",
"1040 523 LINE",
"734 523 LINE",
"734 -61 LINE",
"651 -61 LINE",
"651 -187 LINE"
);
},
{
closed = 1;
nodes = (
"1040 569 LINE",
"1040 737 LINE",
"733 737 LINE",
"733 569 LINE"
);
}
);
width = 1073;
}
);
note = uni01C8;
unicode = 01C8;
},
{
glyphname = Lslash;
lastChange = "2019-09-03 21:26:48 +0000";
layers = (
{
hints = (
{
horizontal = 1;
place = "{0, 237}";
type = Stem;
},
{
place = "{-33, 705}";
type = Stem;
}
);
layerId = "59338637-1E5C-47E2-9B1C-5C70074789A9";
paths = (
{
closed = 1;
nodes = (
"705 0 LINE",
"705 237 LINE",
"429 237 LINE",
"429 367 LINE",
"559 424 LINE",
"559 592 LINE",
"429 535 LINE",
"429 737 LINE",
"66 737 LINE",
"66 376 LINE",
"0 347 LINE",
"0 178 LINE",
"66 207 LINE",
"66 0 LINE"
);
}
);
width = 738;
}
);
note = Lslash;
rightKerningGroup = L;
unicode = 0141;
},
{
glyphname = M;
lastChange = "2019-09-03 21:22:04 +0000";
layers = (
{
hints = (
{
horizontal = 1;
place = "{0, 737}";
type = Stem;
},
{
place = "{33, 960}";
type = Stem;
}
);
layerId = "59338637-1E5C-47E2-9B1C-5C70074789A9";
paths = (
{
closed = 1;
nodes = (
"396 0 LINE",
"396 268 LINE",
"467 61 LINE",
"559 61 LINE",
"630 268 LINE",
"630 0 LINE",
"993 0 LINE",
"993 737 LINE",
"587 737 LINE",
"513 475 LINE",
"439 737 LINE",
"33 737 LINE",
"33 0 LINE"
);
}
);
width = 1026;
}
);
note = M;
unicode = 004D;
},
{
glyphname = N;
lastChange = "2019-09-03 21:27:58 +0000";
layers = (
{
hints = (
{
horizontal = 1;
place = "{0, 737}";
type = Stem;
},
{
place = "{33, 798}";
type = Stem;
}
);
layerId = "59338637-1E5C-47E2-9B1C-5C70074789A9";
paths = (
{
closed = 1;
nodes = (
"396 0 LINE",
"396 233 LINE",
"468 0 LINE",
"831 0 LINE",
"831 737 LINE",
"468 737 LINE",
"468 504 LINE",
"397 737 LINE",
"33 737 LINE",
"33 0 LINE"
);
}
);
width = 864;
}
);
note = N;
unicode = 004E;
},
{
glyphname = uni01CA;
lastChange = "2019-09-03 21:28:07 +0000";
layers = (
{
hints = (
{
horizontal = 1;
place = "{0, 138}";
type = Stem;
},
{
place = "{33, 1647}";
type = Stem;
}
);
layerId = "59338637-1E5C-47E2-9B1C-5C70074789A9";
paths = (
{
closed = 1;
nodes = (
"1566 0 LINE",
"1680 94 LINE",
"1680 737 LINE",
"1317 737 LINE",
"1317 138 LINE",
"1260 138 LINE",
"1260 376 LINE",
"897 376 LINE",
"897 94 LINE",
"1011 0 LINE"
);
},
{
closed = 1;
nodes = (
"396 0 LINE",
"396 233 LINE",
"468 0 LINE",
"831 0 LINE",
"831 737 LINE",
"468 737 LINE",
"468 504 LINE",
"397 737 LINE",
"33 737 LINE",
"33 0 LINE"
);
}
);
width = 1713;
}
);
note = uni01CA;
unicode = 01CA;
},
{
glyphname = Nacute;
lastChange = "2019-09-03 21:28:10 +0000";
layers = (
{
hints = (
{
horizontal = 1;
place = "{783, 169}";
type = Stem;
},
{
place = "{33, 798}";
type = Stem;
}
);
layerId = "59338637-1E5C-47E2-9B1C-5C70074789A9";
paths = (
{
closed = 1;
nodes = (
"547 783 LINE",
"718 952 LINE",
"454 952 LINE",
"341 783 LINE"
);
},
{
closed = 1;
nodes = (
"396 0 LINE",
"396 233 LINE",
"468 0 LINE",
"831 0 LINE",
"831 737 LINE",
"468 737 LINE",
"468 504 LINE",
"397 737 LINE",
"33 737 LINE",
"33 0 LINE"
);
}
);
width = 864;
}
);
note = Nacute;
unicode = 0143;
},
{
glyphname = Ncaron;
lastChange = "2019-09-03 21:28:13 +0000";
layers = (
{
hints = (
{
horizontal = 1;
place = "{783, 169}";
type = Stem;
},
{
place = "{33, 798}";
type = Stem;
}
);
layerId = "59338637-1E5C-47E2-9B1C-5C70074789A9";
paths = (
{
closed = 1;
nodes = (
"596 783 LINE",
"725 952 LINE",
"510 952 LINE",
"432 875 LINE",
"354 952 LINE",
"140 952 LINE",
"268 783 LINE"
);
},
{
closed = 1;
nodes = (
"396 0 LINE",
"396 233 LINE",
"468 0 LINE",
"831 0 LINE",
"831 737 LINE",
"468 737 LINE",
"468 504 LINE",
"397 737 LINE",
"33 737 LINE",
"33 0 LINE"
);
}
);
width = 864;
}
);
note = Ncaron;
unicode = 0147;
},
{
glyphname = uni0145;
lastChange = "2019-09-03 21:28:17 +0000";
layers = (
{
hints = (
{
horizontal = 1;
place = "{-229, 183}";
type = Stem;
},
{
place = "{33, 798}";
type = Stem;
}
);
layerId = "59338637-1E5C-47E2-9B1C-5C70074789A9";
paths = (
{
closed = 1;
nodes = (
"420 -229 LINE",
"571 -46 LINE",
"294 -46 LINE",
"238 -229 LINE"
);
},
{
closed = 1;
nodes = (
"396 0 LINE",
"396 233 LINE",
"468 0 LINE",
"831 0 LINE",
"831 737 LINE",
"468 737 LINE",
"468 504 LINE",
"397 737 LINE",
"33 737 LINE",
"33 0 LINE"
);
}
);
width = 864;
}
);
note = uni0145;
unicode = 0145;
},
{
glyphname = Eng;
lastChange = "2019-09-03 21:29:15 +0000";
layers = (
{
hints = (
{
horizontal = 1;
place = "{-187, 126}";
type = Stem;
},
{
place = "{385, 11}";
type = Stem;
}
);
layerId = "59338637-1E5C-47E2-9B1C-5C70074789A9";
paths = (
{
closed = 1;
nodes = (
"396 0 LINE",
"396 233 LINE",
"467 3 LINE",
"467 -61 LINE",
"385 -61 LINE",
"385 -187 LINE",
"716 -187 LINE",
"830 -94 LINE",
"831 737 LINE",
"468 737 LINE",
"468 504 LINE",
"397 737 LINE",
"33 737 LINE",
"33 0 LINE"
);
}
);
width = 864;
}
);
note = Eng;
unicode = 014A;
},
{
glyphname = uni01CB;
lastChange = "2019-09-03 21:29:29 +0000";
layers = (
{
hints = (
{
horizontal = 1;
place = "{-187, 126}";
type = Stem;
},
{
horizontal = 1;
place = "{569, 168}";
type = Stem;
},
{
place = "{808, 23}";
type = Stem;
},
{
place = "{891, 306}";
type = Stem;
}
);
layerId = "59338637-1E5C-47E2-9B1C-5C70074789A9";
paths = (
{
closed = 1;
nodes = (
"1083 -187 LINE",
"1197 -94 LINE",
"1197 523 LINE",
"891 523 LINE",
"891 -61 LINE",
"808 -61 LINE",
"808 -187 LINE"
);
},
{
closed = 1;
nodes = (
"1197 569 LINE",
"1197 737 LINE",
"890 737 LINE",
"890 569 LINE"
);
},
{
closed = 1;
nodes = (
"396 0 LINE",
"396 233 LINE",
"468 0 LINE",
"831 0 LINE",
"831 737 LINE",
"468 737 LINE",
"468 504 LINE",
"397 737 LINE",
"33 737 LINE",
"33 0 LINE"
);
}
);
width = 1230;
}
);
note = uni01CB;
unicode = 01CB;
},
{
glyphname = Ntilde;
lastChange = "2019-09-03 21:29:32 +0000";
layers = (
{
hints = (
{
horizontal = 1;
place = "{789, 168}";
type = Stem;
},
{
place = "{166, 155}";
type = Stem;
},
{
place = "{544, 156}";
type = Stem;
},
{
horizontal = 1;
place = "{783, 169}";
type = Stem;
}
);
layerId = "59338637-1E5C-47E2-9B1C-5C70074789A9";
paths = (
{
closed = 1;
nodes = (
"607 783 LINE",
"700 859 LINE",
"700 952 LINE",
"544 952 LINE",
"544 910 LINE",
"509 910 LINE",
"454 957 LINE",
"258 957 LINE",
"166 881 LINE",
"166 789 LINE",
"321 789 LINE",
"321 831 LINE",
"356 831 LINE",
"411 783 LINE"
);
},
{
closed = 1;
nodes = (
"396 0 LINE",
"396 233 LINE",
"468 0 LINE",
"831 0 LINE",
"831 737 LINE",
"468 737 LINE",
"468 504 LINE",
"397 737 LINE",
"33 737 LINE",
"33 0 LINE"
);
}
);
width = 864;
}
);
note = Ntilde;
unicode = 00D1;
},
{
glyphname = O;
lastChange = "2019-09-03 21:22:04 +0000";
layers = (
{
hints = (
{
horizontal = 1;
place = "{0, 138}";
type = Stem;
},
{
horizontal = 1;
place = "{601, 137}";
type = Stem;
},
{
place = "{33, 783}";
type = Stem;
}
);
layerId = "59338637-1E5C-47E2-9B1C-5C70074789A9";
paths = (
{
closed = 1;
nodes = (
"702 0 LINE",
"816 94 LINE",
"816 645 LINE",
"702 738 LINE",
"147 738 LINE",
"33 645 LINE",
"33 94 LINE",
"147 0 LINE"
);
},
{
closed = 1;
nodes = (
"396 601 LINE",
"453 601 LINE",
"453 138 LINE",
"396 138 LINE"
);
}
);
width = 849;
}
);
note = O;
unicode = 004F;
},
{
glyphname = Oacute;
lastChange = "2019-09-03 21:22:04 +0000";
layers = (
{
hints = (
{
horizontal = 1;
place = "{0, 138}";
type = Stem;
},
{
horizontal = 1;
place = "{601, 137}";
type = Stem;
},
{
horizontal = 1;
place = "{783, 169}";
type = Stem;
},
{
place = "{33, 783}";
type = Stem;
}
);
layerId = "59338637-1E5C-47E2-9B1C-5C70074789A9";
paths = (
{
closed = 1;
nodes = (
"702 0 LINE",
"816 94 LINE",
"816 645 LINE",
"702 738 LINE",
"147 738 LINE",
"33 645 LINE",
"33 94 LINE",
"147 0 LINE"
);
},
{
closed = 1;
nodes = (
"396 601 LINE",
"453 601 LINE",
"453 138 LINE",
"396 138 LINE"
);
},
{
closed = 1;
nodes = (
"539 783 LINE",
"710 952 LINE",
"446 952 LINE",
"333 783 LINE"
);
}
);
width = 849;
}
);
note = Oacute;
unicode = 00D3;
},
{
glyphname = Obreve;
lastChange = "2019-09-03 21:22:04 +0000";
layers = (
{
hints = (
{
horizontal = 1;
place = "{0, 138}";
type = Stem;
},
{
horizontal = 1;
place = "{601, 137}";
type = Stem;
},
{
horizontal = 1;
place = "{783, 169}";
type = Stem;
},
{
place = "{154, 226}";
type = Stem;
},
{
place = "{470, 225}";
type = Stem;
}
);
layerId = "59338637-1E5C-47E2-9B1C-5C70074789A9";
paths = (
{
closed = 1;
nodes = (
"702 0 LINE",
"816 94 LINE",
"816 645 LINE",
"702 738 LINE",
"147 738 LINE",
"33 645 LINE",
"33 94 LINE",
"147 0 LINE"
);
},
{
closed = 1;
nodes = (
"396 601 LINE",
"453 601 LINE",
"453 138 LINE",
"396 138 LINE"
);
},
{
closed = 1;
nodes = (
"581 783 LINE",
"695 877 LINE",
"695 952 LINE",
"470 952 LINE",
"470 904 LINE",
"380 904 LINE",
"380 952 LINE",
"154 952 LINE",
"154 877 LINE",
"268 783 LINE"
);
}
);
width = 849;
}
);
note = Obreve;
unicode = 014E;
},
{
glyphname = Ocircumflex;
lastChange = "2019-09-03 21:22:04 +0000";
layers = (
{
hints = (
{
horizontal = 1;
place = "{0, 138}";
type = Stem;
},
{
horizontal = 1;
place = "{601, 137}";
type = Stem;
},
{
horizontal = 1;
place = "{783, 169}";
type = Stem;
},
{
place = "{33, 783}";
type = Stem;
}
);
layerId = "59338637-1E5C-47E2-9B1C-5C70074789A9";
paths = (
{
closed = 1;
nodes = (
"702 0 LINE",
"816 94 LINE",
"816 645 LINE",
"702 738 LINE",
"147 738 LINE",
"33 645 LINE",
"33 94 LINE",
"147 0 LINE"
);
},
{
closed = 1;
nodes = (
"396 601 LINE",
"453 601 LINE",
"453 138 LINE",
"396 138 LINE"
);
},
{
closed = 1;
nodes = (
"347 783 LINE",
"425 860 LINE",
"503 783 LINE",
"717 783 LINE",
"589 952 LINE",
"261 952 LINE",
"132 783 LINE"
);
}
);
width = 849;
}
);
note = Ocircumflex;
unicode = 00D4;
},
{
glyphname = uni1ED0;
lastChange = "2019-09-03 21:30:11 +0000";
layers = (
{
hints = (
{
horizontal = 1;
place = "{0, 138}";
type = Stem;
},
{
horizontal = 1;
place = "{601, 137}";
type = Stem;
},
{
horizontal = 1;
place = "{880, 169}";
type = Stem;
},
{
place = "{33, 1028}";
type = Stem;
},
{
horizontal = 1;
place = "{783, 169}";
type = Stem;
}
);
layerId = "59338637-1E5C-47E2-9B1C-5C70074789A9";
paths = (
{
closed = 1;
nodes = (
"702 0 LINE",
"816 94 LINE",
"816 645 LINE",
"702 738 LINE",
"147 738 LINE",
"33 645 LINE",
"33 94 LINE",
"147 0 LINE"
);
},
{
closed = 1;
nodes = (
"396 601 LINE",
"453 601 LINE",
"453 138 LINE",
"396 138 LINE"
);
},
{
closed = 1;
nodes = (
"347 783 LINE",
"425 860 LINE",
"503 783 LINE",
"718 783 LINE",
"589 952 LINE",
"261 952 LINE",
"133 783 LINE"
);
},
{
closed = 1;
nodes = (
"890 880 LINE",
"1061 1049 LINE",
"797 1049 LINE",
"684 880 LINE"
);
}
);
width = 849;
}
);
note = uni1ED0;
unicode = 1ED0;
},
{
glyphname = uni1ED8;
lastChange = "2019-09-03 21:22:04 +0000";
layers = (
{
hints = (
{
horizontal = 1;
place = "{-215, 169}";
type = Stem;
},
{
horizontal = 1;
place = "{0, 138}";
type = Stem;
},
{
horizontal = 1;
place = "{601, 137}";
type = Stem;
},
{
horizontal = 1;
place = "{783, 169}";
type = Stem;
},
{
place = "{271, 125}";
type = Stem;
},
{
place = "{453, 125}";
type = Stem;
}
);
layerId = "59338637-1E5C-47E2-9B1C-5C70074789A9";
paths = (
{
closed = 1;
nodes = (
"702 0 LINE",
"816 94 LINE",
"816 645 LINE",
"702 738 LINE",
"147 738 LINE",
"33 645 LINE",
"33 94 LINE",
"147 0 LINE"
);
},
{
closed = 1;
nodes = (
"578 -215 LINE",
"578 -46 LINE",
"271 -46 LINE",
"271 -215 LINE"
);
},
{
closed = 1;
nodes = (
"396 601 LINE",
"453 601 LINE",
"453 138 LINE",
"396 138 LINE"
);
},
{
closed = 1;
nodes = (
"347 783 LINE",
"425 860 LINE",
"503 783 LINE",
"717 783 LINE",
"589 952 LINE",
"261 952 LINE",
"132 783 LINE"
);
}
);
width = 849;
}
);
note = uni1ED8;
unicode = 1ED8;
},
{
glyphname = uni1ED2;
lastChange = "2019-09-03 21:22:04 +0000";
layers = (
{
hints = (
{
horizontal = 1;
place = "{0, 138}";
type = Stem;
},
{
horizontal = 1;
place = "{601, 137}";
type = Stem;
},
{
horizontal = 1;
place = "{880, 169}";
type = Stem;
},
{
place = "{-211, 1027}";
type = Stem;
},
{
horizontal = 1;
place = "{783, 169}";
type = Stem;
}
);
layerId = "59338637-1E5C-47E2-9B1C-5C70074789A9";
paths = (
{
closed = 1;
nodes = (
"702 0 LINE",
"816 94 LINE",
"816 645 LINE",
"702 738 LINE",
"147 738 LINE",
"33 645 LINE",
"33 94 LINE",
"147 0 LINE"
);
},
{
closed = 1;
nodes = (
"396 601 LINE",
"453 601 LINE",
"453 138 LINE",
"396 138 LINE"
);
},
{
closed = 1;
nodes = (
"166 880 LINE",
"53 1049 LINE",
"-211 1049 LINE",
"-40 880 LINE"
);
},
{
closed = 1;
nodes = (
"347 783 LINE",
"425 860 LINE",
"503 783 LINE",
"717 783 LINE",
"589 952 LINE",
"261 952 LINE",
"132 783 LINE"
);
}
);
width = 849;
}
);
note = uni1ED2;
unicode = 1ED2;
},
{
glyphname = uni1ED4;
lastChange = "2019-09-03 21:30:33 +0000";
layers = (
{
hints = (
{
horizontal = 1;
place = "{0, 138}";
type = Stem;
},
{
horizontal = 1;
place = "{601, 137}";
type = Stem;
},
{
horizontal = 1;
place = "{783, 169}";
type = Stem;
},
{
horizontal = 1;
place = "{1006, 122}";
type = Stem;
},
{
place = "{584, 179}";
type = Stem;
},
{
place = "{802, 184}";
type = Stem;
},
{
horizontal = 1;
place = "{880, 98}";
type = Stem;
}
);
layerId = "59338637-1E5C-47E2-9B1C-5C70074789A9";
paths = (
{
closed = 1;
nodes = (
"702 0 LINE",
"816 94 LINE",
"816 645 LINE",
"702 738 LINE",
"147 738 LINE",
"33 645 LINE",
"33 94 LINE",
"147 0 LINE"
);
},
{
closed = 1;
nodes = (
"396 601 LINE",
"453 601 LINE",
"453 138 LINE",
"396 138 LINE"
);
},
{
closed = 1;
nodes = (
"347 783 LINE",
"425 860 LINE",
"503 783 LINE",
"717 783 LINE",
"589 952 LINE",
"261 952 LINE",
"132 783 LINE"
);
},
{
closed = 1;
nodes = (
"892 880 LINE",
"892 912 LINE",
"932 912 LINE",
"986 966 LINE",
"986 1073 LINE",
"921 1128 LINE",
"649 1128 LINE",
"584 1073 LINE",
"584 1006 LINE",
"763 1006 LINE",
"763 1058 LINE",
"802 1058 LINE",
"802 978 LINE",
"718 978 LINE",
"672 932 LINE",
"672 880 LINE"
);
}
);
width = 849;
}
);
note = uni1ED4;
unicode = 1ED4;
},
{
glyphname = uni1ED6;
lastChange = "2019-09-03 21:22:04 +0000";
layers = (
{
hints = (
{
horizontal = 1;
place = "{0, 138}";
type = Stem;
},
{
horizontal = 1;
place = "{601, 137}";
type = Stem;
},
{
horizontal = 1;
place = "{783, 169}";
type = Stem;
},
{
horizontal = 1;
place = "{987, 168}";
type = Stem;
},
{
place = "{159, 155}";
type = Stem;
},
{
place = "{537, 156}";
type = Stem;
},
{
horizontal = 1;
place = "{981, 169}";
type = Stem;
}
);
layerId = "59338637-1E5C-47E2-9B1C-5C70074789A9";
paths = (
{
closed = 1;
nodes = (
"702 0 LINE",
"816 94 LINE",
"816 645 LINE",
"702 738 LINE",
"147 738 LINE",
"33 645 LINE",
"33 94 LINE",
"147 0 LINE"
);
},
{
closed = 1;
nodes = (
"396 601 LINE",
"453 601 LINE",
"453 138 LINE",
"396 138 LINE"
);
},
{
closed = 1;
nodes = (
"347 783 LINE",
"425 860 LINE",
"503 783 LINE",
"717 783 LINE",
"589 952 LINE",
"261 952 LINE",
"132 783 LINE"
);
},
{
closed = 1;
nodes = (
"600 981 LINE",
"693 1057 LINE",
"693 1150 LINE",
"537 1150 LINE",
"537 1108 LINE",
"502 1108 LINE",
"447 1155 LINE",
"251 1155 LINE",
"159 1079 LINE",
"159 987 LINE",
"314 987 LINE",
"314 1029 LINE",
"349 1029 LINE",
"404 981 LINE"
);
}
);
width = 849;
}
);
note = uni1ED6;
unicode = 1ED6;
},
{
glyphname = uni020C;
lastChange = "2019-09-03 21:22:04 +0000";
layers = (
{
hints = (
{
horizontal = 1;
place = "{0, 138}";
type = Stem;
},
{
horizontal = 1;
place = "{601, 137}";
type = Stem;
},
{
horizontal = 1;
place = "{783, 169}";
type = Stem;
},
{
place = "{11, 805}";
type = Stem;
}
);
layerId = "59338637-1E5C-47E2-9B1C-5C70074789A9";
paths = (
{
closed = 1;
nodes = (
"702 0 LINE",
"816 94 LINE",
"816 645 LINE",
"702 738 LINE",
"147 738 LINE",
"33 645 LINE",
"33 94 LINE",
"147 0 LINE"
);
},
{
closed = 1;
nodes = (
"396 601 LINE",
"453 601 LINE",
"453 138 LINE",
"396 138 LINE"
);
},
{
closed = 1;
nodes = (
"377 783 LINE",
"264 952 LINE",
"11 952 LINE",
"183 783 LINE"
);
},
{
closed = 1;
nodes = (
"666 783 LINE",
"552 952 LINE",
"299 952 LINE",
"471 783 LINE"
);
}
);
width = 849;
}
);
note = uni020C;
unicode = 020C;
},
{
glyphname = Odieresis;
lastChange = "2019-09-03 21:22:04 +0000";
layers = (
{
hints = (
{
horizontal = 1;
place = "{0, 138}";
type = Stem;
},
{
horizontal = 1;
place = "{601, 137}";
type = Stem;
},
{
horizontal = 1;
place = "{783, 169}";
type = Stem;
},
{
place = "{129, 274}";
type = Stem;
},
{
place = "{449, 274}";
type = Stem;
}
);
layerId = "59338637-1E5C-47E2-9B1C-5C70074789A9";
paths = (
{
closed = 1;
nodes = (
"702 0 LINE",
"816 94 LINE",
"816 645 LINE",
"702 738 LINE",
"147 738 LINE",
"33 645 LINE",
"33 94 LINE",
"147 0 LINE"
);
},
{
closed = 1;
nodes = (
"396 601 LINE",
"453 601 LINE",
"453 138 LINE",
"396 138 LINE"
);
},
{
closed = 1;
nodes = (
"403 783 LINE",
"403 952 LINE",
"129 952 LINE",
"129 783 LINE"
);
},
{
closed = 1;
nodes = (
"723 783 LINE",
"723 952 LINE",
"449 952 LINE",
"449 783 LINE"
);
}
);
width = 849;
}
);
note = Odieresis;
unicode = 00D6;
},
{
glyphname = uni022A;
lastChange = "2019-09-03 21:22:04 +0000";
layers = (
{
hints = (
{
horizontal = 1;
place = "{0, 138}";
type = Stem;
},
{
horizontal = 1;
place = "{601, 137}";
type = Stem;
},
{
horizontal = 1;
place = "{783, 169}";
type = Stem;
},
{
horizontal = 1;
place = "{984, 169}";
type = Stem;
},
{
place = "{129, 274}";
type = Stem;
},
{
place = "{449, 274}";
type = Stem;
}
);
layerId = "59338637-1E5C-47E2-9B1C-5C70074789A9";
paths = (
{
closed = 1;
nodes = (
"702 0 LINE",
"816 94 LINE",
"816 645 LINE",
"702 738 LINE",
"147 738 LINE",
"33 645 LINE",
"33 94 LINE",
"147 0 LINE"
);
},
{
closed = 1;
nodes = (
"396 601 LINE",
"453 601 LINE",
"453 138 LINE",
"396 138 LINE"
);
},
{
closed = 1;
nodes = (
"403 783 LINE",
"403 952 LINE",
"129 952 LINE",
"129 783 LINE"
);
},
{
closed = 1;
nodes = (
"723 783 LINE",
"723 952 LINE",
"449 952 LINE",
"449 783 LINE"
);
},
{
closed = 1;
nodes = (
"722 984 LINE",
"722 1153 LINE",
"128 1153 LINE",
"128 984 LINE"
);
}
);
width = 849;
}
);
note = uni022A;
unicode = 022A;
},
{
glyphname = uni0230;
lastChange = "2019-09-03 21:22:04 +0000";
layers = (
{
hints = (
{
horizontal = 1;
place = "{0, 138}";
type = Stem;
},
{
horizontal = 1;
place = "{601, 137}";
type = Stem;
},
{
horizontal = 1;
place = "{783, 168}";
type = Stem;
},
{
horizontal = 1;
place = "{984, 169}";
type = Stem;
},
{
place = "{271, 125}";
type = Stem;
},
{
place = "{453, 125}";
type = Stem;
}
);
layerId = "59338637-1E5C-47E2-9B1C-5C70074789A9";
paths = (
{
closed = 1;
nodes = (
"702 0 LINE",
"816 94 LINE",
"816 645 LINE",
"702 738 LINE",
"147 738 LINE",
"33 645 LINE",
"33 94 LINE",
"147 0 LINE"
);
},
{
closed = 1;
nodes = (
"396 601 LINE",
"453 601 LINE",
"453 138 LINE",
"396 138 LINE"
);
},
{
closed = 1;
nodes = (
"578 783 LINE",
"578 951 LINE",
"271 951 LINE",
"271 783 LINE"
);
},
{
closed = 1;
nodes = (
"722 984 LINE",
"722 1153 LINE",
"128 1153 LINE",
"128 984 LINE"
);
}
);
width = 849;
}
);
note = uni0230;
unicode = 0230;
},
{
glyphname = uni1ECC;
lastChange = "2019-09-03 21:22:04 +0000";
layers = (
{
hints = (
{
horizontal = 1;
place = "{-215, 169}";
type = Stem;
},
{
horizontal = 1;
place = "{0, 138}";
type = Stem;
},
{
horizontal = 1;
place = "{601, 137}";
type = Stem;
},
{
place = "{271, 125}";
type = Stem;
},
{
place = "{453, 125}";
type = Stem;
}
);
layerId = "59338637-1E5C-47E2-9B1C-5C70074789A9";
paths = (
{
closed = 1;
nodes = (
"702 0 LINE",
"816 94 LINE",
"816 645 LINE",
"702 738 LINE",
"147 738 LINE",
"33 645 LINE",
"33 94 LINE",
"147 0 LINE"
);
},
{
closed = 1;
nodes = (
"578 -215 LINE",
"578 -46 LINE",
"271 -46 LINE",
"271 -215 LINE"
);
},
{
closed = 1;
nodes = (
"396 601 LINE",
"453 601 LINE",
"453 138 LINE",
"396 138 LINE"
);
}
);
width = 849;
}
);
note = uni1ECC;
unicode = 1ECC;
},
{
glyphname = Ograve;
lastChange = "2019-09-03 21:22:04 +0000";
layers = (
{
hints = (
{
horizontal = 1;
place = "{0, 138}";
type = Stem;
},
{
horizontal = 1;
place = "{601, 137}";
type = Stem;
},
{
horizontal = 1;
place = "{783, 169}";
type = Stem;
},
{
place = "{33, 783}";
type = Stem;
}
);
layerId = "59338637-1E5C-47E2-9B1C-5C70074789A9";
paths = (
{
closed = 1;
nodes = (
"702 0 LINE",
"816 94 LINE",
"816 645 LINE",
"702 738 LINE",
"147 738 LINE",
"33 645 LINE",
"33 94 LINE",
"147 0 LINE"
);
},
{
closed = 1;
nodes = (
"396 601 LINE",
"453 601 LINE",
"453 138 LINE",
"396 138 LINE"
);
},
{
closed = 1;
nodes = (
"527 783 LINE",
"414 952 LINE",
"150 952 LINE",
"321 783 LINE"
);
}
);
width = 849;
}
);
note = Ograve;
unicode = 00D2;
},
{
glyphname = uni1ECE;
lastChange = "2019-09-03 21:22:04 +0000";
layers = (
{
hints = (
{
horizontal = 1;
place = "{0, 138}";
type = Stem;
},
{
horizontal = 1;
place = "{601, 137}";
type = Stem;
},
{
horizontal = 1;
place = "{908, 122}";
type = Stem;
},
{
place = "{227, 179}";
type = Stem;
},
{
place = "{445, 184}";
type = Stem;
},
{
horizontal = 1;
place = "{782, 98}";
type = Stem;
}
);
layerId = "59338637-1E5C-47E2-9B1C-5C70074789A9";
paths = (
{
closed = 1;
nodes = (
"702 0 LINE",
"816 94 LINE",
"816 645 LINE",
"702 738 LINE",
"147 738 LINE",
"33 645 LINE",
"33 94 LINE",
"147 0 LINE"
);
},
{
closed = 1;
nodes = (
"396 601 LINE",
"453 601 LINE",
"453 138 LINE",
"396 138 LINE"
);
},
{
closed = 1;
nodes = (
"535 782 LINE",
"535 814 LINE",
"575 814 LINE",
"629 868 LINE",
"629 975 LINE",
"564 1030 LINE",
"292 1030 LINE",
"227 975 LINE",
"227 908 LINE",
"406 908 LINE",
"406 960 LINE",
"445 960 LINE",
"445 880 LINE",
"361 880 LINE",
"315 834 LINE",
"315 782 LINE"
);
}
);
width = 849;
}
);
note = uni1ECE;
unicode = 1ECE;
},
{
glyphname = Ohorn;
lastChange = "2019-09-03 21:22:04 +0000";
layers = (
{
hints = (
{
horizontal = 1;
place = "{0, 138}";
type = Stem;
},
{
horizontal = 1;
place = "{601, 137}";
type = Stem;
},
{
place = "{33, 1065}";
type = Stem;
},
{
horizontal = 1;
place = "{595, 206}";
type = Stem;
}
);
layerId = "59338637-1E5C-47E2-9B1C-5C70074789A9";
paths = (
{
closed = 1;
nodes = (
"702 0 LINE",
"816 94 LINE",
"816 595 LINE",
"936 595 LINE",
"1098 801 LINE",
"821 801 LINE",
"801 689 LINE",
"762 689 LINE",
"702 738 LINE",
"147 738 LINE",
"33 645 LINE",
"33 94 LINE",
"147 0 LINE"
);
},
{
closed = 1;
nodes = (
"396 601 LINE",
"453 601 LINE",
"453 138 LINE",
"396 138 LINE"
);
}
);
width = 849;
}
);
note = Ohorn;
unicode = 01A0;
},
{
glyphname = uni1EDA;
lastChange = "2019-09-03 21:22:04 +0000";
layers = (
{
hints = (
{
horizontal = 1;
place = "{0, 138}";
type = Stem;
},
{
horizontal = 1;
place = "{601, 137}";
type = Stem;
},
{
horizontal = 1;
place = "{783, 169}";
type = Stem;
},
{
place = "{33, 1065}";
type = Stem;
},
{
horizontal = 1;
place = "{595, 206}";
type = Stem;
}
);
layerId = "59338637-1E5C-47E2-9B1C-5C70074789A9";
paths = (
{
closed = 1;
nodes = (
"702 0 LINE",
"816 94 LINE",
"816 595 LINE",
"936 595 LINE",
"1098 801 LINE",
"821 801 LINE",
"801 689 LINE",
"762 689 LINE",
"702 738 LINE",
"147 738 LINE",
"33 645 LINE",
"33 94 LINE",
"147 0 LINE"
);
},
{
closed = 1;
nodes = (
"396 601 LINE",
"453 601 LINE",
"453 138 LINE",
"396 138 LINE"
);
},
{
closed = 1;
nodes = (
"539 783 LINE",
"710 952 LINE",
"446 952 LINE",
"333 783 LINE"
);
}
);
width = 849;
}
);
note = uni1EDA;
unicode = 1EDA;
},
{
glyphname = uni1EE2;
lastChange = "2019-09-03 21:22:04 +0000";
layers = (
{
hints = (
{
horizontal = 1;
place = "{-215, 169}";
type = Stem;
},
{
horizontal = 1;
place = "{0, 138}";
type = Stem;
},
{
horizontal = 1;
place = "{601, 137}";
type = Stem;
},
{
place = "{271, 125}";
type = Stem;
},
{
place = "{453, 125}";
type = Stem;
},
{
horizontal = 1;
place = "{595, 206}";
type = Stem;
}
);
layerId = "59338637-1E5C-47E2-9B1C-5C70074789A9";
paths = (
{
closed = 1;
nodes = (
"702 0 LINE",
"816 94 LINE",
"816 595 LINE",
"936 595 LINE",
"1098 801 LINE",
"821 801 LINE",
"801 689 LINE",
"762 689 LINE",
"702 738 LINE",
"147 738 LINE",
"33 645 LINE",
"33 94 LINE",
"147 0 LINE"
);
},
{
closed = 1;
nodes = (
"578 -215 LINE",
"578 -46 LINE",
"271 -46 LINE",
"271 -215 LINE"
);
},
{
closed = 1;
nodes = (
"396 601 LINE",
"453 601 LINE",
"453 138 LINE",
"396 138 LINE"
);
}
);
width = 849;
}
);
note = uni1EE2;
unicode = 1EE2;
},
{
glyphname = uni1EDC;
lastChange = "2019-09-03 21:22:04 +0000";
layers = (
{
hints = (
{
horizontal = 1;
place = "{0, 138}";
type = Stem;
},
{
horizontal = 1;
place = "{601, 137}";
type = Stem;
},
{
horizontal = 1;
place = "{783, 169}";
type = Stem;
},
{
place = "{33, 1065}";
type = Stem;
},
{
horizontal = 1;
place = "{595, 206}";
type = Stem;
}
);
layerId = "59338637-1E5C-47E2-9B1C-5C70074789A9";
paths = (
{
closed = 1;
nodes = (
"702 0 LINE",
"816 94 LINE",
"816 595 LINE",
"936 595 LINE",
"1098 801 LINE",
"821 801 LINE",
"801 689 LINE",
"762 689 LINE",
"702 738 LINE",
"147 738 LINE",
"33 645 LINE",
"33 94 LINE",
"147 0 LINE"
);
},
{
closed = 1;
nodes = (
"396 601 LINE",
"453 601 LINE",
"453 138 LINE",
"396 138 LINE"
);
},
{
closed = 1;
nodes = (
"527 783 LINE",
"414 952 LINE",
"150 952 LINE",
"321 783 LINE"
);
}
);
width = 849;
}
);
note = uni1EDC;
unicode = 1EDC;
},
{
glyphname = uni1EDE;
lastChange = "2019-09-03 21:22:04 +0000";
layers = (
{
hints = (
{
horizontal = 1;
place = "{0, 138}";
type = Stem;
},
{
horizontal = 1;
place = "{601, 137}";
type = Stem;
},
{
horizontal = 1;
place = "{908, 122}";
type = Stem;
},
{
place = "{227, 179}";
type = Stem;
},
{
place = "{445, 184}";
type = Stem;
},
{
horizontal = 1;
place = "{782, 98}";
type = Stem;
},
{
horizontal = 1;
place = "{595, 206}";
type = Stem;
}
);
layerId = "59338637-1E5C-47E2-9B1C-5C70074789A9";
paths = (
{
closed = 1;
nodes = (
"702 0 LINE",
"816 94 LINE",
"816 595 LINE",
"936 595 LINE",
"1098 801 LINE",
"821 801 LINE",
"801 689 LINE",
"762 689 LINE",
"702 738 LINE",
"147 738 LINE",
"33 645 LINE",
"33 94 LINE",
"147 0 LINE"
);
},
{
closed = 1;
nodes = (
"396 601 LINE",
"453 601 LINE",
"453 138 LINE",
"396 138 LINE"
);
},
{
closed = 1;
nodes = (
"535 782 LINE",
"535 814 LINE",
"575 814 LINE",
"629 868 LINE",
"629 975 LINE",
"564 1030 LINE",
"292 1030 LINE",
"227 975 LINE",
"227 908 LINE",
"406 908 LINE",
"406 960 LINE",
"445 960 LINE",
"445 880 LINE",
"361 880 LINE",
"315 834 LINE",
"315 782 LINE"
);
}
);
width = 849;
}
);
note = uni1EDE;
unicode = 1EDE;
},
{
glyphname = uni1EE0;
lastChange = "2019-09-03 21:22:04 +0000";
layers = (
{
hints = (
{
horizontal = 1;
place = "{0, 138}";
type = Stem;
},
{
horizontal = 1;
place = "{601, 137}";
type = Stem;
},
{
horizontal = 1;
place = "{789, 168}";
type = Stem;
},
{
place = "{158, 155}";
type = Stem;
},
{
place = "{536, 156}";
type = Stem;
},
{
horizontal = 1;
place = "{783, 169}";
type = Stem;
},
{
horizontal = 1;
place = "{595, 206}";
type = Stem;
}
);
layerId = "59338637-1E5C-47E2-9B1C-5C70074789A9";
paths = (
{
closed = 1;
nodes = (
"702 0 LINE",
"816 94 LINE",
"816 595 LINE",
"936 595 LINE",
"1098 801 LINE",
"821 801 LINE",
"801 689 LINE",
"762 689 LINE",
"702 738 LINE",
"147 738 LINE",
"33 645 LINE",
"33 94 LINE",
"147 0 LINE"
);
},
{
closed = 1;
nodes = (
"396 601 LINE",
"453 601 LINE",
"453 138 LINE",
"396 138 LINE"
);
},
{
closed = 1;
nodes = (
"599 783 LINE",
"692 859 LINE",
"692 952 LINE",
"536 952 LINE",
"536 910 LINE",
"501 910 LINE",
"446 957 LINE",
"250 957 LINE",
"158 881 LINE",
"158 789 LINE",
"313 789 LINE",
"313 831 LINE",
"348 831 LINE",
"403 783 LINE"
);
}
);
width = 849;
}
);
note = uni1EE0;
unicode = 1EE0;
},
{
glyphname = Ohungarumlaut;
lastChange = "2019-09-03 21:30:33 +0000";
layers = (
{
hints = (
{
horizontal = 1;
place = "{0, 138}";
type = Stem;
},
{
horizontal = 1;
place = "{601, 137}";
type = Stem;
},
{
horizontal = 1;
place = "{783, 169}";
type = Stem;
},
{
place = "{33, 814}";
type = Stem;
}
);
layerId = "59338637-1E5C-47E2-9B1C-5C70074789A9";
paths = (
{
closed = 1;
nodes = (
"702 0 LINE",
"816 94 LINE",
"816 645 LINE",
"702 738 LINE",
"147 738 LINE",
"33 645 LINE",
"33 94 LINE",
"147 0 LINE"
);
},
{
closed = 1;
nodes = (
"396 601 LINE",
"453 601 LINE",
"453 138 LINE",
"396 138 LINE"
);
},
{
closed = 1;
nodes = (
"387 783 LINE",
"558 952 LINE",
"288 952 LINE",
"192 783 LINE"
);
},
{
closed = 1;
nodes = (
"675 783 LINE",
"847 952 LINE",
"576 952 LINE",
"480 783 LINE"
);
}
);
width = 849;
}
);
note = Ohungarumlaut;
unicode = 0150;
},
{
glyphname = uni020E;
lastChange = "2019-09-03 21:22:04 +0000";
layers = (
{
hints = (
{
horizontal = 1;
place = "{0, 138}";
type = Stem;
},
{
horizontal = 1;
place = "{601, 137}";
type = Stem;
},
{
horizontal = 1;
place = "{783, 169}";
type = Stem;
},
{
place = "{188, 174}";
type = Stem;
},
{
place = "{487, 174}";
type = Stem;
}
);
layerId = "59338637-1E5C-47E2-9B1C-5C70074789A9";
paths = (
{
closed = 1;
nodes = (
"702 0 LINE",
"816 94 LINE",
"816 645 LINE",
"702 738 LINE",
"147 738 LINE",
"33 645 LINE",
"33 94 LINE",
"147 0 LINE"
);
},
{
closed = 1;
nodes = (
"396 601 LINE",
"453 601 LINE",
"453 138 LINE",
"396 138 LINE"
);
},
{
closed = 1;
nodes = (
"362 783 LINE",
"362 825 LINE",
"487 825 LINE",
"487 783 LINE",
"661 783 LINE",
"661 865 LINE",
"565 952 LINE",
"283 952 LINE",
"188 865 LINE",
"188 783 LINE"
);
}
);
width = 849;
}
);
note = uni020E;
unicode = 020E;
},
{
glyphname = Omacron;
lastChange = "2019-09-03 21:22:04 +0000";
layers = (
{
hints = (
{
horizontal = 1;
place = "{0, 138}";
type = Stem;
},
{
horizontal = 1;
place = "{601, 137}";
type = Stem;
},
{
horizontal = 1;
place = "{783, 169}";
type = Stem;
},
{
place = "{33, 783}";
type = Stem;
}
);
layerId = "59338637-1E5C-47E2-9B1C-5C70074789A9";
paths = (
{
closed = 1;
nodes = (
"702 0 LINE",
"816 94 LINE",
"816 645 LINE",
"702 738 LINE",
"147 738 LINE",
"33 645 LINE",
"33 94 LINE",
"147 0 LINE"
);
},
{
closed = 1;
nodes = (
"396 601 LINE",
"453 601 LINE",
"453 138 LINE",
"396 138 LINE"
);
},
{
closed = 1;
nodes = (
"722 783 LINE",
"722 952 LINE",
"128 952 LINE",
"128 783 LINE"
);
}
);
width = 849;
}
);
note = Omacron;
unicode = 014C;
},
{
glyphname = uni01EA;
lastChange = "2019-09-03 21:22:04 +0000";
layers = (
{
hints = (
{
horizontal = 1;
place = "{-198, 143}";
type = Stem;
},
{
horizontal = 1;
place = "{0, 138}";
type = Stem;
},
{
horizontal = 1;
place = "{601, 137}";
type = Stem;
},
{
place = "{519, 188}";
type = Stem;
}
);
layerId = "59338637-1E5C-47E2-9B1C-5C70074789A9";
paths = (
{
closed = 1;
nodes = (
"707 -198 LINE",
"707 -55 LINE",
"686 -55 LINE",
"673 -44 LINE",
"673 -23 LINE",
"702 0 LINE",
"816 94 LINE",
"816 645 LINE",
"702 738 LINE",
"147 738 LINE",
"33 645 LINE",
"33 94 LINE",
"147 0 LINE",
"565 0 LINE",
"519 -33 LINE",
"519 -127 LINE",
"607 -198 LINE"
);
},
{
closed = 1;
nodes = (
"396 601 LINE",
"453 601 LINE",
"453 138 LINE",
"396 138 LINE"
);
}
);
width = 849;
}
);
note = uni01EA;
unicode = 01EA;
},
{
glyphname = Oslash;
lastChange = "2019-09-03 21:22:04 +0000";
layers = (
{
hints = (
{
horizontal = 1;
place = "{0, 138}";
type = Stem;
},
{
horizontal = 1;
place = "{601, 137}";
type = Stem;
},
{
place = "{33, 783}";
type = Stem;
}
);
layerId = "59338637-1E5C-47E2-9B1C-5C70074789A9";
paths = (
{
closed = 1;
nodes = (
"702 0 LINE",
"816 94 LINE",
"816 645 LINE",
"702 738 LINE",
"147 738 LINE",
"33 645 LINE",
"33 94 LINE",
"147 0 LINE"
);
},
{
closed = 1;
nodes = (
"396 213 LINE",
"453 304 LINE",
"453 138 LINE",
"396 138 LINE"
);
},
{
closed = 1;
nodes = (
"396 601 LINE",
"453 601 LINE",
"453 524 LINE",
"396 432 LINE"
);
}
);
width = 849;
}
);
note = Oslash;
unicode = 00D8;
},
{
glyphname = Oslashacute;
lastChange = "2019-09-03 21:22:04 +0000";
layers = (
{
hints = (
{
horizontal = 1;
place = "{0, 138}";
type = Stem;
},
{
horizontal = 1;
place = "{601, 137}";
type = Stem;
},
{
horizontal = 1;
place = "{783, 169}";
type = Stem;
},
{
place = "{33, 783}";
type = Stem;
}
);
layerId = "59338637-1E5C-47E2-9B1C-5C70074789A9";
paths = (
{
closed = 1;
nodes = (
"702 0 LINE",
"816 94 LINE",
"816 645 LINE",
"702 738 LINE",
"147 738 LINE",
"33 645 LINE",
"33 94 LINE",
"147 0 LINE"
);
},
{
closed = 1;
nodes = (
"396 213 LINE",
"453 304 LINE",
"453 138 LINE",
"396 138 LINE"
);
},
{
closed = 1;
nodes = (
"396 601 LINE",
"453 601 LINE",
"453 524 LINE",
"396 432 LINE"
);
},
{
closed = 1;
nodes = (
"539 783 LINE",
"710 952 LINE",
"446 952 LINE",
"333 783 LINE"
);
}
);
width = 849;
}
);
note = Oslashacute;
unicode = 01FE;
},
{
glyphname = Otilde;
lastChange = "2019-09-03 21:22:04 +0000";
layers = (
{
hints = (
{
horizontal = 1;
place = "{0, 138}";
type = Stem;
},
{
horizontal = 1;
place = "{601, 137}";
type = Stem;
},
{
horizontal = 1;
place = "{789, 168}";
type = Stem;
},
{
place = "{158, 155}";
type = Stem;
},
{
place = "{536, 156}";
type = Stem;
},
{
horizontal = 1;
place = "{783, 169}";
type = Stem;
}
);
layerId = "59338637-1E5C-47E2-9B1C-5C70074789A9";
paths = (
{
closed = 1;
nodes = (
"702 0 LINE",
"816 94 LINE",
"816 645 LINE",
"702 738 LINE",
"147 738 LINE",
"33 645 LINE",
"33 94 LINE",
"147 0 LINE"
);
},
{
closed = 1;
nodes = (
"396 601 LINE",
"453 601 LINE",
"453 138 LINE",
"396 138 LINE"
);
},
{
closed = 1;
nodes = (
"599 783 LINE",
"692 859 LINE",
"692 952 LINE",
"536 952 LINE",
"536 910 LINE",
"501 910 LINE",
"446 957 LINE",
"250 957 LINE",
"158 881 LINE",
"158 789 LINE",
"313 789 LINE",
"313 831 LINE",
"348 831 LINE",
"403 783 LINE"
);
}
);
width = 849;
}
);
note = Otilde;
unicode = 00D5;
},
{
glyphname = uni022C;
lastChange = "2019-09-03 21:22:04 +0000";
layers = (
{
hints = (
{
horizontal = 1;
place = "{0, 138}";
type = Stem;
},
{
horizontal = 1;
place = "{601, 137}";
type = Stem;
},
{
horizontal = 1;
place = "{789, 168}";
type = Stem;
},
{
horizontal = 1;
place = "{989, 169}";
type = Stem;
},
{
place = "{158, 155}";
type = Stem;
},
{
place = "{536, 156}";
type = Stem;
},
{
horizontal = 1;
place = "{783, 169}";
type = Stem;
}
);
layerId = "59338637-1E5C-47E2-9B1C-5C70074789A9";
paths = (
{
closed = 1;
nodes = (
"702 0 LINE",
"816 94 LINE",
"816 645 LINE",
"702 738 LINE",
"147 738 LINE",
"33 645 LINE",
"33 94 LINE",
"147 0 LINE"
);
},
{
closed = 1;
nodes = (
"396 601 LINE",
"453 601 LINE",
"453 138 LINE",
"396 138 LINE"
);
},
{
closed = 1;
nodes = (
"599 783 LINE",
"692 859 LINE",
"692 952 LINE",
"536 952 LINE",
"536 910 LINE",
"501 910 LINE",
"446 957 LINE",
"250 957 LINE",
"158 881 LINE",
"158 789 LINE",
"313 789 LINE",
"313 831 LINE",
"348 831 LINE",
"403 783 LINE"
);
},
{
closed = 1;
nodes = (
"722 989 LINE",
"722 1158 LINE",
"128 1158 LINE",
"128 989 LINE"
);
}
);
width = 849;
}
);
note = uni022C;
unicode = 022C;
},
{
glyphname = OE;
lastChange = "2019-09-03 21:31:25 +0000";
layers = (
{
hints = (
{
horizontal = 1;
place = "{0, 138}";
type = Stem;
},
{
horizontal = 1;
place = "{294, 149}";
type = Stem;
},
{
horizontal = 1;
place = "{601, 137}";
type = Stem;
},
{
place = "{33, 1114}";
type = Stem;
},
{
horizontal = 1;
place = "{501, 236}";
type = Stem;
}
);
layerId = "59338637-1E5C-47E2-9B1C-5C70074789A9";
paths = (
{
closed = 1;
nodes = (
"1147 0 LINE",
"1147 237 LINE",
"816 237 LINE",
"816 294 LINE",
"1101 294 LINE",
"1101 443 LINE",
"816 443 LINE",
"816 501 LINE",
"1147 501 LINE",
"1147 737 LINE",
"147 738 LINE",
"33 645 LINE",
"33 94 LINE",
"147 0 LINE"
);
},
{
closed = 1;
nodes = (
"396 601 LINE",
"453 601 LINE",
"453 138 LINE",
"396 138 LINE"
);
}
);
width = 1180;
}
);
note = OE;
unicode = 0152;
},
{
glyphname = P;
lastChange = "2019-09-03 21:31:31 +0000";
layers = (
{
hints = (
{
horizontal = 1;
place = "{189, 138}";
type = Stem;
},
{
horizontal = 1;
place = "{601, 137}";
type = Stem;
},
{
place = "{33, 783}";
type = Stem;
}
);
layerId = "59338637-1E5C-47E2-9B1C-5C70074789A9";
paths = (
{
closed = 1;
nodes = (
"396 0 LINE",
"396 189 LINE",
"702 189 LINE",
"816 283 LINE",
"816 645 LINE",
"702 738 LINE",
"33 737 LINE",
"33 0 LINE"
);
},
{
closed = 1;
nodes = (
"396 601 LINE",
"453 601 LINE",
"453 327 LINE",
"396 327 LINE"
);
}
);
width = 838;
}
);
note = P;
rightKerningGroup = P;
unicode = 0050;
},
{
glyphname = Thorn;
lastChange = "2019-09-03 21:22:04 +0000";
layers = (
{
hints = (
{
horizontal = 1;
place = "{107, 137}";
type = Stem;
},
{
horizontal = 1;
place = "{518, 138}";
type = Stem;
},
{
place = "{33, 783}";
type = Stem;
}
);
layerId = "59338637-1E5C-47E2-9B1C-5C70074789A9";
paths = (
{
closed = 1;
nodes = (
"396 1 LINE",
"396 107 LINE",
"702 107 LINE",
"816 200 LINE",
"816 562 LINE",
"702 656 LINE",
"396 656 LINE",
"396 738 LINE",
"33 738 LINE",
"33 1 LINE"
);
},
{
closed = 1;
nodes = (
"396 518 LINE",
"453 518 LINE",
"453 244 LINE",
"396 244 LINE"
);
}
);
width = 838;
}
);
note = Thorn;
unicode = 00DE;
},
{
glyphname = Q;
lastChange = "2019-09-03 21:22:04 +0000";
layers = (
{
hints = (
{
horizontal = 1;
place = "{-87, 225}";
type = Stem;
},
{
horizontal = 1;
place = "{601, 137}";
type = Stem;
},
{
place = "{295, 101}";
type = Stem;
},
{
place = "{453, 102}";
type = Stem;
}
);
layerId = "59338637-1E5C-47E2-9B1C-5C70074789A9";
paths = (
{
closed = 1;
nodes = (
"555 -87 LINE",
"555 0 LINE",
"702 0 LINE",
"816 94 LINE",
"816 645 LINE",
"702 738 LINE",
"147 738 LINE",
"33 645 LINE",
"33 94 LINE",
"147 0 LINE",
"295 0 LINE",
"295 -87 LINE"
);
},
{
closed = 1;
nodes = (
"396 601 LINE",
"453 601 LINE",
"453 138 LINE",
"396 138 LINE"
);
}
);
width = 849;
}
);
note = Q;
unicode = 0051;
},
{
glyphname = R;
lastChange = "2019-09-03 21:22:04 +0000";
layers = (
{
hints = (
{
horizontal = 1;
place = "{240, 168}";
type = Stem;
},
{
horizontal = 1;
place = "{600, 137}";
type = Stem;
},
{
place = "{33, 818}";
type = Stem;
}
);
layerId = "59338637-1E5C-47E2-9B1C-5C70074789A9";
paths = (
{
closed = 1;
nodes = (
"396 0 LINE",
"396 240 LINE",
"417 240 LINE",
"472 0 LINE",
"851 0 LINE",
"747 277 LINE",
"816 333 LINE",
"816 644 LINE",
"702 737 LINE",
"33 737 LINE",
"33 0 LINE"
);
},
{
closed = 1;
nodes = (
"396 600 LINE",
"453 600 LINE",
"453 408 LINE",
"396 408 LINE"
);
}
);
width = 862;
}
);
note = R;
rightKerningGroup = R;
unicode = 0052;
},
{
glyphname = Racute;
lastChange = "2019-09-03 21:22:04 +0000";
layers = (
{
hints = (
{
horizontal = 1;
place = "{240, 168}";
type = Stem;
},
{
horizontal = 1;
place = "{600, 137}";
type = Stem;
},
{
horizontal = 1;
place = "{783, 169}";
type = Stem;
},
{
place = "{33, 818}";
type = Stem;
}
);
layerId = "59338637-1E5C-47E2-9B1C-5C70074789A9";
paths = (
{
closed = 1;
nodes = (
"396 0 LINE",
"396 240 LINE",
"417 240 LINE",
"472 0 LINE",
"851 0 LINE",
"747 277 LINE",
"816 333 LINE",
"816 644 LINE",
"702 737 LINE",
"33 737 LINE",
"33 0 LINE"
);
},
{
closed = 1;
nodes = (
"396 600 LINE",
"453 600 LINE",
"453 408 LINE",
"396 408 LINE"
);
},
{
closed = 1;
nodes = (
"523 783 LINE",
"694 952 LINE",
"430 952 LINE",
"317 783 LINE"
);
}
);
width = 862;
}
);
note = Racute;
rightKerningGroup = R;
unicode = 0154;
},
{
glyphname = Rcaron;
lastChange = "2019-09-03 21:22:04 +0000";
layers = (
{
hints = (
{
horizontal = 1;
place = "{240, 168}";
type = Stem;
},
{
horizontal = 1;
place = "{600, 137}";
type = Stem;
},
{
horizontal = 1;
place = "{783, 169}";
type = Stem;
},
{
place = "{33, 818}";
type = Stem;
}
);
layerId = "59338637-1E5C-47E2-9B1C-5C70074789A9";
paths = (
{
closed = 1;
nodes = (
"396 0 LINE",
"396 240 LINE",
"417 240 LINE",
"472 0 LINE",
"851 0 LINE",
"747 277 LINE",
"816 333 LINE",
"816 644 LINE",
"702 737 LINE",
"33 737 LINE",
"33 0 LINE"
);
},
{
closed = 1;
nodes = (
"396 600 LINE",
"453 600 LINE",
"453 408 LINE",
"396 408 LINE"
);
},
{
closed = 1;
nodes = (
"572 783 LINE",
"701 952 LINE",
"486 952 LINE",
"408 875 LINE",
"330 952 LINE",
"116 952 LINE",
"244 783 LINE"
);
}
);
width = 862;
}
);
note = Rcaron;
rightKerningGroup = R;
unicode = 0158;
},
{
glyphname = uni0156;
lastChange = "2019-09-03 21:22:04 +0000";
layers = (
{
hints = (
{
horizontal = 1;
place = "{-229, 183}";
type = Stem;
},
{
horizontal = 1;
place = "{240, 168}";
type = Stem;
},
{
horizontal = 1;
place = "{600, 137}";
type = Stem;
},
{
place = "{33, 818}";
type = Stem;
}
);
layerId = "59338637-1E5C-47E2-9B1C-5C70074789A9";
paths = (
{
closed = 1;
nodes = (
"396 0 LINE",
"396 240 LINE",
"417 240 LINE",
"472 0 LINE",
"851 0 LINE",
"747 277 LINE",
"816 333 LINE",
"816 644 LINE",
"702 737 LINE",
"33 737 LINE",
"33 0 LINE"
);
},
{
closed = 1;
nodes = (
"416 -229 LINE",
"567 -46 LINE",
"290 -46 LINE",
"234 -229 LINE"
);
},
{
closed = 1;
nodes = (
"396 600 LINE",
"453 600 LINE",
"453 408 LINE",
"396 408 LINE"
);
}
);
width = 862;
}
);
note = uni0156;
rightKerningGroup = R;
unicode = 0156;
},
{
glyphname = uni0210;
lastChange = "2019-09-03 21:32:07 +0000";
layers = (
{
hints = (
{
horizontal = 1;
place = "{240, 168}";
type = Stem;
},
{
horizontal = 1;
place = "{600, 137}";
type = Stem;
},
{
horizontal = 1;
place = "{783, 169}";
type = Stem;
},
{
place = "{-4, 856}";
type = Stem;
}
);
layerId = "59338637-1E5C-47E2-9B1C-5C70074789A9";
paths = (
{
closed = 1;
nodes = (
"362 783 LINE",
"249 952 LINE",
"-4 952 LINE",
"168 783 LINE"
);
},
{
closed = 1;
nodes = (
"651 783 LINE",
"537 952 LINE",
"284 952 LINE",
"456 783 LINE"
);
},
{
closed = 1;
nodes = (
"396 0 LINE",
"396 240 LINE",
"417 240 LINE",
"472 0 LINE",
"851 0 LINE",
"747 277 LINE",
"816 333 LINE",
"816 644 LINE",
"702 737 LINE",
"33 737 LINE",
"33 0 LINE"
);
},
{
closed = 1;
nodes = (
"396 600 LINE",
"453 600 LINE",
"453 408 LINE",
"396 408 LINE"
);
}
);
width = 862;
}
);
note = uni0210;
rightKerningGroup = R;
unicode = 0210;
},
{
glyphname = uni0212;
lastChange = "2019-09-03 21:22:04 +0000";
layers = (
{
hints = (
{
horizontal = 1;
place = "{240, 168}";
type = Stem;
},
{
horizontal = 1;
place = "{600, 137}";
type = Stem;
},
{
horizontal = 1;
place = "{783, 169}";
type = Stem;
},
{
place = "{172, 174}";
type = Stem;
},
{
place = "{471, 174}";
type = Stem;
}
);
layerId = "59338637-1E5C-47E2-9B1C-5C70074789A9";
paths = (
{
closed = 1;
nodes = (
"396 0 LINE",
"396 240 LINE",
"417 240 LINE",
"472 0 LINE",
"851 0 LINE",
"747 277 LINE",
"816 333 LINE",
"816 644 LINE",
"702 737 LINE",
"33 737 LINE",
"33 0 LINE"
);
},
{
closed = 1;
nodes = (
"396 600 LINE",
"453 600 LINE",
"453 408 LINE",
"396 408 LINE"
);
},
{
closed = 1;
nodes = (
"346 783 LINE",
"346 825 LINE",
"471 825 LINE",
"471 783 LINE",
"645 783 LINE",
"645 865 LINE",
"549 952 LINE",
"267 952 LINE",
"172 865 LINE",
"172 783 LINE"
);
}
);
width = 862;
}
);
note = uni0212;
rightKerningGroup = R;
unicode = 0212;
},
{
glyphname = S;
lastChange = "2019-09-03 21:22:04 +0000";
layers = (
{
hints = (
{
horizontal = 1;
place = "{0, 215}";
type = Stem;
},
{
horizontal = 1;
place = "{272, 193}";
type = Stem;
},
{
horizontal = 1;
place = "{523, 214}";
type = Stem;
},
{
place = "{22, 341}";
type = Stem;
},
{
place = "{420, 341}";
type = Stem;
}
);
layerId = "59338637-1E5C-47E2-9B1C-5C70074789A9";
paths = (
{
closed = 1;
nodes = (
"647 0 LINE",
"761 94 LINE",
"761 372 LINE",
"647 465 LINE",
"363 465 LINE",
"363 523 LINE",
"726 523 LINE",
"726 737 LINE",
"136 737 LINE",
"22 644 LINE",
"22 365 LINE",
"136 272 LINE",
"420 272 LINE",
"420 215 LINE",
"55 215 LINE",
"55 0 LINE"
);
}
);
width = 783;
}
);
note = S;
unicode = 0053;
},
{
glyphname = Sacute;
lastChange = "2019-09-03 21:22:04 +0000";
layers = (
{
hints = (
{
horizontal = 1;
place = "{0, 215}";
type = Stem;
},
{
horizontal = 1;
place = "{272, 193}";
type = Stem;
},
{
horizontal = 1;
place = "{523, 214}";
type = Stem;
},
{
horizontal = 1;
place = "{783, 169}";
type = Stem;
},
{
place = "{22, 739}";
type = Stem;
},
{
place = "{22, 341}";
type = Stem;
},
{
place = "{420, 341}";
type = Stem;
}
);
layerId = "59338637-1E5C-47E2-9B1C-5C70074789A9";
paths = (
{
closed = 1;
nodes = (
"647 0 LINE",
"761 94 LINE",
"761 372 LINE",
"647 465 LINE",
"363 465 LINE",
"363 523 LINE",
"726 523 LINE",
"726 737 LINE",
"136 737 LINE",
"22 644 LINE",
"22 365 LINE",
"136 272 LINE",
"420 272 LINE",
"420 215 LINE",
"55 215 LINE",
"55 0 LINE"
);
},
{
closed = 1;
nodes = (
"506 783 LINE",
"677 952 LINE",
"413 952 LINE",
"300 783 LINE"
);
}
);
width = 783;
}
);
note = Sacute;
unicode = 015A;
},
{
glyphname = Scaron;
lastChange = "2019-09-03 21:22:04 +0000";
layers = (
{
hints = (
{
horizontal = 1;
place = "{0, 215}";
type = Stem;
},
{
horizontal = 1;
place = "{272, 193}";
type = Stem;
},
{
horizontal = 1;
place = "{523, 214}";
type = Stem;
},
{
horizontal = 1;
place = "{783, 169}";
type = Stem;
},
{
place = "{22, 739}";
type = Stem;
},
{
place = "{22, 341}";
type = Stem;
},
{
place = "{420, 341}";
type = Stem;
}
);
layerId = "59338637-1E5C-47E2-9B1C-5C70074789A9";
paths = (
{
closed = 1;
nodes = (
"647 0 LINE",
"761 94 LINE",
"761 372 LINE",
"647 465 LINE",
"363 465 LINE",
"363 523 LINE",
"726 523 LINE",
"726 737 LINE",
"136 737 LINE",
"22 644 LINE",
"22 365 LINE",
"136 272 LINE",
"420 272 LINE",
"420 215 LINE",
"55 215 LINE",
"55 0 LINE"
);
},
{
closed = 1;
nodes = (
"555 783 LINE",
"684 952 LINE",
"469 952 LINE",
"391 875 LINE",
"313 952 LINE",
"99 952 LINE",
"227 783 LINE"
);
}
);
width = 783;
}
);
note = Scaron;
unicode = 0160;
},
{
glyphname = Scedilla;
lastChange = "2019-09-03 21:22:04 +0000";
layers = (
{
hints = (
{
horizontal = 1;
place = "{0, 215}";
type = Stem;
},
{
horizontal = 1;
place = "{272, 193}";
type = Stem;
},
{
horizontal = 1;
place = "{523, 214}";
type = Stem;
},
{
place = "{22, 341}";
type = Stem;
},
{
place = "{420, 341}";
type = Stem;
}
);
layerId = "59338637-1E5C-47E2-9B1C-5C70074789A9";
paths = (
{
closed = 1;
nodes = (
"440 -125 LINE",
"511 0 LINE",
"647 0 LINE",
"761 94 LINE",
"761 372 LINE",
"647 465 LINE",
"363 465 LINE",
"363 523 LINE",
"726 523 LINE",
"726 737 LINE",
"136 737 LINE",
"22 644 LINE",
"22 365 LINE",
"136 272 LINE",
"420 272 LINE",
"420 215 LINE",
"55 215 LINE",
"55 0 LINE",
"273 0 LINE",
"252 -125 LINE"
);
}
);
width = 783;
}
);
note = Scedilla;
unicode = 015E;
},
{
glyphname = Scircumflex;
lastChange = "2019-09-03 21:22:04 +0000";
layers = (
{
hints = (
{
horizontal = 1;
place = "{0, 215}";
type = Stem;
},
{
horizontal = 1;
place = "{272, 193}";
type = Stem;
},
{
horizontal = 1;
place = "{523, 214}";
type = Stem;
},
{
horizontal = 1;
place = "{783, 169}";
type = Stem;
},
{
place = "{22, 739}";
type = Stem;
},
{
place = "{22, 341}";
type = Stem;
},
{
place = "{420, 341}";
type = Stem;
}
);
layerId = "59338637-1E5C-47E2-9B1C-5C70074789A9";
paths = (
{
closed = 1;
nodes = (
"647 0 LINE",
"761 94 LINE",
"761 372 LINE",
"647 465 LINE",
"363 465 LINE",
"363 523 LINE",
"726 523 LINE",
"726 737 LINE",
"136 737 LINE",
"22 644 LINE",
"22 365 LINE",
"136 272 LINE",
"420 272 LINE",
"420 215 LINE",
"55 215 LINE",
"55 0 LINE"
);
},
{
closed = 1;
nodes = (
"314 783 LINE",
"392 860 LINE",
"470 783 LINE",
"684 783 LINE",
"556 952 LINE",
"228 952 LINE",
"99 783 LINE"
);
}
);
width = 783;
}
);
note = Scircumflex;
unicode = 015C;
},
{
glyphname = uni0218;
lastChange = "2019-09-03 21:22:04 +0000";
layers = (
{
hints = (
{
horizontal = 1;
place = "{-229, 183}";
type = Stem;
},
{
horizontal = 1;
place = "{0, 215}";
type = Stem;
},
{
horizontal = 1;
place = "{272, 193}";
type = Stem;
},
{
horizontal = 1;
place = "{523, 214}";
type = Stem;
},
{
place = "{22, 341}";
type = Stem;
},
{
place = "{420, 341}";
type = Stem;
}
);
layerId = "59338637-1E5C-47E2-9B1C-5C70074789A9";
paths = (
{
closed = 1;
nodes = (
"647 0 LINE",
"761 94 LINE",
"761 372 LINE",
"647 465 LINE",
"363 465 LINE",
"363 523 LINE",
"726 523 LINE",
"726 737 LINE",
"136 737 LINE",
"22 644 LINE",
"22 365 LINE",
"136 272 LINE",
"420 272 LINE",
"420 215 LINE",
"55 215 LINE",
"55 0 LINE"
);
},
{
closed = 1;
nodes = (
"378 -229 LINE",
"529 -46 LINE",
"252 -46 LINE",
"196 -229 LINE"
);
}
);
width = 783;
}
);
note = uni0218;
unicode = 0218;
},
{
glyphname = uni1E9E;
lastChange = "2019-09-03 21:22:04 +0000";
layers = (
{
hints = (
{
horizontal = 1;
place = "{0, 138}";
type = Stem;
},
{
horizontal = 1;
place = "{600, 137}";
type = Stem;
},
{
place = "{33, 772}";
type = Stem;
}
);
layerId = "59338637-1E5C-47E2-9B1C-5C70074789A9";
paths = (
{
closed = 1;
nodes = (
"385 0 LINE",
"385 600 LINE",
"455 600 LINE",
"455 536 LINE",
"414 443 LINE",
"414 306 LINE",
"441 306 LINE",
"442 138 LINE",
"414 138 LINE",
"414 0 LINE",
"691 0 LINE",
"805 94 LINE",
"805 281 LINE",
"659 400 LINE",
"740 560 LINE",
"740 644 LINE",
"626 737 LINE",
"147 737 LINE",
"33 644 LINE",
"33 0 LINE"
);
}
);
width = 838;
}
);
note = uni1E9E;
unicode = 1E9E;
},
{
glyphname = uni018F;
lastChange = "2019-09-03 21:22:04 +0000";
layers = (
{
hints = (
{
horizontal = 1;
place = "{0, 138}";
type = Stem;
},
{
horizontal = 1;
place = "{294, 149}";
type = Stem;
},
{
horizontal = 1;
place = "{501, 236}";
type = Stem;
},
{
place = "{33, 783}";
type = Stem;
}
);
layerId = "59338637-1E5C-47E2-9B1C-5C70074789A9";
paths = (
{
closed = 1;
nodes = (
"702 0 LINE",
"816 94 LINE",
"816 645 LINE",
"702 737 LINE",
"33 737 LINE",
"33 501 LINE",
"453 501 LINE",
"453 443 LINE",
"33 443 LINE",
"33 94 LINE",
"147 0 LINE"
);
},
{
closed = 1;
nodes = (
"396 294 LINE",
"453 294 LINE",
"453 138 LINE",
"396 138 LINE"
);
}
);
width = 849;
}
);
note = uni018F;
unicode = 018F;
},
{
glyphname = T;
lastChange = "2019-09-03 21:22:04 +0000";
layers = (
{
hints = (
{
horizontal = 1;
place = "{501, 236}";
type = Stem;
},
{
place = "{11, 717}";
type = Stem;
}
);
layerId = "59338637-1E5C-47E2-9B1C-5C70074789A9";
paths = (
{
closed = 1;
nodes = (
"551 0 LINE",
"551 501 LINE",
"728 501 LINE",
"728 737 LINE",
"11 737 LINE",
"11 501 LINE",
"188 501 LINE",
"188 0 LINE"
);
}
);
width = 739;
}
);
leftKerningGroup = T;
note = T;
rightKerningGroup = T;
unicode = 0054;
},
{
glyphname = Tbar;
lastChange = "2019-09-03 21:22:04 +0000";
layers = (
{
hints = (
{
horizontal = 1;
place = "{208, 192}";
type = Stem;
},
{
horizontal = 1;
place = "{501, 236}";
type = Stem;
},
{
place = "{11, 717}";
type = Stem;
}
);
layerId = "59338637-1E5C-47E2-9B1C-5C70074789A9";
paths = (
{
closed = 1;
nodes = (
"551 0 LINE",
"551 208 LINE",
"678 208 LINE",
"678 400 LINE",
"551 400 LINE",
"551 501 LINE",
"728 501 LINE",
"728 737 LINE",
"11 737 LINE",
"11 501 LINE",
"188 501 LINE",
"188 400 LINE",
"62 400 LINE",
"62 208 LINE",
"188 208 LINE",
"188 0 LINE"
);
}
);
width = 739;
}
);
leftKerningGroup = T;
note = Tbar;
rightKerningGroup = T;
unicode = 0166;
},
{
glyphname = Tcaron;
lastChange = "2019-09-03 21:22:04 +0000";
layers = (
{
hints = (
{
horizontal = 1;
place = "{501, 236}";
type = Stem;
},
{
horizontal = 1;
place = "{783, 169}";
type = Stem;
},
{
place = "{11, 717}";
type = Stem;
}
);
layerId = "59338637-1E5C-47E2-9B1C-5C70074789A9";
paths = (
{
closed = 1;
nodes = (
"551 0 LINE",
"551 501 LINE",
"728 501 LINE",
"728 737 LINE",
"11 737 LINE",
"11 501 LINE",
"188 501 LINE",
"188 0 LINE"
);
},
{
closed = 1;
nodes = (
"533 783 LINE",
"662 952 LINE",
"447 952 LINE",
"369 875 LINE",
"291 952 LINE",
"77 952 LINE",
"205 783 LINE"
);
}
);
width = 739;
}
);
leftKerningGroup = T;
note = Tcaron;
rightKerningGroup = T;
unicode = 0164;
},
{
glyphname = uni0162;
lastChange = "2019-09-03 21:22:04 +0000";
layers = (
{
hints = (
{
horizontal = 1;
place = "{501, 236}";
type = Stem;
},
{
place = "{11, 717}";
type = Stem;
}
);
layerId = "59338637-1E5C-47E2-9B1C-5C70074789A9";
paths = (
{
closed = 1;
nodes = (
"480 -125 LINE",
"551 0 LINE",
"551 501 LINE",
"728 501 LINE",
"728 737 LINE",
"11 737 LINE",
"11 501 LINE",
"188 501 LINE",
"188 0 LINE",
"313 0 LINE",
"292 -125 LINE"
);
}
);
width = 739;
}
);
leftKerningGroup = T;
note = uni0162;
rightKerningGroup = T;
unicode = 0162;
},
{
glyphname = uni021A;
lastChange = "2019-09-03 21:22:04 +0000";
layers = (
{
hints = (
{
horizontal = 1;
place = "{-229, 183}";
type = Stem;
},
{
horizontal = 1;
place = "{501, 236}";
type = Stem;
},
{
place = "{11, 717}";
type = Stem;
}
);
layerId = "59338637-1E5C-47E2-9B1C-5C70074789A9";
paths = (
{
closed = 1;
nodes = (
"551 0 LINE",
"551 501 LINE",
"728 501 LINE",
"728 737 LINE",
"11 737 LINE",
"11 501 LINE",
"188 501 LINE",
"188 0 LINE"
);
},
{
closed = 1;
nodes = (
"356 -229 LINE",
"507 -46 LINE",
"230 -46 LINE",
"174 -229 LINE"
);
}
);
width = 739;
}
);
leftKerningGroup = T;
note = uni021A;
rightKerningGroup = T;
unicode = 021A;
},
{
glyphname = U;
lastChange = "2019-09-03 21:22:04 +0000";
layers = (
{
hints = (
{
horizontal = 1;
place = "{0, 138}";
type = Stem;
},
{
place = "{33, 783}";
type = Stem;
}
);
layerId = "59338637-1E5C-47E2-9B1C-5C70074789A9";
paths = (
{
closed = 1;
nodes = (
"702 0 LINE",
"816 94 LINE",
"816 737 LINE",
"453 737 LINE",
"453 138 LINE",
"396 138 LINE",
"396 737 LINE",
"33 737 LINE",
"33 94 LINE",
"147 0 LINE"
);
}
);
width = 849;
}
);
note = U;
unicode = 0055;
},
{
glyphname = Uacute;
lastChange = "2019-09-03 21:22:04 +0000";
layers = (
{
hints = (
{
horizontal = 1;
place = "{0, 138}";
type = Stem;
},
{
horizontal = 1;
place = "{783, 169}";
type = Stem;
},
{
place = "{333, 63}";
type = Stem;
}
);
layerId = "59338637-1E5C-47E2-9B1C-5C70074789A9";
paths = (
{
closed = 1;
nodes = (
"702 0 LINE",
"816 94 LINE",
"816 737 LINE",
"453 737 LINE",
"453 138 LINE",
"396 138 LINE",
"396 737 LINE",
"33 737 LINE",
"33 94 LINE",
"147 0 LINE"
);
},
{
closed = 1;
nodes = (
"539 783 LINE",
"710 952 LINE",
"446 952 LINE",
"333 783 LINE"
);
}
);
width = 849;
}
);
note = Uacute;
unicode = 00DA;
},
{
glyphname = Ubreve;
lastChange = "2019-09-03 21:22:04 +0000";
layers = (
{
hints = (
{
horizontal = 1;
place = "{0, 138}";
type = Stem;
},
{
horizontal = 1;
place = "{783, 169}";
type = Stem;
},
{
place = "{154, 226}";
type = Stem;
},
{
place = "{470, 225}";
type = Stem;
}
);
layerId = "59338637-1E5C-47E2-9B1C-5C70074789A9";
paths = (
{
closed = 1;
nodes = (
"702 0 LINE",
"816 94 LINE",
"816 737 LINE",
"453 737 LINE",
"453 138 LINE",
"396 138 LINE",
"396 737 LINE",
"33 737 LINE",
"33 94 LINE",
"147 0 LINE"
);
},
{
closed = 1;
nodes = (
"581 783 LINE",
"695 877 LINE",
"695 952 LINE",
"470 952 LINE",
"470 904 LINE",
"380 904 LINE",
"380 952 LINE",
"154 952 LINE",
"154 877 LINE",
"268 783 LINE"
);
}
);
width = 849;
}
);
note = Ubreve;
unicode = 016C;
},
{
glyphname = Ucircumflex;
lastChange = "2019-09-03 21:22:04 +0000";
layers = (
{
hints = (
{
horizontal = 1;
place = "{0, 138}";
type = Stem;
},
{
horizontal = 1;
place = "{783, 169}";
type = Stem;
},
{
place = "{33, 783}";
type = Stem;
}
);
layerId = "59338637-1E5C-47E2-9B1C-5C70074789A9";
paths = (
{
closed = 1;
nodes = (
"702 0 LINE",
"816 94 LINE",
"816 737 LINE",
"453 737 LINE",
"453 138 LINE",
"396 138 LINE",
"396 737 LINE",
"33 737 LINE",
"33 94 LINE",
"147 0 LINE"
);
},
{
closed = 1;
nodes = (
"347 783 LINE",
"425 860 LINE",
"503 783 LINE",
"717 783 LINE",
"589 952 LINE",
"261 952 LINE",
"132 783 LINE"
);
}
);
width = 849;
}
);
note = Ucircumflex;
unicode = 00DB;
},
{
glyphname = uni0214;
lastChange = "2019-09-03 21:22:04 +0000";
layers = (
{
hints = (
{
horizontal = 1;
place = "{0, 138}";
type = Stem;
},
{
horizontal = 1;
place = "{783, 169}";
type = Stem;
},
{
place = "{11, 805}";
type = Stem;
}
);
layerId = "59338637-1E5C-47E2-9B1C-5C70074789A9";
paths = (
{
closed = 1;
nodes = (
"702 0 LINE",
"816 94 LINE",
"816 737 LINE",
"453 737 LINE",
"453 138 LINE",
"396 138 LINE",
"396 737 LINE",
"33 737 LINE",
"33 94 LINE",
"147 0 LINE"
);
},
{
closed = 1;
nodes = (
"377 783 LINE",
"264 952 LINE",
"11 952 LINE",
"183 783 LINE"
);
},
{
closed = 1;
nodes = (
"666 783 LINE",
"552 952 LINE",
"299 952 LINE",
"471 783 LINE"
);
}
);
width = 849;
}
);
note = uni0214;
unicode = 0214;
},
{
glyphname = Udieresis;
lastChange = "2019-09-03 21:22:04 +0000";
layers = (
{
hints = (
{
horizontal = 1;
place = "{0, 138}";
type = Stem;
},
{
horizontal = 1;
place = "{783, 169}";
type = Stem;
},
{
place = "{129, 267}";
type = Stem;
},
{
place = "{453, 270}";
type = Stem;
}
);
layerId = "59338637-1E5C-47E2-9B1C-5C70074789A9";
paths = (
{
closed = 1;
nodes = (
"702 0 LINE",
"816 94 LINE",
"816 737 LINE",
"453 737 LINE",
"453 138 LINE",
"396 138 LINE",
"396 737 LINE",
"33 737 LINE",
"33 94 LINE",
"147 0 LINE"
);
},
{
closed = 1;
nodes = (
"403 783 LINE",
"403 952 LINE",
"129 952 LINE",
"129 783 LINE"
);
},
{
closed = 1;
nodes = (
"723 783 LINE",
"723 952 LINE",
"449 952 LINE",
"449 783 LINE"
);
}
);
width = 849;
}
);
note = Udieresis;
unicode = 00DC;
},
{
glyphname = uni1EE4;
lastChange = "2019-09-03 21:22:04 +0000";
layers = (
{
hints = (
{
horizontal = 1;
place = "{-215, 169}";
type = Stem;
},
{
horizontal = 1;
place = "{0, 138}";
type = Stem;
},
{
place = "{271, 125}";
type = Stem;
},
{
place = "{453, 125}";
type = Stem;
}
);
layerId = "59338637-1E5C-47E2-9B1C-5C70074789A9";
paths = (
{
closed = 1;
nodes = (
"702 0 LINE",
"816 94 LINE",
"816 737 LINE",
"453 737 LINE",
"453 138 LINE",
"396 138 LINE",
"396 737 LINE",
"33 737 LINE",
"33 94 LINE",
"147 0 LINE"
);
},
{
closed = 1;
nodes = (
"578 -215 LINE",
"578 -46 LINE",
"271 -46 LINE",
"271 -215 LINE"
);
}
);
width = 849;
}
);
note = uni1EE4;
unicode = 1EE4;
},
{
glyphname = Ugrave;
lastChange = "2019-09-03 21:22:04 +0000";
layers = (
{
hints = (
{
horizontal = 1;
place = "{0, 138}";
type = Stem;
},
{
horizontal = 1;
place = "{783, 169}";
type = Stem;
},
{
place = "{453, 74}";
type = Stem;
}
);
layerId = "59338637-1E5C-47E2-9B1C-5C70074789A9";
paths = (
{
closed = 1;
nodes = (
"702 0 LINE",
"816 94 LINE",
"816 737 LINE",
"453 737 LINE",
"453 138 LINE",
"396 138 LINE",
"396 737 LINE",
"33 737 LINE",
"33 94 LINE",
"147 0 LINE"
);
},
{
closed = 1;
nodes = (
"527 783 LINE",
"414 952 LINE",
"150 952 LINE",
"321 783 LINE"
);
}
);
width = 849;
}
);
note = Ugrave;
unicode = 00D9;
},
{
glyphname = uni1EE6;
lastChange = "2019-09-03 21:22:04 +0000";
layers = (
{
hints = (
{
horizontal = 1;
place = "{0, 138}";
type = Stem;
},
{
horizontal = 1;
place = "{908, 122}";
type = Stem;
},
{
place = "{227, 179}";
type = Stem;
},
{
place = "{445, 184}";
type = Stem;
},
{
horizontal = 1;
place = "{782, 98}";
type = Stem;
},
{
place = "{315, 81}";
type = Stem;
},
{
place = "{453, 82}";
type = Stem;
}
);
layerId = "59338637-1E5C-47E2-9B1C-5C70074789A9";
paths = (
{
closed = 1;
nodes = (
"702 0 LINE",
"816 94 LINE",
"816 737 LINE",
"453 737 LINE",
"453 138 LINE",
"396 138 LINE",
"396 737 LINE",
"33 737 LINE",
"33 94 LINE",
"147 0 LINE"
);
},
{
closed = 1;
nodes = (
"535 782 LINE",
"535 814 LINE",
"575 814 LINE",
"629 868 LINE",
"629 975 LINE",
"564 1030 LINE",
"292 1030 LINE",
"227 975 LINE",
"227 908 LINE",
"406 908 LINE",
"406 960 LINE",
"445 960 LINE",
"445 880 LINE",
"361 880 LINE",
"315 834 LINE",
"315 782 LINE"
);
}
);
width = 849;
}
);
note = uni1EE6;
unicode = 1EE6;
},
{
glyphname = Uhorn;
lastChange = "2019-09-03 21:22:04 +0000";
layers = (
{
hints = (
{
horizontal = 1;
place = "{0, 138}";
type = Stem;
},
{
horizontal = 1;
place = "{595, 142}";
type = Stem;
},
{
place = "{33, 1120}";
type = Stem;
}
);
layerId = "59338637-1E5C-47E2-9B1C-5C70074789A9";
paths = (
{
closed = 1;
nodes = (
"702 0 LINE",
"816 94 LINE",
"816 595 LINE",
"991 595 LINE",
"1153 801 LINE",
"876 801 LINE",
"856 689 LINE",
"816 689 LINE",
"816 737 LINE",
"453 737 LINE",
"453 138 LINE",
"396 138 LINE",
"396 737 LINE",
"33 737 LINE",
"33 94 LINE",
"147 0 LINE"
);
}
);
width = 849;
}
);
note = Uhorn;
unicode = 01AF;
},
{
glyphname = uni1EE8;
lastChange = "2019-09-03 21:22:04 +0000";
layers = (
{
hints = (
{
horizontal = 1;
place = "{0, 138}";
type = Stem;
},
{
horizontal = 1;
place = "{595, 142}";
type = Stem;
},
{
horizontal = 1;
place = "{783, 169}";
type = Stem;
},
{
place = "{333, 63}";
type = Stem;
}
);
layerId = "59338637-1E5C-47E2-9B1C-5C70074789A9";
paths = (
{
closed = 1;
nodes = (
"702 0 LINE",
"816 94 LINE",
"816 595 LINE",
"991 595 LINE",
"1153 801 LINE",
"876 801 LINE",
"856 689 LINE",
"816 689 LINE",
"816 737 LINE",
"453 737 LINE",
"453 138 LINE",
"396 138 LINE",
"396 737 LINE",
"33 737 LINE",
"33 94 LINE",
"147 0 LINE"
);
},
{
closed = 1;
nodes = (
"539 783 LINE",
"710 952 LINE",
"446 952 LINE",
"333 783 LINE"
);
}
);
width = 849;
}
);
note = uni1EE8;
unicode = 1EE8;
},
{
glyphname = uni1EF0;
lastChange = "2019-09-03 21:22:04 +0000";
layers = (
{
hints = (
{
horizontal = 1;
place = "{-215, 169}";
type = Stem;
},
{
horizontal = 1;
place = "{0, 138}";
type = Stem;
},
{
horizontal = 1;
place = "{595, 142}";
type = Stem;
},
{
place = "{271, 125}";
type = Stem;
},
{
place = "{453, 125}";
type = Stem;
}
);
layerId = "59338637-1E5C-47E2-9B1C-5C70074789A9";
paths = (
{
closed = 1;
nodes = (
"702 0 LINE",
"816 94 LINE",
"816 595 LINE",
"991 595 LINE",
"1153 801 LINE",
"876 801 LINE",
"856 689 LINE",
"816 689 LINE",
"816 737 LINE",
"453 737 LINE",
"453 138 LINE",
"396 138 LINE",
"396 737 LINE",
"33 737 LINE",
"33 94 LINE",
"147 0 LINE"
);
},
{
closed = 1;
nodes = (
"578 -215 LINE",
"578 -46 LINE",
"271 -46 LINE",
"271 -215 LINE"
);
}
);
width = 849;
}
);
note = uni1EF0;
unicode = 1EF0;
},
{
glyphname = uni1EEA;
lastChange = "2019-09-03 21:22:04 +0000";
layers = (
{
hints = (
{
horizontal = 1;
place = "{0, 138}";
type = Stem;
},
{
horizontal = 1;
place = "{595, 142}";
type = Stem;
},
{
horizontal = 1;
place = "{783, 169}";
type = Stem;
},
{
place = "{453, 74}";
type = Stem;
}
);
layerId = "59338637-1E5C-47E2-9B1C-5C70074789A9";
paths = (
{
closed = 1;
nodes = (
"702 0 LINE",
"816 94 LINE",
"816 595 LINE",
"991 595 LINE",
"1153 801 LINE",
"876 801 LINE",
"856 689 LINE",
"816 689 LINE",
"816 737 LINE",
"453 737 LINE",
"453 138 LINE",
"396 138 LINE",
"396 737 LINE",
"33 737 LINE",
"33 94 LINE",
"147 0 LINE"
);
},
{
closed = 1;
nodes = (
"527 783 LINE",
"414 952 LINE",
"150 952 LINE",
"321 783 LINE"
);
}
);
width = 849;
}
);
note = uni1EEA;
unicode = 1EEA;
},
{
glyphname = uni1EEC;
lastChange = "2019-09-03 21:22:04 +0000";
layers = (
{
hints = (
{
horizontal = 1;
place = "{0, 138}";
type = Stem;
},
{
horizontal = 1;
place = "{595, 142}";
type = Stem;
},
{
horizontal = 1;
place = "{908, 122}";
type = Stem;
},
{
place = "{227, 179}";
type = Stem;
},
{
place = "{445, 184}";
type = Stem;
},
{
horizontal = 1;
place = "{782, 98}";
type = Stem;
},
{
place = "{315, 81}";
type = Stem;
},
{
place = "{453, 82}";
type = Stem;
}
);
layerId = "59338637-1E5C-47E2-9B1C-5C70074789A9";
paths = (
{
closed = 1;
nodes = (
"702 0 LINE",
"816 94 LINE",
"816 595 LINE",
"991 595 LINE",
"1153 801 LINE",
"876 801 LINE",
"856 689 LINE",
"816 689 LINE",
"816 737 LINE",
"453 737 LINE",
"453 138 LINE",
"396 138 LINE",
"396 737 LINE",
"33 737 LINE",
"33 94 LINE",
"147 0 LINE"
);
},
{
closed = 1;
nodes = (
"535 782 LINE",
"535 814 LINE",
"575 814 LINE",
"629 868 LINE",
"629 975 LINE",
"564 1030 LINE",
"292 1030 LINE",
"227 975 LINE",
"227 908 LINE",
"406 908 LINE",
"406 960 LINE",
"445 960 LINE",
"445 880 LINE",
"361 880 LINE",
"315 834 LINE",
"315 782 LINE"
);
}
);
width = 849;
}
);
note = uni1EEC;
unicode = 1EEC;
},
{
glyphname = uni1EEE;
lastChange = "2019-09-03 21:22:04 +0000";
layers = (
{
hints = (
{
horizontal = 1;
place = "{0, 138}";
type = Stem;
},
{
horizontal = 1;
place = "{595, 142}";
type = Stem;
},
{
horizontal = 1;
place = "{789, 168}";
type = Stem;
},
{
place = "{158, 155}";
type = Stem;
},
{
place = "{536, 156}";
type = Stem;
},
{
horizontal = 1;
place = "{783, 169}";
type = Stem;
}
);
layerId = "59338637-1E5C-47E2-9B1C-5C70074789A9";
paths = (
{
closed = 1;
nodes = (
"702 0 LINE",
"816 94 LINE",
"816 595 LINE",
"991 595 LINE",
"1153 801 LINE",
"876 801 LINE",
"856 689 LINE",
"816 689 LINE",
"816 737 LINE",
"453 737 LINE",
"453 138 LINE",
"396 138 LINE",
"396 737 LINE",
"33 737 LINE",
"33 94 LINE",
"147 0 LINE"
);
},
{
closed = 1;
nodes = (
"599 783 LINE",
"692 859 LINE",
"692 952 LINE",
"536 952 LINE",
"536 910 LINE",
"501 910 LINE",
"446 957 LINE",
"250 957 LINE",
"158 881 LINE",
"158 789 LINE",
"313 789 LINE",
"313 831 LINE",
"348 831 LINE",
"403 783 LINE"
);
}
);
width = 849;
}
);
note = uni1EEE;
unicode = 1EEE;
},
{
glyphname = Uhungarumlaut;
lastChange = "2019-09-03 21:32:39 +0000";
layers = (
{
hints = (
{
horizontal = 1;
place = "{0, 138}";
type = Stem;
},
{
horizontal = 1;
place = "{783, 169}";
type = Stem;
},
{
place = "{33, 814}";
type = Stem;
}
);
layerId = "59338637-1E5C-47E2-9B1C-5C70074789A9";
paths = (
{
closed = 1;
nodes = (
"702 0 LINE",
"816 94 LINE",
"816 737 LINE",
"453 737 LINE",
"453 138 LINE",
"396 138 LINE",
"396 737 LINE",
"33 737 LINE",
"33 94 LINE",
"147 0 LINE"
);
},
{
closed = 1;
nodes = (
"387 783 LINE",
"558 952 LINE",
"288 952 LINE",
"192 783 LINE"
);
},
{
closed = 1;
nodes = (
"675 783 LINE",
"847 952 LINE",
"576 952 LINE",
"480 783 LINE"
);
}
);
width = 849;
}
);
note = Uhungarumlaut;
unicode = 0170;
},
{
glyphname = uni0216;
lastChange = "2019-09-03 21:22:04 +0000";
layers = (
{
hints = (
{
horizontal = 1;
place = "{0, 138}";
type = Stem;
},
{
horizontal = 1;
place = "{783, 169}";
type = Stem;
},
{
place = "{188, 208}";
type = Stem;
},
{
place = "{453, 208}";
type = Stem;
}
);
layerId = "59338637-1E5C-47E2-9B1C-5C70074789A9";
paths = (
{
closed = 1;
nodes = (
"702 0 LINE",
"816 94 LINE",
"816 737 LINE",
"453 737 LINE",
"453 138 LINE",
"396 138 LINE",
"396 737 LINE",
"33 737 LINE",
"33 94 LINE",
"147 0 LINE"
);
},
{
closed = 1;
nodes = (
"362 783 LINE",
"362 825 LINE",
"487 825 LINE",
"487 783 LINE",
"661 783 LINE",
"661 865 LINE",
"565 952 LINE",
"283 952 LINE",
"188 865 LINE",
"188 783 LINE"
);
}
);
width = 849;
}
);
note = uni0216;
unicode = 0216;
},
{
glyphname = Umacron;
lastChange = "2019-09-03 21:22:04 +0000";
layers = (
{
hints = (
{
horizontal = 1;
place = "{0, 138}";
type = Stem;
},
{
horizontal = 1;
place = "{783, 169}";
type = Stem;
},
{
place = "{128, 268}";
type = Stem;
},
{
place = "{453, 269}";
type = Stem;
}
);
layerId = "59338637-1E5C-47E2-9B1C-5C70074789A9";
paths = (
{
closed = 1;
nodes = (
"702 0 LINE",
"816 94 LINE",
"816 737 LINE",
"453 737 LINE",
"453 138 LINE",
"396 138 LINE",
"396 737 LINE",
"33 737 LINE",
"33 94 LINE",
"147 0 LINE"
);
},
{
closed = 1;
nodes = (
"722 783 LINE",
"722 952 LINE",
"128 952 LINE",
"128 783 LINE"
);
}
);
width = 849;
}
);
note = Umacron;
unicode = 016A;
},
{
glyphname = Uogonek;
lastChange = "2019-09-03 21:22:04 +0000";
layers = (
{
hints = (
{
horizontal = 1;
place = "{-198, 143}";
type = Stem;
},
{
horizontal = 1;
place = "{0, 138}";
type = Stem;
},
{
place = "{334, 188}";
type = Stem;
}
);
layerId = "59338637-1E5C-47E2-9B1C-5C70074789A9";
paths = (
{
closed = 1;
nodes = (
"522 -198 LINE",
"522 -55 LINE",
"501 -55 LINE",
"488 -44 LINE",
"488 -23 LINE",
"517 0 LINE",
"702 0 LINE",
"816 94 LINE",
"816 737 LINE",
"453 737 LINE",
"453 138 LINE",
"396 138 LINE",
"396 737 LINE",
"33 737 LINE",
"33 94 LINE",
"147 0 LINE",
"380 0 LINE",
"334 -33 LINE",
"334 -127 LINE",
"422 -198 LINE"
);
}
);
width = 849;
}
);
note = Uogonek;
unicode = 0172;
},
{
glyphname = Uring;
lastChange = "2019-09-03 21:22:04 +0000";
layers = (
{
hints = (
{
horizontal = 1;
place = "{0, 138}";
type = Stem;
},
{
horizontal = 1;
place = "{783, 107}";
type = Stem;
},
{
horizontal = 1;
place = "{925, 107}";
type = Stem;
},
{
place = "{281, 115}";
type = Stem;
},
{
place = "{453, 116}";
type = Stem;
}
);
layerId = "59338637-1E5C-47E2-9B1C-5C70074789A9";
paths = (
{
closed = 1;
nodes = (
"702 0 LINE",
"816 94 LINE",
"816 737 LINE",
"453 737 LINE",
"453 138 LINE",
"396 138 LINE",
"396 737 LINE",
"33 737 LINE",
"33 94 LINE",
"147 0 LINE"
);
},
{
closed = 1;
nodes = (
"490 783 LINE",
"569 862 LINE",
"569 953 LINE",
"490 1032 LINE",
"360 1032 LINE",
"281 953 LINE",
"281 862 LINE",
"360 783 LINE"
);
},
{
closed = 1;
nodes = (
"408 901 LINE",
"408 914 LINE",
"419 925 LINE",
"432 925 LINE",
"443 914 LINE",
"443 901 LINE",
"432 890 LINE",
"419 890 LINE"
);
}
);
width = 849;
}
);
note = Uring;
unicode = 016E;
},
{
glyphname = Utilde;
lastChange = "2019-09-03 21:22:04 +0000";
layers = (
{
hints = (
{
horizontal = 1;
place = "{0, 138}";
type = Stem;
},
{
horizontal = 1;
place = "{789, 168}";
type = Stem;
},
{
place = "{158, 155}";
type = Stem;
},
{
place = "{536, 156}";
type = Stem;
},
{
horizontal = 1;
place = "{783, 169}";
type = Stem;
}
);
layerId = "59338637-1E5C-47E2-9B1C-5C70074789A9";
paths = (
{
closed = 1;
nodes = (
"702 0 LINE",
"816 94 LINE",
"816 737 LINE",
"453 737 LINE",
"453 138 LINE",
"396 138 LINE",
"396 737 LINE",
"33 737 LINE",
"33 94 LINE",
"147 0 LINE"
);
},
{
closed = 1;
nodes = (
"599 783 LINE",
"692 859 LINE",
"692 952 LINE",
"536 952 LINE",
"536 910 LINE",
"501 910 LINE",
"446 957 LINE",
"250 957 LINE",
"158 881 LINE",
"158 789 LINE",
"313 789 LINE",
"313 831 LINE",
"348 831 LINE",
"403 783 LINE"
);
}
);
width = 849;
}
);
note = Utilde;
unicode = 0168;
},
{
glyphname = V;
lastChange = "2019-09-03 21:22:04 +0000";
layers = (
{
hints = (
{
horizontal = 1;
place = "{0, 138}";
type = Stem;
},
{
place = "{33, 783}";
type = Stem;
}
);
layerId = "59338637-1E5C-47E2-9B1C-5C70074789A9";
paths = (
{
closed = 1;
nodes = (
"629 0 LINE",
"816 333 LINE",
"816 737 LINE",
"453 737 LINE",
"453 138 LINE",
"396 138 LINE",
"396 737 LINE",
"33 737 LINE",
"33 333 LINE",
"220 0 LINE"
);
}
);
width = 849;
}
);
leftKerningGroup = V;
note = V;
rightKerningGroup = V;
unicode = 0056;
},
{
glyphname = W;
lastChange = "2019-09-03 21:22:04 +0000";
layers = (
{
hints = (
{
horizontal = 1;
place = "{0, 138}";
type = Stem;
},
{
place = "{442, 330}";
type = Stem;
}
);
layerId = "59338637-1E5C-47E2-9B1C-5C70074789A9";
paths = (
{
closed = 1;
nodes = (
"547 0 LINE",
"607 79 LINE",
"668 0 LINE",
"1005 0 LINE",
"1192 321 LINE",
"1192 737 LINE",
"829 737 LINE",
"829 138 LINE",
"772 138 LINE",
"772 737 LINE",
"442 737 LINE",
"442 138 LINE",
"385 138 LINE",
"385 737 LINE",
"22 737 LINE",
"22 321 LINE",
"209 0 LINE"
);
}
);
width = 1214;
}
);
leftKerningGroup = W;
note = W;
rightKerningGroup = W;
unicode = 0057;
},
{
glyphname = Wacute;
lastChange = "2019-09-03 21:22:04 +0000";
layers = (
{
hints = (
{
horizontal = 1;
place = "{0, 138}";
type = Stem;
},
{
horizontal = 1;
place = "{783, 169}";
type = Stem;
},
{
place = "{442, 330}";
type = Stem;
}
);
layerId = "59338637-1E5C-47E2-9B1C-5C70074789A9";
paths = (
{
closed = 1;
nodes = (
"547 0 LINE",
"607 79 LINE",
"668 0 LINE",
"1005 0 LINE",
"1192 321 LINE",
"1192 737 LINE",
"829 737 LINE",
"829 138 LINE",
"772 138 LINE",
"772 737 LINE",
"442 737 LINE",
"442 138 LINE",
"385 138 LINE",
"385 737 LINE",
"22 737 LINE",
"22 321 LINE",
"209 0 LINE"
);
},
{
closed = 1;
nodes = (
"721 783 LINE",
"892 952 LINE",
"628 952 LINE",
"515 783 LINE"
);
}
);
width = 1214;
}
);
leftKerningGroup = W;
note = Wacute;
rightKerningGroup = W;
unicode = 1E82;
},
{
glyphname = Wcircumflex;
lastChange = "2019-09-03 21:22:04 +0000";
layers = (
{
hints = (
{
horizontal = 1;
place = "{0, 138}";
type = Stem;
},
{
horizontal = 1;
place = "{783, 169}";
type = Stem;
},
{
place = "{314, 71}";
type = Stem;
},
{
place = "{442, 330}";
type = Stem;
},
{
place = "{829, 70}";
type = Stem;
}
);
layerId = "59338637-1E5C-47E2-9B1C-5C70074789A9";
paths = (
{
closed = 1;
nodes = (
"547 0 LINE",
"607 79 LINE",
"668 0 LINE",
"1005 0 LINE",
"1192 321 LINE",
"1192 737 LINE",
"829 737 LINE",
"829 138 LINE",
"772 138 LINE",
"772 737 LINE",
"442 737 LINE",
"442 138 LINE",
"385 138 LINE",
"385 737 LINE",
"22 737 LINE",
"22 321 LINE",
"209 0 LINE"
);
},
{
closed = 1;
nodes = (
"529 783 LINE",
"607 860 LINE",
"685 783 LINE",
"899 783 LINE",
"771 952 LINE",
"443 952 LINE",
"314 783 LINE"
);
}
);
width = 1214;
}
);
leftKerningGroup = W;
note = Wcircumflex;
rightKerningGroup = W;
unicode = 0174;
},
{
glyphname = Wdieresis;
lastChange = "2019-09-03 21:22:04 +0000";
layers = (
{
hints = (
{
horizontal = 1;
place = "{0, 138}";
type = Stem;
},
{
horizontal = 1;
place = "{783, 169}";
type = Stem;
},
{
place = "{311, 74}";
type = Stem;
},
{
place = "{442, 143}";
type = Stem;
},
{
place = "{631, 141}";
type = Stem;
},
{
place = "{829, 76}";
type = Stem;
}
);
layerId = "59338637-1E5C-47E2-9B1C-5C70074789A9";
paths = (
{
closed = 1;
nodes = (
"547 0 LINE",
"607 79 LINE",
"668 0 LINE",
"1005 0 LINE",
"1192 321 LINE",
"1192 737 LINE",
"829 737 LINE",
"829 138 LINE",
"772 138 LINE",
"772 737 LINE",
"442 737 LINE",
"442 138 LINE",
"385 138 LINE",
"385 737 LINE",
"22 737 LINE",
"22 321 LINE",
"209 0 LINE"
);
},
{
closed = 1;
nodes = (
"585 783 LINE",
"585 952 LINE",
"311 952 LINE",
"311 783 LINE"
);
},
{
closed = 1;
nodes = (
"905 783 LINE",
"905 952 LINE",
"631 952 LINE",
"631 783 LINE"
);
}
);
width = 1214;
}
);
leftKerningGroup = W;
note = Wdieresis;
rightKerningGroup = W;
unicode = 1E84;
},
{
glyphname = Wgrave;
lastChange = "2019-09-03 21:22:04 +0000";
layers = (
{
hints = (
{
horizontal = 1;
place = "{0, 138}";
type = Stem;
},
{
horizontal = 1;
place = "{783, 169}";
type = Stem;
},
{
place = "{442, 330}";
type = Stem;
}
);
layerId = "59338637-1E5C-47E2-9B1C-5C70074789A9";
paths = (
{
closed = 1;
nodes = (
"547 0 LINE",
"607 79 LINE",
"668 0 LINE",
"1005 0 LINE",
"1192 321 LINE",
"1192 737 LINE",
"829 737 LINE",
"829 138 LINE",
"772 138 LINE",
"772 737 LINE",
"442 737 LINE",
"442 138 LINE",
"385 138 LINE",
"385 737 LINE",
"22 737 LINE",
"22 321 LINE",
"209 0 LINE"
);
},
{
closed = 1;
nodes = (
"709 783 LINE",
"596 952 LINE",
"332 952 LINE",
"503 783 LINE"
);
}
);
width = 1214;
}
);
leftKerningGroup = W;
note = Wgrave;
rightKerningGroup = W;
unicode = 1E80;
},
{
glyphname = X;
lastChange = "2019-09-03 21:22:04 +0000";
layers = (
{
hints = (
{
horizontal = 1;
place = "{0, 737}";
type = Stem;
},
{
place = "{33, 781}";
type = Stem;
},
{
horizontal = 1;
place = "{275, 235}";
type = Stem;
}
);
layerId = "59338637-1E5C-47E2-9B1C-5C70074789A9";
paths = (
{
closed = 1;
nodes = (
"396 0 LINE",
"396 275 LINE",
"451 275 LINE",
"451 0 LINE",
"814 0 LINE",
"814 311 LINE",
"721 393 LINE",
"814 473 LINE",
"814 737 LINE",
"451 737 LINE",
"451 510 LINE",
"396 510 LINE",
"396 737 LINE",
"33 737 LINE",
"33 473 LINE",
"127 393 LINE",
"33 311 LINE",
"33 0 LINE"
);
}
);
width = 847;
}
);
note = X;
unicode = 0058;
},
{
glyphname = Y;
lastChange = "2019-09-03 21:22:04 +0000";
layers = (
{
hints = (
{
horizontal = 1;
place = "{0, 737}";
type = Stem;
},
{
place = "{231, 154}";
type = Stem;
},
{
place = "{440, 154}";
type = Stem;
}
);
layerId = "59338637-1E5C-47E2-9B1C-5C70074789A9";
paths = (
{
closed = 1;
nodes = (
"594 0 LINE",
"594 205 LINE",
"803 385 LINE",
"803 737 LINE",
"440 737 LINE",
"440 367 LINE",
"385 367 LINE",
"385 737 LINE",
"22 737 LINE",
"22 385 LINE",
"231 206 LINE",
"231 0 LINE"
);
}
);
width = 825;
}
);
leftKerningGroup = Y;
note = Y;
rightKerningGroup = Y;
unicode = 0059;
},
{
glyphname = Yacute;
lastChange = "2019-09-03 21:22:04 +0000";
layers = (
{
hints = (
{
horizontal = 1;
place = "{783, 169}";
type = Stem;
},
{
place = "{231, 154}";
type = Stem;
},
{
place = "{440, 154}";
type = Stem;
}
);
layerId = "59338637-1E5C-47E2-9B1C-5C70074789A9";
paths = (
{
closed = 1;
nodes = (
"594 0 LINE",
"594 205 LINE",
"803 385 LINE",
"803 737 LINE",
"440 737 LINE",
"440 367 LINE",
"385 367 LINE",
"385 737 LINE",
"22 737 LINE",
"22 385 LINE",
"231 206 LINE",
"231 0 LINE"
);
},
{
closed = 1;
nodes = (
"527 783 LINE",
"698 952 LINE",
"434 952 LINE",
"321 783 LINE"
);
}
);
width = 825;
}
);
leftKerningGroup = Y;
note = Yacute;
rightKerningGroup = Y;
unicode = 00DD;
},
{
glyphname = Ycircumflex;
lastChange = "2019-09-03 21:22:04 +0000";
layers = (
{
hints = (
{
horizontal = 1;
place = "{783, 169}";
type = Stem;
},
{
place = "{231, 154}";
type = Stem;
},
{
place = "{440, 154}";
type = Stem;
}
);
layerId = "59338637-1E5C-47E2-9B1C-5C70074789A9";
paths = (
{
closed = 1;
nodes = (
"594 0 LINE",
"594 205 LINE",
"803 385 LINE",
"803 737 LINE",
"440 737 LINE",
"440 367 LINE",
"385 367 LINE",
"385 737 LINE",
"22 737 LINE",
"22 385 LINE",
"231 206 LINE",
"231 0 LINE"
);
},
{
closed = 1;
nodes = (
"335 783 LINE",
"413 860 LINE",
"491 783 LINE",
"705 783 LINE",
"577 952 LINE",
"249 952 LINE",
"120 783 LINE"
);
}
);
width = 825;
}
);
leftKerningGroup = Y;
note = Ycircumflex;
rightKerningGroup = Y;
unicode = 0176;
},
{
glyphname = Ydieresis;
lastChange = "2019-09-03 21:22:04 +0000";
layers = (
{
hints = (
{
horizontal = 1;
place = "{783, 169}";
type = Stem;
},
{
place = "{117, 274}";
type = Stem;
},
{
place = "{437, 274}";
type = Stem;
},
{
place = "{231, 154}";
type = Stem;
},
{
place = "{440, 154}";
type = Stem;
}
);
layerId = "59338637-1E5C-47E2-9B1C-5C70074789A9";
paths = (
{
closed = 1;
nodes = (
"594 0 LINE",
"594 205 LINE",
"803 385 LINE",
"803 737 LINE",
"440 737 LINE",
"440 367 LINE",
"385 367 LINE",
"385 737 LINE",
"22 737 LINE",
"22 385 LINE",
"231 206 LINE",
"231 0 LINE"
);
},
{
closed = 1;
nodes = (
"391 783 LINE",
"391 952 LINE",
"117 952 LINE",
"117 783 LINE"
);
},
{
closed = 1;
nodes = (
"711 783 LINE",
"711 952 LINE",
"437 952 LINE",
"437 783 LINE"
);
}
);
width = 825;
}
);
leftKerningGroup = Y;
note = Ydieresis;
rightKerningGroup = Y;
unicode = 0178;
},
{
glyphname = uni1EF4;
lastChange = "2019-09-03 21:22:04 +0000";
layers = (
{
hints = (
{
horizontal = 1;
place = "{-215, 169}";
type = Stem;
},
{
place = "{231, 154}";
type = Stem;
},
{
place = "{440, 154}";
type = Stem;
},
{
place = "{259, 307}";
type = Stem;
}
);
layerId = "59338637-1E5C-47E2-9B1C-5C70074789A9";
paths = (
{
closed = 1;
nodes = (
"594 0 LINE",
"594 205 LINE",
"803 385 LINE",
"803 737 LINE",
"440 737 LINE",
"440 367 LINE",
"385 367 LINE",
"385 737 LINE",
"22 737 LINE",
"22 385 LINE",
"231 206 LINE",
"231 0 LINE"
);
},
{
closed = 1;
nodes = (
"566 -215 LINE",
"566 -46 LINE",
"259 -46 LINE",
"259 -215 LINE"
);
}
);
width = 825;
}
);
leftKerningGroup = Y;
note = uni1EF4;
rightKerningGroup = Y;
unicode = 1EF4;
},
{
glyphname = Ygrave;
lastChange = "2019-09-03 21:22:04 +0000";
layers = (
{
hints = (
{
horizontal = 1;
place = "{783, 169}";
type = Stem;
},
{
place = "{231, 154}";
type = Stem;
},
{
place = "{440, 154}";
type = Stem;
}
);
layerId = "59338637-1E5C-47E2-9B1C-5C70074789A9";
paths = (
{
closed = 1;
nodes = (
"594 0 LINE",
"594 205 LINE",
"803 385 LINE",
"803 737 LINE",
"440 737 LINE",
"440 367 LINE",
"385 367 LINE",
"385 737 LINE",
"22 737 LINE",
"22 385 LINE",
"231 206 LINE",
"231 0 LINE"
);
},
{
closed = 1;
nodes = (
"515 783 LINE",
"402 952 LINE",
"138 952 LINE",
"309 783 LINE"
);
}
);
width = 825;
}
);
leftKerningGroup = Y;
note = Ygrave;
rightKerningGroup = Y;
unicode = 1EF2;
},
{
glyphname = uni1EF6;
lastChange = "2019-09-03 21:22:04 +0000";
layers = (
{
hints = (
{
horizontal = 1;
place = "{908, 122}";
type = Stem;
},
{
place = "{215, 179}";
type = Stem;
},
{
place = "{433, 184}";
type = Stem;
},
{
horizontal = 1;
place = "{782, 98}";
type = Stem;
},
{
place = "{303, 82}";
type = Stem;
},
{
place = "{440, 83}";
type = Stem;
}
);
layerId = "59338637-1E5C-47E2-9B1C-5C70074789A9";
paths = (
{
closed = 1;
nodes = (
"594 0 LINE",
"594 205 LINE",
"803 385 LINE",
"803 737 LINE",
"440 737 LINE",
"440 367 LINE",
"385 367 LINE",
"385 737 LINE",
"22 737 LINE",
"22 385 LINE",
"231 206 LINE",
"231 0 LINE"
);
},
{
closed = 1;
nodes = (
"523 782 LINE",
"523 814 LINE",
"563 814 LINE",
"617 868 LINE",
"617 975 LINE",
"552 1030 LINE",
"280 1030 LINE",
"215 975 LINE",
"215 908 LINE",
"394 908 LINE",
"394 960 LINE",
"433 960 LINE",
"433 880 LINE",
"349 880 LINE",
"303 834 LINE",
"303 782 LINE"
);
}
);
width = 825;
}
);
leftKerningGroup = Y;
note = uni1EF6;
rightKerningGroup = Y;
unicode = 1EF6;
},
{
glyphname = uni0232;
lastChange = "2019-09-03 21:22:04 +0000";
layers = (
{
hints = (
{
horizontal = 1;
place = "{783, 169}";
type = Stem;
},
{
place = "{231, 154}";
type = Stem;
},
{
place = "{440, 154}";
type = Stem;
}
);
layerId = "59338637-1E5C-47E2-9B1C-5C70074789A9";
paths = (
{
closed = 1;
nodes = (
"594 0 LINE",
"594 205 LINE",
"803 385 LINE",
"803 737 LINE",
"440 737 LINE",
"440 367 LINE",
"385 367 LINE",
"385 737 LINE",
"22 737 LINE",
"22 385 LINE",
"231 206 LINE",
"231 0 LINE"
);
},
{
closed = 1;
nodes = (
"710 783 LINE",
"710 952 LINE",
"116 952 LINE",
"116 783 LINE"
);
}
);
width = 825;
}
);
leftKerningGroup = Y;
note = uni0232;
rightKerningGroup = Y;
unicode = 0232;
},
{
glyphname = uni1EF8;
lastChange = "2019-09-03 21:22:04 +0000";
layers = (
{
hints = (
{
horizontal = 1;
place = "{789, 168}";
type = Stem;
},
{
place = "{146, 155}";
type = Stem;
},
{
place = "{524, 156}";
type = Stem;
},
{
horizontal = 1;
place = "{783, 169}";
type = Stem;
},
{
place = "{231, 154}";
type = Stem;
},
{
place = "{440, 154}";
type = Stem;
}
);
layerId = "59338637-1E5C-47E2-9B1C-5C70074789A9";
paths = (
{
closed = 1;
nodes = (
"594 0 LINE",
"594 205 LINE",
"803 385 LINE",
"803 737 LINE",
"440 737 LINE",
"440 367 LINE",
"385 367 LINE",
"385 737 LINE",
"22 737 LINE",
"22 385 LINE",
"231 206 LINE",
"231 0 LINE"
);
},
{
closed = 1;
nodes = (
"587 783 LINE",
"680 859 LINE",
"680 952 LINE",
"524 952 LINE",
"524 910 LINE",
"489 910 LINE",
"434 957 LINE",
"238 957 LINE",
"146 881 LINE",
"146 789 LINE",
"301 789 LINE",
"301 831 LINE",
"336 831 LINE",
"391 783 LINE"
);
}
);
width = 825;
}
);
leftKerningGroup = Y;
note = uni1EF8;
rightKerningGroup = Y;
unicode = 1EF8;
},
{
glyphname = Z;
lastChange = "2019-09-03 21:22:04 +0000";
layers = (
{
hints = (
{
horizontal = 1;
place = "{0, 237}";
type = Stem;
},
{
horizontal = 1;
place = "{501, 236}";
type = Stem;
},
{
place = "{22, 716}";
type = Stem;
}
);
layerId = "59338637-1E5C-47E2-9B1C-5C70074789A9";
paths = (
{
closed = 1;
nodes = (
"738 0 LINE",
"738 237 LINE",
"465 237 LINE",
"738 501 LINE",
"738 737 LINE",
"34 737 LINE",
"34 501 LINE",
"295 501 LINE",
"22 237 LINE",
"22 0 LINE"
);
}
);
width = 760;
}
);
note = Z;
unicode = 005A;
},
{
glyphname = Zacute;
lastChange = "2019-09-03 21:22:04 +0000";
layers = (
{
hints = (
{
horizontal = 1;
place = "{0, 237}";
type = Stem;
},
{
horizontal = 1;
place = "{501, 236}";
type = Stem;
},
{
horizontal = 1;
place = "{783, 169}";
type = Stem;
},
{
place = "{22, 716}";
type = Stem;
}
);
layerId = "59338637-1E5C-47E2-9B1C-5C70074789A9";
paths = (
{
closed = 1;
nodes = (
"738 0 LINE",
"738 237 LINE",
"465 237 LINE",
"738 501 LINE",
"738 737 LINE",
"34 737 LINE",
"34 501 LINE",
"295 501 LINE",
"22 237 LINE",
"22 0 LINE"
);
},
{
closed = 1;
nodes = (
"495 783 LINE",
"666 952 LINE",
"402 952 LINE",
"289 783 LINE"
);
}
);
width = 760;
}
);
note = Zacute;
unicode = 0179;
},
{
glyphname = Zcaron;
lastChange = "2019-09-03 21:22:04 +0000";
layers = (
{
hints = (
{
horizontal = 1;
place = "{0, 237}";
type = Stem;
},
{
horizontal = 1;
place = "{501, 236}";
type = Stem;
},
{
horizontal = 1;
place = "{783, 169}";
type = Stem;
},
{
place = "{22, 716}";
type = Stem;
}
);
layerId = "59338637-1E5C-47E2-9B1C-5C70074789A9";
paths = (
{
closed = 1;
nodes = (
"738 0 LINE",
"738 237 LINE",
"465 237 LINE",
"738 501 LINE",
"738 737 LINE",
"34 737 LINE",
"34 501 LINE",
"295 501 LINE",
"22 237 LINE",
"22 0 LINE"
);
},
{
closed = 1;
nodes = (
"544 783 LINE",
"673 952 LINE",
"458 952 LINE",
"380 875 LINE",
"302 952 LINE",
"88 952 LINE",
"216 783 LINE"
);
}
);
width = 760;
}
);
note = Zcaron;
unicode = 017D;
},
{
glyphname = Zdotaccent;
lastChange = "2019-09-03 21:22:04 +0000";
layers = (
{
hints = (
{
horizontal = 1;
place = "{0, 237}";
type = Stem;
},
{
horizontal = 1;
place = "{501, 236}";
type = Stem;
},
{
horizontal = 1;
place = "{783, 168}";
type = Stem;
},
{
place = "{227, 307}";
type = Stem;
}
);
layerId = "59338637-1E5C-47E2-9B1C-5C70074789A9";
paths = (
{
closed = 1;
nodes = (
"738 0 LINE",
"738 237 LINE",
"465 237 LINE",
"738 501 LINE",
"738 737 LINE",
"34 737 LINE",
"34 501 LINE",
"295 501 LINE",
"22 237 LINE",
"22 0 LINE"
);
},
{
closed = 1;
nodes = (
"534 783 LINE",
"534 951 LINE",
"227 951 LINE",
"227 783 LINE"
);
}
);
width = 760;
}
);
note = Zdotaccent;
unicode = 017B;
},
{
glyphname = a;
lastChange = "2019-09-03 21:22:04 +0000";
layers = (
{
hints = (
{
horizontal = 1;
place = "{242, 80}";
type = Stem;
},
{
horizontal = 1;
place = "{369, 154}";
type = Stem;
},
{
place = "{11, 274}";
type = Stem;
},
{
place = "{331, 307}";
type = Stem;
}
);
layerId = "59338637-1E5C-47E2-9B1C-5C70074789A9";
paths = (
{
closed = 1;
nodes = (
"278 0 LINE",
"331 58 LINE",
"331 0 LINE",
"638 0 LINE",
"638 429 LINE",
"524 523 LINE",
"73 523 LINE",
"73 369 LINE",
"331 369 LINE",
"331 322 LINE",
"105 322 LINE",
"11 208 LINE",
"11 114 LINE",
"105 0 LINE"
);
},
{
closed = 1;
nodes = (
"285 242 LINE",
"331 242 LINE",
"331 154 LINE",
"322 144 LINE",
"285 102 LINE"
);
}
);
width = 671;
}
);
leftKerningGroup = a;
note = a;
rightKerningGroup = a;
unicode = 0061;
},
{
glyphname = aacute;
lastChange = "2019-09-03 21:22:04 +0000";
layers = (
{
hints = (
{
horizontal = 1;
place = "{242, 80}";
type = Stem;
},
{
horizontal = 1;
place = "{369, 154}";
type = Stem;
},
{
horizontal = 1;
place = "{569, 169}";
type = Stem;
},
{
place = "{11, 274}";
type = Stem;
},
{
place = "{331, 307}";
type = Stem;
}
);
layerId = "59338637-1E5C-47E2-9B1C-5C70074789A9";
paths = (
{
closed = 1;
nodes = (
"278 0 LINE",
"331 58 LINE",
"331 0 LINE",
"638 0 LINE",
"638 429 LINE",
"524 523 LINE",
"73 523 LINE",
"73 369 LINE",
"331 369 LINE",
"331 322 LINE",
"105 322 LINE",
"11 208 LINE",
"11 114 LINE",
"105 0 LINE"
);
},
{
closed = 1;
nodes = (
"285 242 LINE",
"331 242 LINE",
"331 154 LINE",
"322 144 LINE",
"285 102 LINE"
);
},
{
closed = 1;
nodes = (
"461 569 LINE",
"632 738 LINE",
"368 738 LINE",
"255 569 LINE"
);
}
);
width = 671;
}
);
leftKerningGroup = a;
note = aacute;
rightKerningGroup = a;
unicode = 00E1;
},
{
glyphname = abreve;
lastChange = "2019-09-03 21:22:04 +0000";
layers = (
{
hints = (
{
horizontal = 1;
place = "{242, 80}";
type = Stem;
},
{
horizontal = 1;
place = "{369, 154}";
type = Stem;
},
{
horizontal = 1;
place = "{569, 169}";
type = Stem;
},
{
place = "{76, 226}";
type = Stem;
},
{
place = "{392, 225}";
type = Stem;
},
{
place = "{11, 274}";
type = Stem;
},
{
place = "{331, 307}";
type = Stem;
}
);
layerId = "59338637-1E5C-47E2-9B1C-5C70074789A9";
paths = (
{
closed = 1;
nodes = (
"278 0 LINE",
"331 58 LINE",
"331 0 LINE",
"638 0 LINE",
"638 429 LINE",
"524 523 LINE",
"73 523 LINE",
"73 369 LINE",
"331 369 LINE",
"331 322 LINE",
"105 322 LINE",
"11 208 LINE",
"11 114 LINE",
"105 0 LINE"
);
},
{
closed = 1;
nodes = (
"285 242 LINE",
"331 242 LINE",
"331 154 LINE",
"322 144 LINE",
"285 102 LINE"
);
},
{
closed = 1;
nodes = (
"503 569 LINE",
"617 663 LINE",
"617 738 LINE",
"392 738 LINE",
"392 690 LINE",
"302 690 LINE",
"302 738 LINE",
"76 738 LINE",
"76 663 LINE",
"190 569 LINE"
);
}
);
width = 671;
}
);
leftKerningGroup = a;
note = abreve;
rightKerningGroup = a;
unicode = 0103;
},
{
glyphname = uni1EAF;
lastChange = "2019-09-03 21:22:04 +0000";
layers = (
{
hints = (
{
horizontal = 1;
place = "{242, 80}";
type = Stem;
},
{
horizontal = 1;
place = "{369, 154}";
type = Stem;
},
{
horizontal = 1;
place = "{569, 169}";
type = Stem;
},
{
horizontal = 1;
place = "{767, 169}";
type = Stem;
},
{
place = "{11, 274}";
type = Stem;
},
{
place = "{331, 307}";
type = Stem;
},
{
place = "{76, 226}";
type = Stem;
},
{
place = "{392, 225}";
type = Stem;
}
);
layerId = "59338637-1E5C-47E2-9B1C-5C70074789A9";
paths = (
{
closed = 1;
nodes = (
"278 0 LINE",
"331 58 LINE",
"331 0 LINE",
"638 0 LINE",
"638 429 LINE",
"524 523 LINE",
"73 523 LINE",
"73 369 LINE",
"331 369 LINE",
"331 322 LINE",
"105 322 LINE",
"11 208 LINE",
"11 114 LINE",
"105 0 LINE"
);
},
{
closed = 1;
nodes = (
"285 242 LINE",
"331 242 LINE",
"331 154 LINE",
"322 144 LINE",
"285 102 LINE"
);
},
{
closed = 1;
nodes = (
"503 569 LINE",
"617 663 LINE",
"617 738 LINE",
"392 738 LINE",
"392 690 LINE",
"302 690 LINE",
"302 738 LINE",
"76 738 LINE",
"76 663 LINE",
"190 569 LINE"
);
},
{
closed = 1;
nodes = (
"451 767 LINE",
"622 936 LINE",
"358 936 LINE",
"245 767 LINE"
);
}
);
width = 671;
}
);
leftKerningGroup = a;
note = uni1EAF;
rightKerningGroup = a;
unicode = 1EAF;
},
{
glyphname = uni1EB7;
lastChange = "2019-09-03 21:22:04 +0000";
layers = (
{
hints = (
{
horizontal = 1;
place = "{-215, 169}";
type = Stem;
},
{
horizontal = 1;
place = "{242, 80}";
type = Stem;
},
{
horizontal = 1;
place = "{369, 154}";
type = Stem;
},
{
horizontal = 1;
place = "{569, 169}";
type = Stem;
},
{
place = "{76, 226}";
type = Stem;
},
{
place = "{392, 225}";
type = Stem;
},
{
place = "{193, 92}";
type = Stem;
},
{
place = "{331, 169}";
type = Stem;
},
{
place = "{331, 307}";
type = Stem;
}
);
layerId = "59338637-1E5C-47E2-9B1C-5C70074789A9";
paths = (
{
closed = 1;
nodes = (
"278 0 LINE",
"331 58 LINE",
"331 0 LINE",
"638 0 LINE",
"638 429 LINE",
"524 523 LINE",
"73 523 LINE",
"73 369 LINE",
"331 369 LINE",
"331 322 LINE",
"105 322 LINE",
"11 208 LINE",
"11 114 LINE",
"105 0 LINE"
);
},
{
closed = 1;
nodes = (
"500 -215 LINE",
"500 -46 LINE",
"193 -46 LINE",
"193 -215 LINE"
);
},
{
closed = 1;
nodes = (
"285 242 LINE",
"331 242 LINE",
"331 154 LINE",
"322 144 LINE",
"285 102 LINE"
);
},
{
closed = 1;
nodes = (
"503 569 LINE",
"617 663 LINE",
"617 738 LINE",
"392 738 LINE",
"392 690 LINE",
"302 690 LINE",
"302 738 LINE",
"76 738 LINE",
"76 663 LINE",
"190 569 LINE"
);
}
);
width = 671;
}
);
leftKerningGroup = a;
note = uni1EB7;
rightKerningGroup = a;
unicode = 1EB7;
},
{
glyphname = uni1EB1;
lastChange = "2019-09-03 21:22:04 +0000";
layers = (
{
hints = (
{
horizontal = 1;
place = "{242, 80}";
type = Stem;
},
{
horizontal = 1;
place = "{369, 154}";
type = Stem;
},
{
horizontal = 1;
place = "{569, 169}";
type = Stem;
},
{
horizontal = 1;
place = "{767, 169}";
type = Stem;
},
{
place = "{11, 274}";
type = Stem;
},
{
place = "{331, 307}";
type = Stem;
},
{
place = "{77, 225}";
type = Stem;
},
{
place = "{392, 226}";
type = Stem;
}
);
layerId = "59338637-1E5C-47E2-9B1C-5C70074789A9";
paths = (
{
closed = 1;
nodes = (
"278 0 LINE",
"331 58 LINE",
"331 0 LINE",
"638 0 LINE",
"638 429 LINE",
"524 523 LINE",
"73 523 LINE",
"73 369 LINE",
"331 369 LINE",
"331 322 LINE",
"105 322 LINE",
"11 208 LINE",
"11 114 LINE",
"105 0 LINE"
);
},
{
closed = 1;
nodes = (
"285 242 LINE",
"331 242 LINE",
"331 154 LINE",
"322 144 LINE",
"285 102 LINE"
);
},
{
closed = 1;
nodes = (
"504 569 LINE",
"618 663 LINE",
"618 738 LINE",
"392 738 LINE",
"392 690 LINE",
"302 690 LINE",
"302 738 LINE",
"77 738 LINE",
"77 663 LINE",
"191 569 LINE"
);
},
{
closed = 1;
nodes = (
"449 767 LINE",
"336 936 LINE",
"72 936 LINE",
"243 767 LINE"
);
}
);
width = 671;
}
);
leftKerningGroup = a;
note = uni1EB1;
rightKerningGroup = a;
unicode = 1EB1;
},
{
glyphname = uni1EB3;
lastChange = "2019-09-03 21:22:04 +0000";
layers = (
{
hints = (
{
horizontal = 1;
place = "{242, 80}";
type = Stem;
},
{
horizontal = 1;
place = "{369, 154}";
type = Stem;
},
{
horizontal = 1;
place = "{569, 169}";
type = Stem;
},
{
horizontal = 1;
place = "{893, 122}";
type = Stem;
},
{
place = "{146, 179}";
type = Stem;
},
{
place = "{364, 184}";
type = Stem;
},
{
horizontal = 1;
place = "{767, 98}";
type = Stem;
},
{
place = "{234, 68}";
type = Stem;
},
{
place = "{392, 62}";
type = Stem;
},
{
place = "{11, 274}";
type = Stem;
},
{
place = "{331, 307}";
type = Stem;
}
);
layerId = "59338637-1E5C-47E2-9B1C-5C70074789A9";
paths = (
{
closed = 1;
nodes = (
"278 0 LINE",
"331 58 LINE",
"331 0 LINE",
"638 0 LINE",
"638 429 LINE",
"524 523 LINE",
"73 523 LINE",
"73 369 LINE",
"331 369 LINE",
"331 322 LINE",
"105 322 LINE",
"11 208 LINE",
"11 114 LINE",
"105 0 LINE"
);
},
{
closed = 1;
nodes = (
"285 242 LINE",
"331 242 LINE",
"331 154 LINE",
"322 144 LINE",
"285 102 LINE"
);
},
{
closed = 1;
nodes = (
"503 569 LINE",
"617 663 LINE",
"617 738 LINE",
"392 738 LINE",
"392 690 LINE",
"302 690 LINE",
"302 738 LINE",
"76 738 LINE",
"76 663 LINE",
"190 569 LINE"
);
},
{
closed = 1;
nodes = (
"454 767 LINE",
"454 799 LINE",
"494 799 LINE",
"548 853 LINE",
"548 960 LINE",
"483 1015 LINE",
"211 1015 LINE",
"146 960 LINE",
"146 893 LINE",
"325 893 LINE",
"325 945 LINE",
"364 945 LINE",
"364 865 LINE",
"280 865 LINE",
"234 819 LINE",
"234 767 LINE"
);
}
);
width = 671;
}
);
leftKerningGroup = a;
note = uni1EB3;
rightKerningGroup = a;
unicode = 1EB3;
},
{
glyphname = uni1EB5;
lastChange = "2019-09-03 21:22:04 +0000";
layers = (
{
hints = (
{
horizontal = 1;
place = "{242, 80}";
type = Stem;
},
{
horizontal = 1;
place = "{369, 154}";
type = Stem;
},
{
horizontal = 1;
place = "{569, 169}";
type = Stem;
},
{
horizontal = 1;
place = "{773, 168}";
type = Stem;
},
{
place = "{80, 155}";
type = Stem;
},
{
place = "{458, 156}";
type = Stem;
},
{
horizontal = 1;
place = "{767, 169}";
type = Stem;
},
{
place = "{392, 225}";
type = Stem;
},
{
place = "{76, 226}";
type = Stem;
},
{
place = "{11, 274}";
type = Stem;
},
{
place = "{331, 307}";
type = Stem;
}
);
layerId = "59338637-1E5C-47E2-9B1C-5C70074789A9";
paths = (
{
closed = 1;
nodes = (
"278 0 LINE",
"331 58 LINE",
"331 0 LINE",
"638 0 LINE",
"638 429 LINE",
"524 523 LINE",
"73 523 LINE",
"73 369 LINE",
"331 369 LINE",
"331 322 LINE",
"105 322 LINE",
"11 208 LINE",
"11 114 LINE",
"105 0 LINE"
);
},
{
closed = 1;
nodes = (
"285 242 LINE",
"331 242 LINE",
"331 154 LINE",
"322 144 LINE",
"285 102 LINE"
);
},
{
closed = 1;
nodes = (
"503 569 LINE",
"617 663 LINE",
"617 738 LINE",
"392 738 LINE",
"392 690 LINE",
"302 690 LINE",
"302 738 LINE",
"76 738 LINE",
"76 663 LINE",
"190 569 LINE"
);
},
{
closed = 1;
nodes = (
"521 767 LINE",
"614 843 LINE",
"614 936 LINE",
"458 936 LINE",
"458 894 LINE",
"423 894 LINE",
"368 941 LINE",
"172 941 LINE",
"80 865 LINE",
"80 773 LINE",
"235 773 LINE",
"235 815 LINE",
"270 815 LINE",
"325 767 LINE"
);
}
);
width = 671;
}
);
leftKerningGroup = a;
note = uni1EB5;
rightKerningGroup = a;
unicode = 1EB5;
},
{
glyphname = acircumflex;
lastChange = "2019-09-03 21:22:04 +0000";
layers = (
{
hints = (
{
horizontal = 1;
place = "{242, 80}";
type = Stem;
},
{
horizontal = 1;
place = "{369, 154}";
type = Stem;
},
{
horizontal = 1;
place = "{569, 169}";
type = Stem;
},
{
place = "{11, 274}";
type = Stem;
},
{
place = "{331, 307}";
type = Stem;
}
);
layerId = "59338637-1E5C-47E2-9B1C-5C70074789A9";
paths = (
{
closed = 1;
nodes = (
"278 0 LINE",
"331 58 LINE",
"331 0 LINE",
"638 0 LINE",
"638 429 LINE",
"524 523 LINE",
"73 523 LINE",
"73 369 LINE",
"331 369 LINE",
"331 322 LINE",
"105 322 LINE",
"11 208 LINE",
"11 114 LINE",
"105 0 LINE"
);
},
{
closed = 1;
nodes = (
"285 242 LINE",
"331 242 LINE",
"331 154 LINE",
"322 144 LINE",
"285 102 LINE"
);
},
{
closed = 1;
nodes = (
"269 569 LINE",
"347 646 LINE",
"425 569 LINE",
"639 569 LINE",
"511 738 LINE",
"183 738 LINE",
"54 569 LINE"
);
}
);
width = 671;
}
);
leftKerningGroup = a;
note = acircumflex;
rightKerningGroup = a;
unicode = 00E2;
},
{
glyphname = uni1EA5;
lastChange = "2019-09-03 21:33:26 +0000";
layers = (
{
hints = (
{
horizontal = 1;
place = "{242, 80}";
type = Stem;
},
{
horizontal = 1;
place = "{369, 154}";
type = Stem;
},
{
horizontal = 1;
place = "{666, 169}";
type = Stem;
},
{
place = "{11, 274}";
type = Stem;
},
{
place = "{331, 307}";
type = Stem;
},
{
horizontal = 1;
place = "{569, 169}";
type = Stem;
}
);
layerId = "59338637-1E5C-47E2-9B1C-5C70074789A9";
paths = (
{
closed = 1;
nodes = (
"278 0 LINE",
"331 58 LINE",
"331 0 LINE",
"638 0 LINE",
"638 429 LINE",
"524 523 LINE",
"73 523 LINE",
"73 369 LINE",
"331 369 LINE",
"331 322 LINE",
"105 322 LINE",
"11 208 LINE",
"11 114 LINE",
"105 0 LINE"
);
},
{
closed = 1;
nodes = (
"285 242 LINE",
"331 242 LINE",
"331 154 LINE",
"322 144 LINE",
"285 102 LINE"
);
},
{
closed = 1;
nodes = (
"269 569 LINE",
"347 646 LINE",
"425 569 LINE",
"640 569 LINE",
"511 738 LINE",
"183 738 LINE",
"55 569 LINE"
);
},
{
closed = 1;
nodes = (
"812 666 LINE",
"983 835 LINE",
"719 835 LINE",
"606 666 LINE"
);
}
);
width = 671;
}
);
leftKerningGroup = a;
note = uni1EA5;
rightKerningGroup = a;
unicode = 1EA5;
},
{
glyphname = uni1EAD;
lastChange = "2019-09-03 21:22:04 +0000";
layers = (
{
hints = (
{
horizontal = 1;
place = "{-215, 169}";
type = Stem;
},
{
horizontal = 1;
place = "{242, 80}";
type = Stem;
},
{
horizontal = 1;
place = "{369, 154}";
type = Stem;
},
{
horizontal = 1;
place = "{569, 169}";
type = Stem;
},
{
place = "{193, 92}";
type = Stem;
},
{
place = "{331, 169}";
type = Stem;
},
{
place = "{331, 307}";
type = Stem;
}
);
layerId = "59338637-1E5C-47E2-9B1C-5C70074789A9";
paths = (
{
closed = 1;
nodes = (
"278 0 LINE",
"331 58 LINE",
"331 0 LINE",
"638 0 LINE",
"638 429 LINE",
"524 523 LINE",
"73 523 LINE",
"73 369 LINE",
"331 369 LINE",
"331 322 LINE",
"105 322 LINE",
"11 208 LINE",
"11 114 LINE",
"105 0 LINE"
);
},
{
closed = 1;
nodes = (
"500 -215 LINE",
"500 -46 LINE",
"193 -46 LINE",
"193 -215 LINE"
);
},
{
closed = 1;
nodes = (
"285 242 LINE",
"331 242 LINE",
"331 154 LINE",
"322 144 LINE",
"285 102 LINE"
);
},
{
closed = 1;
nodes = (
"269 569 LINE",
"347 646 LINE",
"425 569 LINE",
"639 569 LINE",
"511 738 LINE",
"183 738 LINE",
"54 569 LINE"
);
}
);
width = 671;
}
);
leftKerningGroup = a;
note = uni1EAD;
rightKerningGroup = a;
unicode = 1EAD;
},
{
glyphname = uni1EA7;
lastChange = "2019-09-03 21:22:04 +0000";
layers = (
{
hints = (
{
horizontal = 1;
place = "{242, 80}";
type = Stem;
},
{
horizontal = 1;
place = "{369, 154}";
type = Stem;
},
{
horizontal = 1;
place = "{666, 169}";
type = Stem;
},
{
place = "{11, 274}";
type = Stem;
},
{
place = "{331, 307}";
type = Stem;
},
{
horizontal = 1;
place = "{569, 169}";
type = Stem;
}
);
layerId = "59338637-1E5C-47E2-9B1C-5C70074789A9";
paths = (
{
closed = 1;
nodes = (
"278 0 LINE",
"331 58 LINE",
"331 0 LINE",
"638 0 LINE",
"638 429 LINE",
"524 523 LINE",
"73 523 LINE",
"73 369 LINE",
"331 369 LINE",
"331 322 LINE",
"105 322 LINE",
"11 208 LINE",
"11 114 LINE",
"105 0 LINE"
);
},
{
closed = 1;
nodes = (
"285 242 LINE",
"331 242 LINE",
"331 154 LINE",
"322 144 LINE",
"285 102 LINE"
);
},
{
closed = 1;
nodes = (
"88 666 LINE",
"-25 835 LINE",
"-289 835 LINE",
"-118 666 LINE"
);
},
{
closed = 1;
nodes = (
"269 569 LINE",
"347 646 LINE",
"425 569 LINE",
"639 569 LINE",
"511 738 LINE",
"183 738 LINE",
"54 569 LINE"
);
}
);
width = 671;
}
);
leftKerningGroup = a;
note = uni1EA7;
rightKerningGroup = a;
unicode = 1EA7;
},
{
glyphname = uni1EA9;
lastChange = "2019-09-03 21:22:04 +0000";
layers = (
{
hints = (
{
horizontal = 1;
place = "{242, 80}";
type = Stem;
},
{
horizontal = 1;
place = "{369, 154}";
type = Stem;
},
{
horizontal = 1;
place = "{569, 169}";
type = Stem;
},
{
horizontal = 1;
place = "{792, 122}";
type = Stem;
},
{
place = "{11, 274}";
type = Stem;
},
{
place = "{506, 179}";
type = Stem;
},
{
place = "{724, 184}";
type = Stem;
},
{
horizontal = 1;
place = "{666, 98}";
type = Stem;
},
{
place = "{331, 307}";
type = Stem;
}
);
layerId = "59338637-1E5C-47E2-9B1C-5C70074789A9";
paths = (
{
closed = 1;
nodes = (
"278 0 LINE",
"331 58 LINE",
"331 0 LINE",
"638 0 LINE",
"638 429 LINE",
"524 523 LINE",
"73 523 LINE",
"73 369 LINE",
"331 369 LINE",
"331 322 LINE",
"105 322 LINE",
"11 208 LINE",
"11 114 LINE",
"105 0 LINE"
);
},
{
closed = 1;
nodes = (
"285 242 LINE",
"331 242 LINE",
"331 154 LINE",
"322 144 LINE",
"285 102 LINE"
);
},
{
closed = 1;
nodes = (
"269 569 LINE",
"347 646 LINE",
"425 569 LINE",
"639 569 LINE",
"511 738 LINE",
"183 738 LINE",
"54 569 LINE"
);
},
{
closed = 1;
nodes = (
"814 666 LINE",
"814 698 LINE",
"854 698 LINE",
"908 752 LINE",
"908 859 LINE",
"843 914 LINE",
"571 914 LINE",
"506 859 LINE",
"506 792 LINE",
"685 792 LINE",
"685 844 LINE",
"724 844 LINE",
"724 764 LINE",
"640 764 LINE",
"594 718 LINE",
"594 666 LINE"
);
}
);
width = 671;
}
);
leftKerningGroup = a;
note = uni1EA9;
rightKerningGroup = a;
unicode = 1EA9;
},
{
glyphname = uni1EAB;
lastChange = "2019-09-03 21:22:04 +0000";
layers = (
{
hints = (
{
horizontal = 1;
place = "{242, 80}";
type = Stem;
},
{
horizontal = 1;
place = "{369, 154}";
type = Stem;
},
{
horizontal = 1;
place = "{569, 169}";
type = Stem;
},
{
horizontal = 1;
place = "{773, 168}";
type = Stem;
},
{
place = "{81, 155}";
type = Stem;
},
{
place = "{459, 156}";
type = Stem;
},
{
horizontal = 1;
place = "{767, 169}";
type = Stem;
},
{
place = "{11, 274}";
type = Stem;
},
{
place = "{331, 307}";
type = Stem;
}
);
layerId = "59338637-1E5C-47E2-9B1C-5C70074789A9";
paths = (
{
closed = 1;
nodes = (
"278 0 LINE",
"331 58 LINE",
"331 0 LINE",
"638 0 LINE",
"638 429 LINE",
"524 523 LINE",
"73 523 LINE",
"73 369 LINE",
"331 369 LINE",
"331 322 LINE",
"105 322 LINE",
"11 208 LINE",
"11 114 LINE",
"105 0 LINE"
);
},
{
closed = 1;
nodes = (
"285 242 LINE",
"331 242 LINE",
"331 154 LINE",
"322 144 LINE",
"285 102 LINE"
);
},
{
closed = 1;
nodes = (
"269 569 LINE",
"347 646 LINE",
"425 569 LINE",
"639 569 LINE",
"511 738 LINE",
"183 738 LINE",
"54 569 LINE"
);
},
{
closed = 1;
nodes = (
"522 767 LINE",
"615 843 LINE",
"615 936 LINE",
"459 936 LINE",
"459 894 LINE",
"424 894 LINE",
"369 941 LINE",
"173 941 LINE",
"81 865 LINE",
"81 773 LINE",
"236 773 LINE",
"236 815 LINE",
"271 815 LINE",
"326 767 LINE"
);
}
);
width = 671;
}
);
leftKerningGroup = a;
note = uni1EAB;
rightKerningGroup = a;
unicode = 1EAB;
},
{
glyphname = uni0201;
lastChange = "2019-09-03 21:22:04 +0000";
layers = (
{
hints = (
{
horizontal = 1;
place = "{242, 80}";
type = Stem;
},
{
horizontal = 1;
place = "{369, 154}";
type = Stem;
},
{
horizontal = 1;
place = "{569, 169}";
type = Stem;
},
{
place = "{11, 274}";
type = Stem;
},
{
place = "{331, 307}";
type = Stem;
}
);
layerId = "59338637-1E5C-47E2-9B1C-5C70074789A9";
paths = (
{
closed = 1;
nodes = (
"278 0 LINE",
"331 58 LINE",
"331 0 LINE",
"638 0 LINE",
"638 429 LINE",
"524 523 LINE",
"73 523 LINE",
"73 369 LINE",
"331 369 LINE",
"331 322 LINE",
"105 322 LINE",
"11 208 LINE",
"11 114 LINE",
"105 0 LINE"
);
},
{
closed = 1;
nodes = (
"285 242 LINE",
"331 242 LINE",
"331 154 LINE",
"322 144 LINE",
"285 102 LINE"
);
},
{
closed = 1;
nodes = (
"299 569 LINE",
"186 738 LINE",
"-67 738 LINE",
"105 569 LINE"
);
},
{
closed = 1;
nodes = (
"588 569 LINE",
"474 738 LINE",
"221 738 LINE",
"393 569 LINE"
);
}
);
width = 671;
}
);
leftKerningGroup = a;
note = uni0201;
rightKerningGroup = a;
unicode = 0201;
},
{
glyphname = adieresis;
lastChange = "2019-09-03 21:33:26 +0000";
layers = (
{
hints = (
{
horizontal = 1;
place = "{242, 80}";
type = Stem;
},
{
horizontal = 1;
place = "{369, 154}";
type = Stem;
},
{
horizontal = 1;
place = "{569, 169}";
type = Stem;
},
{
place = "{51, 274}";
type = Stem;
},
{
place = "{371, 274}";
type = Stem;
},
{
place = "{11, 274}";
type = Stem;
},
{
place = "{331, 307}";
type = Stem;
}
);
layerId = "59338637-1E5C-47E2-9B1C-5C70074789A9";
paths = (
{
closed = 1;
nodes = (
"278 0 LINE",
"331 58 LINE",
"331 0 LINE",
"638 0 LINE",
"638 429 LINE",
"524 523 LINE",
"73 523 LINE",
"73 369 LINE",
"331 369 LINE",
"331 322 LINE",
"105 322 LINE",
"11 208 LINE",
"11 114 LINE",
"105 0 LINE"
);
},
{
closed = 1;
nodes = (
"285 242 LINE",
"331 242 LINE",
"331 154 LINE",
"322 144 LINE",
"285 102 LINE"
);
},
{
closed = 1;
nodes = (
"325 569 LINE",
"325 738 LINE",
"51 738 LINE",
"51 569 LINE"
);
},
{
closed = 1;
nodes = (
"645 569 LINE",
"645 738 LINE",
"371 738 LINE",
"371 569 LINE"
);
}
);
width = 671;
}
);
leftKerningGroup = a;
note = adieresis;
rightKerningGroup = a;
unicode = 00E4;
},
{
glyphname = uni1EA1;
lastChange = "2019-09-03 21:22:04 +0000";
layers = (
{
hints = (
{
horizontal = 1;
place = "{-215, 169}";
type = Stem;
},
{
horizontal = 1;
place = "{242, 80}";
type = Stem;
},
{
horizontal = 1;
place = "{369, 154}";
type = Stem;
},
{
place = "{193, 92}";
type = Stem;
},
{
place = "{331, 169}";
type = Stem;
},
{
place = "{331, 307}";
type = Stem;
}
);
layerId = "59338637-1E5C-47E2-9B1C-5C70074789A9";
paths = (
{
closed = 1;
nodes = (
"278 0 LINE",
"331 58 LINE",
"331 0 LINE",
"638 0 LINE",
"638 429 LINE",
"524 523 LINE",
"73 523 LINE",
"73 369 LINE",
"331 369 LINE",
"331 322 LINE",
"105 322 LINE",
"11 208 LINE",
"11 114 LINE",
"105 0 LINE"
);
},
{
closed = 1;
nodes = (
"500 -215 LINE",
"500 -46 LINE",
"193 -46 LINE",
"193 -215 LINE"
);
},
{
closed = 1;
nodes = (
"285 242 LINE",
"331 242 LINE",
"331 154 LINE",
"322 144 LINE",
"285 102 LINE"
);
}
);
width = 671;
}
);
leftKerningGroup = a;
note = uni1EA1;
rightKerningGroup = a;
unicode = 1EA1;
},
{
glyphname = agrave;
lastChange = "2019-09-03 21:22:04 +0000";
layers = (
{
hints = (
{
horizontal = 1;
place = "{242, 80}";
type = Stem;
},
{
horizontal = 1;
place = "{369, 154}";
type = Stem;
},
{
horizontal = 1;
place = "{569, 169}";
type = Stem;
},
{
place = "{11, 274}";
type = Stem;
},
{
place = "{331, 307}";
type = Stem;
}
);
layerId = "59338637-1E5C-47E2-9B1C-5C70074789A9";
paths = (
{
closed = 1;
nodes = (
"278 0 LINE",
"331 58 LINE",
"331 0 LINE",
"638 0 LINE",
"638 429 LINE",
"524 523 LINE",
"73 523 LINE",
"73 369 LINE",
"331 369 LINE",
"331 322 LINE",
"105 322 LINE",
"11 208 LINE",
"11 114 LINE",
"105 0 LINE"
);
},
{
closed = 1;
nodes = (
"285 242 LINE",
"331 242 LINE",
"331 154 LINE",
"322 144 LINE",
"285 102 LINE"
);
},
{
closed = 1;
nodes = (
"449 569 LINE",
"336 738 LINE",
"72 738 LINE",
"243 569 LINE"
);
}
);
width = 671;
}
);
leftKerningGroup = a;
note = agrave;
rightKerningGroup = a;
unicode = 00E0;
},
{
glyphname = uni1EA3;
lastChange = "2019-09-03 21:22:04 +0000";
layers = (
{
hints = (
{
horizontal = 1;
place = "{242, 80}";
type = Stem;
},
{
horizontal = 1;
place = "{369, 154}";
type = Stem;
},
{
horizontal = 1;
place = "{694, 122}";
type = Stem;
},
{
place = "{149, 179}";
type = Stem;
},
{
place = "{367, 184}";
type = Stem;
},
{
horizontal = 1;
place = "{568, 98}";
type = Stem;
},
{
place = "{11, 274}";
type = Stem;
},
{
place = "{331, 307}";
type = Stem;
}
);
layerId = "59338637-1E5C-47E2-9B1C-5C70074789A9";
paths = (
{
closed = 1;
nodes = (
"278 0 LINE",
"331 58 LINE",
"331 0 LINE",
"638 0 LINE",
"638 429 LINE",
"524 523 LINE",
"73 523 LINE",
"73 369 LINE",
"331 369 LINE",
"331 322 LINE",
"105 322 LINE",
"11 208 LINE",
"11 114 LINE",
"105 0 LINE"
);
},
{
closed = 1;
nodes = (
"285 242 LINE",
"331 242 LINE",
"331 154 LINE",
"322 144 LINE",
"285 102 LINE"
);
},
{
closed = 1;
nodes = (
"457 568 LINE",
"457 600 LINE",
"497 600 LINE",
"551 654 LINE",
"551 761 LINE",
"486 816 LINE",
"214 816 LINE",
"149 761 LINE",
"149 694 LINE",
"328 694 LINE",
"328 746 LINE",
"367 746 LINE",
"367 666 LINE",
"283 666 LINE",
"237 620 LINE",
"237 568 LINE"
);
}
);
width = 671;
}
);
leftKerningGroup = a;
note = uni1EA3;
rightKerningGroup = a;
unicode = 1EA3;
},
{
glyphname = uni0203;
lastChange = "2019-09-03 21:22:04 +0000";
layers = (
{
hints = (
{
horizontal = 1;
place = "{242, 80}";
type = Stem;
},
{
horizontal = 1;
place = "{369, 154}";
type = Stem;
},
{
horizontal = 1;
place = "{569, 169}";
type = Stem;
},
{
place = "{110, 174}";
type = Stem;
},
{
place = "{409, 174}";
type = Stem;
},
{
place = "{11, 274}";
type = Stem;
},
{
place = "{331, 307}";
type = Stem;
}
);
layerId = "59338637-1E5C-47E2-9B1C-5C70074789A9";
paths = (
{
closed = 1;
nodes = (
"278 0 LINE",
"331 58 LINE",
"331 0 LINE",
"638 0 LINE",
"638 429 LINE",
"524 523 LINE",
"73 523 LINE",
"73 369 LINE",
"331 369 LINE",
"331 322 LINE",
"105 322 LINE",
"11 208 LINE",
"11 114 LINE",
"105 0 LINE"
);
},
{
closed = 1;
nodes = (
"285 242 LINE",
"331 242 LINE",
"331 154 LINE",
"322 144 LINE",
"285 102 LINE"
);
},
{
closed = 1;
nodes = (
"284 569 LINE",
"284 611 LINE",
"409 611 LINE",
"409 569 LINE",
"583 569 LINE",
"583 651 LINE",
"487 738 LINE",
"205 738 LINE",
"110 651 LINE",
"110 569 LINE"
);
}
);
width = 671;
}
);
leftKerningGroup = a;
note = uni0203;
rightKerningGroup = a;
unicode = 0203;
},
{
glyphname = amacron;
lastChange = "2019-09-03 21:33:26 +0000";
layers = (
{
hints = (
{
horizontal = 1;
place = "{242, 80}";
type = Stem;
},
{
horizontal = 1;
place = "{369, 154}";
type = Stem;
},
{
horizontal = 1;
place = "{569, 169}";
type = Stem;
},
{
place = "{11, 274}";
type = Stem;
},
{
place = "{331, 307}";
type = Stem;
}
);
layerId = "59338637-1E5C-47E2-9B1C-5C70074789A9";
paths = (
{
closed = 1;
nodes = (
"278 0 LINE",
"331 58 LINE",
"331 0 LINE",
"638 0 LINE",
"638 429 LINE",
"524 523 LINE",
"73 523 LINE",
"73 369 LINE",
"331 369 LINE",
"331 322 LINE",
"105 322 LINE",
"11 208 LINE",
"11 114 LINE",
"105 0 LINE"
);
},
{
closed = 1;
nodes = (
"285 242 LINE",
"331 242 LINE",
"331 154 LINE",
"322 144 LINE",
"285 102 LINE"
);
},
{
closed = 1;
nodes = (
"644 569 LINE",
"644 738 LINE",
"50 738 LINE",
"50 569 LINE"
);
}
);
width = 671;
}
);
leftKerningGroup = a;
note = amacron;
rightKerningGroup = a;
unicode = 0101;
},
{
glyphname = aogonek;
lastChange = "2019-09-03 21:22:04 +0000";
layers = (
{
hints = (
{
horizontal = 1;
place = "{242, 80}";
type = Stem;
},
{
horizontal = 1;
place = "{369, 154}";
type = Stem;
},
{
place = "{11, 274}";
type = Stem;
},
{
horizontal = 1;
place = "{-198, 143}";
type = Stem;
},
{
place = "{285, 188}";
type = Stem;
},
{
place = "{331, 307}";
type = Stem;
}
);
layerId = "59338637-1E5C-47E2-9B1C-5C70074789A9";
paths = (
{
closed = 1;
nodes = (
"473 -198 LINE",
"473 -55 LINE",
"452 -55 LINE",
"439 -44 LINE",
"439 -23 LINE",
"468 0 LINE",
"638 0 LINE",
"638 429 LINE",
"524 523 LINE",
"73 523 LINE",
"73 369 LINE",
"331 369 LINE",
"331 322 LINE",
"105 322 LINE",
"11 208 LINE",
"11 114 LINE",
"105 0 LINE",
"278 0 LINE",
"331 58 LINE",
"331 0 LINE",
"285 -33 LINE",
"285 -127 LINE",
"373 -198 LINE"
);
},
{
closed = 1;
nodes = (
"285 242 LINE",
"331 242 LINE",
"331 154 LINE",
"322 144 LINE",
"285 102 LINE"
);
}
);
width = 671;
}
);
leftKerningGroup = a;
note = aogonek;
rightKerningGroup = a;
unicode = 0105;
},
{
glyphname = aring;
lastChange = "2019-09-03 21:22:04 +0000";
layers = (
{
hints = (
{
horizontal = 1;
place = "{242, 80}";
type = Stem;
},
{
horizontal = 1;
place = "{369, 154}";
type = Stem;
},
{
horizontal = 1;
place = "{569, 107}";
type = Stem;
},
{
horizontal = 1;
place = "{711, 107}";
type = Stem;
},
{
place = "{203, 127}";
type = Stem;
},
{
place = "{365, 126}";
type = Stem;
},
{
place = "{11, 274}";
type = Stem;
},
{
place = "{331, 307}";
type = Stem;
}
);
layerId = "59338637-1E5C-47E2-9B1C-5C70074789A9";
paths = (
{
closed = 1;
nodes = (
"278 0 LINE",
"331 58 LINE",
"331 0 LINE",
"638 0 LINE",
"638 429 LINE",
"524 523 LINE",
"73 523 LINE",
"73 369 LINE",
"331 369 LINE",
"331 322 LINE",
"105 322 LINE",
"11 208 LINE",
"11 114 LINE",
"105 0 LINE"
);
},
{
closed = 1;
nodes = (
"285 242 LINE",
"331 242 LINE",
"331 154 LINE",
"322 144 LINE",
"285 102 LINE"
);
},
{
closed = 1;
nodes = (
"412 569 LINE",
"491 648 LINE",
"491 739 LINE",
"412 818 LINE",
"282 818 LINE",
"203 739 LINE",
"203 648 LINE",
"282 569 LINE"
);
},
{
closed = 1;
nodes = (
"330 687 LINE",
"330 700 LINE",
"341 711 LINE",
"354 711 LINE",
"365 700 LINE",
"365 687 LINE",
"354 676 LINE",
"341 676 LINE"
);
}
);
width = 671;
}
);
leftKerningGroup = a;
note = aring;
rightKerningGroup = a;
unicode = 00E5;
},
{
glyphname = aringacute;
lastChange = "2019-09-03 21:22:04 +0000";
layers = (
{
hints = (
{
horizontal = 1;
place = "{242, 80}";
type = Stem;
},
{
horizontal = 1;
place = "{369, 154}";
type = Stem;
},
{
horizontal = 1;
place = "{569, 107}";
type = Stem;
},
{
horizontal = 1;
place = "{711, 107}";
type = Stem;
},
{
horizontal = 1;
place = "{850, 169}";
type = Stem;
},
{
place = "{11, 274}";
type = Stem;
},
{
place = "{331, 307}";
type = Stem;
},
{
place = "{203, 127}";
type = Stem;
},
{
place = "{365, 126}";
type = Stem;
}
);
layerId = "59338637-1E5C-47E2-9B1C-5C70074789A9";
paths = (
{
closed = 1;
nodes = (
"278 0 LINE",
"331 58 LINE",
"331 0 LINE",
"638 0 LINE",
"638 429 LINE",
"524 523 LINE",
"73 523 LINE",
"73 369 LINE",
"331 369 LINE",
"331 322 LINE",
"105 322 LINE",
"11 208 LINE",
"11 114 LINE",
"105 0 LINE"
);
},
{
closed = 1;
nodes = (
"285 242 LINE",
"331 242 LINE",
"331 154 LINE",
"322 144 LINE",
"285 102 LINE"
);
},
{
closed = 1;
nodes = (
"412 569 LINE",
"491 648 LINE",
"491 739 LINE",
"412 818 LINE",
"282 818 LINE",
"203 739 LINE",
"203 648 LINE",
"282 569 LINE"
);
},
{
closed = 1;
nodes = (
"330 687 LINE",
"330 700 LINE",
"341 711 LINE",
"354 711 LINE",
"365 700 LINE",
"365 687 LINE",
"354 676 LINE",
"341 676 LINE"
);
},
{
closed = 1;
nodes = (
"457 850 LINE",
"628 1019 LINE",
"364 1019 LINE",
"251 850 LINE"
);
}
);
width = 671;
}
);
leftKerningGroup = a;
note = aringacute;
rightKerningGroup = a;
unicode = 01FB;
},
{
glyphname = atilde;
lastChange = "2019-09-03 21:22:04 +0000";
layers = (
{
hints = (
{
horizontal = 1;
place = "{242, 80}";
type = Stem;
},
{
horizontal = 1;
place = "{369, 154}";
type = Stem;
},
{
horizontal = 1;
place = "{575, 168}";
type = Stem;
},
{
place = "{80, 155}";
type = Stem;
},
{
place = "{458, 156}";
type = Stem;
},
{
horizontal = 1;
place = "{569, 169}";
type = Stem;
},
{
place = "{11, 274}";
type = Stem;
},
{
place = "{331, 307}";
type = Stem;
}
);
layerId = "59338637-1E5C-47E2-9B1C-5C70074789A9";
paths = (
{
closed = 1;
nodes = (
"278 0 LINE",
"331 58 LINE",
"331 0 LINE",
"638 0 LINE",
"638 429 LINE",
"524 523 LINE",
"73 523 LINE",
"73 369 LINE",
"331 369 LINE",
"331 322 LINE",
"105 322 LINE",
"11 208 LINE",
"11 114 LINE",
"105 0 LINE"
);
},
{
closed = 1;
nodes = (
"285 242 LINE",
"331 242 LINE",
"331 154 LINE",
"322 144 LINE",
"285 102 LINE"
);
},
{
closed = 1;
nodes = (
"521 569 LINE",
"614 645 LINE",
"614 738 LINE",
"458 738 LINE",
"458 696 LINE",
"423 696 LINE",
"368 743 LINE",
"172 743 LINE",
"80 667 LINE",
"80 575 LINE",
"235 575 LINE",
"235 617 LINE",
"270 617 LINE",
"325 569 LINE"
);
}
);
width = 671;
}
);
leftKerningGroup = a;
note = atilde;
rightKerningGroup = a;
unicode = 00E3;
},
{
glyphname = ae;
lastChange = "2019-09-03 21:22:04 +0000";
layers = (
{
hints = (
{
horizontal = 1;
place = "{0, 162}";
type = Stem;
},
{
horizontal = 1;
place = "{217, 97}";
type = Stem;
},
{
horizontal = 1;
place = "{369, 154}";
type = Stem;
},
{
place = "{11, 274}";
type = Stem;
},
{
place = "{684, 263}";
type = Stem;
}
);
layerId = "59338637-1E5C-47E2-9B1C-5C70074789A9";
paths = (
{
closed = 1;
nodes = (
"318 0 LINE",
"390 79 LINE",
"486 0 LINE",
"942 0 LINE",
"942 162 LINE",
"638 162 LINE",
"638 217 LINE",
"947 217 LINE",
"947 429 LINE",
"833 523 LINE",
"73 523 LINE",
"73 369 LINE",
"331 369 LINE",
"331 314 LINE",
"105 314 LINE",
"11 200 LINE",
"11 114 LINE",
"105 0 LINE"
);
},
{
closed = 1;
nodes = (
"285 217 LINE",
"331 217 LINE",
"331 154 LINE",
"322 144 LINE",
"285 102 LINE"
);
},
{
closed = 1;
nodes = (
"638 429 LINE",
"684 429 LINE",
"684 314 LINE",
"638 314 LINE"
);
}
);
width = 975;
}
);
leftKerningGroup = a;
note = ae;
rightKerningGroup = ae;
unicode = 00E6;
},
{
glyphname = aeacute;
lastChange = "2019-09-03 21:22:04 +0000";
layers = (
{
hints = (
{
horizontal = 1;
place = "{0, 162}";
type = Stem;
},
{
horizontal = 1;
place = "{217, 97}";
type = Stem;
},
{
horizontal = 1;
place = "{369, 154}";
type = Stem;
},
{
horizontal = 1;
place = "{569, 169}";
type = Stem;
},
{
place = "{11, 274}";
type = Stem;
},
{
place = "{684, 263}";
type = Stem;
}
);
layerId = "59338637-1E5C-47E2-9B1C-5C70074789A9";
paths = (
{
closed = 1;
nodes = (
"318 0 LINE",
"390 79 LINE",
"486 0 LINE",
"942 0 LINE",
"942 162 LINE",
"638 162 LINE",
"638 217 LINE",
"947 217 LINE",
"947 429 LINE",
"833 523 LINE",
"73 523 LINE",
"73 369 LINE",
"331 369 LINE",
"331 314 LINE",
"105 314 LINE",
"11 200 LINE",
"11 114 LINE",
"105 0 LINE"
);
},
{
closed = 1;
nodes = (
"285 217 LINE",
"331 217 LINE",
"331 154 LINE",
"322 144 LINE",
"285 102 LINE"
);
},
{
closed = 1;
nodes = (
"638 429 LINE",
"684 429 LINE",
"684 314 LINE",
"638 314 LINE"
);
},
{
closed = 1;
nodes = (
"596 569 LINE",
"767 738 LINE",
"503 738 LINE",
"390 569 LINE"
);
}
);
width = 975;
}
);
leftKerningGroup = a;
note = aeacute;
rightKerningGroup = ae;
unicode = 01FD;
},
{
glyphname = b;
lastChange = "2019-09-03 21:22:04 +0000";
layers = (
{
hints = (
{
horizontal = 1;
place = "{0, 94}";
type = Stem;
},
{
place = "{33, 308}";
type = Stem;
},
{
place = "{387, 307}";
type = Stem;
}
);
layerId = "59338637-1E5C-47E2-9B1C-5C70074789A9";
paths = (
{
closed = 1;
nodes = (
"580 0 LINE",
"694 94 LINE",
"694 429 LINE",
"580 523 LINE",
"394 523 LINE",
"341 490 LINE",
"341 737 LINE",
"33 737 LINE",
"33 0 LINE"
);
},
{
closed = 1;
nodes = (
"341 397 LINE",
"387 425 LINE",
"387 94 LINE",
"341 94 LINE"
);
}
);
width = 722;
}
);
leftKerningGroup = b;
note = b;
rightKerningGroup = b;
unicode = 0062;
},
